<?xml version="1.0" encoding="UTF-8" standalone="no"?>
<!DOCTYPE svg PUBLIC "-//W3C//DTD SVG 1.1//EN"
 "http://www.w3.org/Graphics/SVG/1.1/DTD/svg11.dtd">
<!-- Generated by graphviz version 2.44.0 (0)
 -->
<!-- Title: 100 Pages: 1 -->
<svg width="376pt" height="344pt"
 viewBox="0.00 0.00 375.70 344.26" xmlns="http://www.w3.org/2000/svg" xmlns:xlink="http://www.w3.org/1999/xlink">
<g id="page0,1_graph0" class="graph" transform="scale(1 1) rotate(0) translate(21.6 322.66)">
<title>100</title>
<polygon fill="white" stroke="transparent" points="-21.6,21.6 -21.6,-322.66 354.1,-322.66 354.1,21.6 -21.6,21.6"/>
<!-- enter -->
<g id="node1" class="node">
<title>enter</title>
</g>
<!-- empty -->
<g id="node2" class="node">
<title>empty</title>
<ellipse fill="none" stroke="black" cx="163.75" cy="-210.06" rx="18" ry="18"/>
</g>
<!-- enter&#45;&gt;empty -->
<g id="edge1" class="edge">
<title>enter&#45;&gt;empty</title>
<path fill="none" stroke="black" d="M163.75,-264.87C163.75,-256.85 163.75,-247.11 163.75,-238.13"/>
<polygon fill="black" stroke="black" points="167.25,-238.09 163.75,-228.09 160.25,-238.09 167.25,-238.09"/>
</g>
<!-- 0 -->
<g id="node3" class="node">
<title>0</title>
<ellipse fill="none" stroke="black" cx="127.75" cy="-123.06" rx="18" ry="18"/>
<text text-anchor="middle" x="127.75" y="-119.36" font-family="Times,serif" font-size="14.00">0</text>
</g>
<!-- empty&#45;&gt;0 -->
<g id="edge2" class="edge">
<title>empty&#45;&gt;0</title>
<path fill="none" stroke="red" d="M156.98,-193.07C151.75,-180.73 144.41,-163.41 138.4,-149.21"/>
<polygon fill="red" stroke="red" points="141.61,-147.82 134.49,-139.98 135.17,-150.55 141.61,-147.82"/>
<text text-anchor="middle" x="153.75" y="-162.86" font-family="Times,serif" font-size="14.00">0</text>
</g>
<!-- 1 -->
<g id="node4" class="node">
<title>1</title>
<ellipse fill="none" stroke="black" cx="200.75" cy="-123.06" rx="18" ry="18"/>
<text text-anchor="middle" x="200.75" y="-119.36" font-family="Times,serif" font-size="14.00">1</text>
</g>
<!-- empty&#45;&gt;1 -->
<g id="edge3" class="edge">
<title>empty&#45;&gt;1</title>
<path fill="none" stroke="blue" d="M170.71,-193.07C176.08,-180.73 183.62,-163.41 189.8,-149.21"/>
<polygon fill="blue" stroke="blue" points="193.04,-150.54 193.82,-139.98 186.62,-147.75 193.04,-150.54"/>
<text text-anchor="middle" x="189.75" y="-162.86" font-family="Times,serif" font-size="14.00">1</text>
</g>
<!-- 00 -->
<g id="node5" class="node">
<title>00</title>
<ellipse fill="none" stroke="black" cx="50.75" cy="-27.31" rx="22.96" ry="22.96"/>
<ellipse fill="none" stroke="black" cx="50.75" cy="-27.31" rx="27" ry="27"/>
<text text-anchor="middle" x="50.75" y="-23.61" font-family="Times,serif" font-size="14.00">00</text>
</g>
<!-- 0&#45;&gt;00 -->
<g id="edge4" class="edge">
<title>0&#45;&gt;00</title>
<path fill="none" stroke="red" d="M116.72,-108.63C105.64,-95.14 88.23,-73.94 74.07,-56.71"/>
<polygon fill="red" stroke="red" points="76.48,-54.13 67.43,-48.62 71.07,-58.57 76.48,-54.13"/>
<text text-anchor="middle" x="103.75" y="-75.86" font-family="Times,serif" font-size="14.00">0</text>
</g>
<!-- 01 -->
<g id="node6" class="node">
<title>01</title>
<ellipse fill="none" stroke="black" cx="127.75" cy="-27.31" rx="23" ry="23"/>
<text text-anchor="middle" x="127.75" y="-23.61" font-family="Times,serif" font-size="14.00">01</text>
</g>
<!-- 0&#45;&gt;01 -->
<g id="edge5" class="edge">
<title>0&#45;&gt;01</title>
<path fill="none" stroke="blue" d="M127.75,-104.87C127.75,-92.53 127.75,-75.54 127.75,-60.69"/>
<polygon fill="blue" stroke="blue" points="131.25,-60.36 127.75,-50.36 124.25,-60.36 131.25,-60.36"/>
<text text-anchor="middle" x="132.75" y="-75.86" font-family="Times,serif" font-size="14.00">1</text>
</g>
<!-- 10 -->
<g id="node7" class="node">
<title>10</title>
<ellipse fill="none" stroke="black" cx="200.75" cy="-27.31" rx="23" ry="23"/>
<text text-anchor="middle" x="200.75" y="-23.61" font-family="Times,serif" font-size="14.00">10</text>
</g>
<!-- 1&#45;&gt;10 -->
<g id="edge6" class="edge">
<title>1&#45;&gt;10</title>
<path fill="none" stroke="red" d="M200.75,-104.87C200.75,-92.53 200.75,-75.54 200.75,-60.69"/>
<polygon fill="red" stroke="red" points="204.25,-60.36 200.75,-50.36 197.25,-60.36 204.25,-60.36"/>
<text text-anchor="middle" x="205.75" y="-75.86" font-family="Times,serif" font-size="14.00">0</text>
</g>
<!-- 11 -->
<g id="node8" class="node">
<title>11</title>
<ellipse fill="none" stroke="black" cx="277.75" cy="-27.31" rx="22.96" ry="22.96"/>
<ellipse fill="none" stroke="black" cx="277.75" cy="-27.31" rx="27" ry="27"/>
<text text-anchor="middle" x="277.75" y="-23.61" font-family="Times,serif" font-size="14.00">11</text>
</g>
<!-- 1&#45;&gt;11 -->
<g id="edge7" class="edge">
<title>1&#45;&gt;11</title>
<path fill="none" stroke="blue" d="M211.78,-108.63C222.86,-95.14 240.27,-73.94 254.42,-56.71"/>
<polygon fill="blue" stroke="blue" points="257.42,-58.57 261.07,-48.62 252.01,-54.13 257.42,-58.57"/>
<text text-anchor="middle" x="246.75" y="-75.86" font-family="Times,serif" font-size="14.00">1</text>
</g>
<!-- 00&#45;&gt;00 -->
<g id="edge8" class="edge">
<title>00:nw&#45;&gt;00:sw</title>
<path fill="none" stroke="red" d="M31.75,-46.31C19.33,-59.31 10,-59.31 10,-27.31 10,-2.31 15.7,3.16 24.11,-1.85"/>
<polygon fill="red" stroke="red" points="21.85,-4.52 31.75,-8.31 26.38,0.82 21.85,-4.52"/>
<text text-anchor="middle" x="5" y="-23.61" font-family="Times,serif" font-size="14.00">0</text>
</g>
<!-- 00&#45;&gt;01 -->
<g id="edge9" class="edge">
<title>00&#45;&gt;01</title>
<path fill="none" stroke="blue" d="M77.68,-27.31C83.07,-27.31 88.79,-27.31 94.37,-27.31"/>
<polygon fill="blue" stroke="blue" points="94.8,-30.81 104.8,-27.31 94.8,-23.81 94.8,-30.81"/>
<text text-anchor="middle" x="91.25" y="-34.11" font-family="Times,serif" font-size="14.00">1</text>
</g>
<!-- 01&#45;&gt;10 -->
<g id="edge10" class="edge">
<title>01&#45;&gt;10</title>
<path fill="none" stroke="red" d="M150.85,-27.31C156.22,-27.31 162.05,-27.31 167.77,-27.31"/>
<polygon fill="red" stroke="red" points="167.8,-30.81 177.8,-27.31 167.8,-23.81 167.8,-30.81"/>
<text text-anchor="middle" x="164.25" y="-34.11" font-family="Times,serif" font-size="14.00">0</text>
</g>
<!-- 01&#45;&gt;11 -->
<g id="edge11" class="edge">
<title>01&#45;&gt;11</title>
<path fill="none" stroke="blue" d="M136.79,-48.37C145.25,-64.44 159.34,-83.18 177.75,-79.06 202.61,-73.49 228.08,-60.18 247.1,-48.45"/>
<polygon fill="blue" stroke="blue" points="249.05,-51.35 255.62,-43.03 245.3,-45.44 249.05,-51.35"/>
<text text-anchor="middle" x="172.75" y="-75.86" font-family="Times,serif" font-size="14.00">1</text>
</g>
<!-- 10&#45;&gt;00 -->
<g id="edge12" class="edge">
<title>10&#45;&gt;00</title>
<path fill="none" stroke="red" d="M191.31,-48.16C182.4,-64.37 167.61,-83.43 148.75,-79.06 124.59,-73.46 99.91,-60.38 81.36,-48.77"/>
<polygon fill="red" stroke="red" points="83.08,-45.71 72.78,-43.23 79.28,-51.59 83.08,-45.71"/>
<text text-anchor="middle" x="153.75" y="-75.86" font-family="Times,serif" font-size="14.00">0</text>
</g>
<!-- 10&#45;&gt;01 -->
<g id="edge13" class="edge">
<title>10&#45;&gt;01</title>
<path fill="none" stroke="blue" d="M181.77,-14.41C177.8,-12.3 173.51,-10.44 169.25,-9.31 164.68,-8.1 159.98,-8.45 155.44,-9.7"/>
<polygon fill="blue" stroke="blue" points="153.85,-6.57 145.92,-13.59 156.5,-13.05 153.85,-6.57"/>
<text text-anchor="middle" x="164.25" y="-13.11" font-family="Times,serif" font-size="14.00">1</text>
</g>
<!-- 11&#45;&gt;10 -->
<g id="edge14" class="edge">
<title>11&#45;&gt;10</title>
<path fill="none" stroke="red" d="M250.87,-27.31C245.5,-27.31 239.8,-27.31 234.24,-27.31"/>
<polygon fill="red" stroke="red" points="233.85,-23.81 223.85,-27.31 233.85,-30.81 233.85,-23.81"/>
<text text-anchor="middle" x="237.25" y="-34.11" font-family="Times,serif" font-size="14.00">0</text>
</g>
<!-- 11&#45;&gt;11 -->
<g id="edge15" class="edge">
<title>11&#45;&gt;11</title>
<path fill="none" stroke="blue" d="M302.82,-37.06C311.49,-37.16 318.5,-33.91 318.5,-27.31 318.5,-23.6 316.28,-20.95 312.8,-19.35"/>
<polygon fill="blue" stroke="blue" points="313.28,-15.89 302.82,-17.57 312.04,-22.78 313.28,-15.89"/>
<text text-anchor="middle" x="323.5" y="-23.61" font-family="Times,serif" font-size="14.00">1</text>
</g>
</g>
</svg>
