<?xml version="1.0" encoding="UTF-8" standalone="no"?>
<!DOCTYPE svg PUBLIC "-//W3C//DTD SVG 1.1//EN"
 "http://www.w3.org/Graphics/SVG/1.1/DTD/svg11.dtd">
<!-- Generated by graphviz version 2.44.0 (0)
 -->
<!-- Title: 100 Pages: 1 -->
<svg width="381pt" height="1201pt"
 viewBox="0.00 0.00 380.97 1201.26" xmlns="http://www.w3.org/2000/svg" xmlns:xlink="http://www.w3.org/1999/xlink">
<g id="graph0" class="graph" transform="scale(1 1) rotate(0) translate(21.6 1179.66)">
<title>100</title>
<polygon fill="white" stroke="transparent" points="-21.6,21.6 -21.6,-1179.66 359.37,-1179.66 359.37,21.6 -21.6,21.6"/>
<!-- enter -->
<g id="node1" class="node">
<title>enter</title>
</g>
<!-- empty -->
<g id="node2" class="node">
<title>empty</title>
<ellipse fill="none" stroke="black" cx="74.77" cy="-1067.06" rx="18" ry="18"/>
</g>
<!-- enter&#45;&gt;empty -->
<g id="edge1" class="edge">
<title>enter&#45;&gt;empty</title>
<path fill="none" stroke="black" d="M74.77,-1121.87C74.77,-1113.84 74.77,-1104.1 74.77,-1095.12"/>
<polygon fill="black" stroke="black" points="78.27,-1095.08 74.77,-1085.08 71.27,-1095.08 78.27,-1095.08"/>
</g>
<!-- 0 -->
<g id="node3" class="node">
<title>0</title>
<ellipse fill="none" stroke="black" cx="116.77" cy="-980.06" rx="18" ry="18"/>
<text text-anchor="middle" x="116.77" y="-976.36" font-family="Times,serif" font-size="14.00">0</text>
</g>
<!-- empty&#45;&gt;0 -->
<g id="edge2" class="edge">
<title>empty&#45;&gt;0</title>
<path fill="none" stroke="black" d="M82.47,-1050.47C88.63,-1038 97.38,-1020.3 104.5,-1005.89"/>
<polygon fill="black" stroke="black" points="107.82,-1007.06 109.11,-996.55 101.55,-1003.96 107.82,-1007.06"/>
<text text-anchor="middle" x="103.77" y="-1019.86" font-family="Times,serif" font-size="14.00">0</text>
</g>
<!-- 1 -->
<g id="node4" class="node">
<title>1</title>
<ellipse fill="none" stroke="black" cx="46.77" cy="-677.77" rx="18" ry="18"/>
<text text-anchor="middle" x="46.77" y="-674.07" font-family="Times,serif" font-size="14.00">1</text>
</g>
<!-- empty&#45;&gt;1 -->
<g id="edge3" class="edge">
<title>empty&#45;&gt;1</title>
<path fill="none" stroke="black" d="M70.66,-1049.24C66.85,-1032.17 61.77,-1004.94 61.77,-981.06 61.77,-981.06 61.77,-981.06 61.77,-784.96 61.77,-757.72 56.87,-726.94 52.67,-705.56"/>
<polygon fill="black" stroke="black" points="56.07,-704.68 50.63,-695.58 49.21,-706.08 56.07,-704.68"/>
<text text-anchor="middle" x="66.77" y="-884.61" font-family="Times,serif" font-size="14.00">1</text>
</g>
<!-- 00 -->
<g id="node5" class="node">
<title>00</title>
<ellipse fill="none" stroke="black" cx="219.77" cy="-888.31" rx="23" ry="23"/>
<text text-anchor="middle" x="219.77" y="-884.61" font-family="Times,serif" font-size="14.00">00</text>
</g>
<!-- 0&#45;&gt;00 -->
<g id="edge4" class="edge">
<title>0&#45;&gt;00</title>
<path fill="none" stroke="black" d="M130.23,-967.32C146.7,-952.98 174.88,-928.42 195.23,-910.69"/>
<polygon fill="black" stroke="black" points="197.64,-913.23 202.88,-904.02 193.04,-907.95 197.64,-913.23"/>
<text text-anchor="middle" x="176.77" y="-932.86" font-family="Times,serif" font-size="14.00">0</text>
</g>
<!-- 01 -->
<g id="node6" class="node">
<title>01</title>
<ellipse fill="none" stroke="black" cx="116.77" cy="-677.77" rx="23" ry="23"/>
<text text-anchor="middle" x="116.77" y="-674.07" font-family="Times,serif" font-size="14.00">01</text>
</g>
<!-- 0&#45;&gt;01 -->
<g id="edge5" class="edge">
<title>0&#45;&gt;01</title>
<path fill="none" stroke="black" d="M116.77,-962.05C116.77,-913.61 116.77,-774.33 116.77,-710.91"/>
<polygon fill="black" stroke="black" points="120.27,-710.7 116.77,-700.7 113.27,-710.7 120.27,-710.7"/>
<text text-anchor="middle" x="121.77" y="-836.36" font-family="Times,serif" font-size="14.00">1</text>
</g>
<!-- 10 -->
<g id="node7" class="node">
<title>10</title>
<ellipse fill="none" stroke="black" cx="46.77" cy="-569.57" rx="23" ry="23"/>
<text text-anchor="middle" x="46.77" y="-565.87" font-family="Times,serif" font-size="14.00">10</text>
</g>
<!-- 1&#45;&gt;10 -->
<g id="edge6" class="edge">
<title>1&#45;&gt;10</title>
<path fill="none" stroke="black" d="M46.77,-659.7C46.77,-644.34 46.77,-621.36 46.77,-602.58"/>
<polygon fill="black" stroke="black" points="50.27,-602.37 46.77,-592.37 43.27,-602.37 50.27,-602.37"/>
<text text-anchor="middle" x="51.77" y="-619.97" font-family="Times,serif" font-size="14.00">0</text>
</g>
<!-- 11 -->
<g id="node8" class="node">
<title>11</title>
<ellipse fill="none" stroke="black" cx="68.77" cy="-353.18" rx="23" ry="23"/>
<text text-anchor="middle" x="68.77" y="-349.48" font-family="Times,serif" font-size="14.00">11</text>
</g>
<!-- 1&#45;&gt;11 -->
<g id="edge7" class="edge">
<title>1&#45;&gt;11</title>
<path fill="none" stroke="black" d="M37.95,-661.53C21.99,-632.09 -9,-565.23 2.77,-507.97 12.27,-461.75 36.28,-412.27 52.57,-382.28"/>
<polygon fill="black" stroke="black" points="55.78,-383.7 57.56,-373.25 49.66,-380.31 55.78,-383.7"/>
<text text-anchor="middle" x="7.77" y="-511.77" font-family="Times,serif" font-size="14.00">1</text>
</g>
<!-- 000 -->
<g id="node9" class="node">
<title>000</title>
<ellipse fill="none" stroke="black" cx="272.77" cy="-785.96" rx="28.7" ry="28.7"/>
<text text-anchor="middle" x="272.77" y="-782.26" font-family="Times,serif" font-size="14.00">000</text>
</g>
<!-- 00&#45;&gt;000 -->
<g id="edge8" class="edge">
<title>00&#45;&gt;000</title>
<path fill="none" stroke="black" d="M229.99,-867.96C237.08,-854.53 246.71,-836.3 255.04,-820.53"/>
<polygon fill="black" stroke="black" points="258.19,-822.07 259.76,-811.59 252,-818.8 258.19,-822.07"/>
<text text-anchor="middle" x="252.77" y="-836.36" font-family="Times,serif" font-size="14.00">0</text>
</g>
<!-- 001 -->
<g id="node10" class="node">
<title>001</title>
<ellipse fill="none" stroke="black" cx="233.77" cy="-677.77" rx="28.7" ry="28.7"/>
<text text-anchor="middle" x="233.77" y="-674.07" font-family="Times,serif" font-size="14.00">001</text>
</g>
<!-- 00&#45;&gt;001 -->
<g id="edge9" class="edge">
<title>00&#45;&gt;001</title>
<path fill="none" stroke="black" d="M220.72,-865.22C221.89,-839.35 224.06,-795.22 226.77,-757.36 227.72,-743.99 228.97,-729.36 230.15,-716.39"/>
<polygon fill="black" stroke="black" points="233.64,-716.67 231.07,-706.39 226.67,-716.03 233.64,-716.67"/>
<text text-anchor="middle" x="231.77" y="-782.26" font-family="Times,serif" font-size="14.00">1</text>
</g>
<!-- 010 -->
<g id="node11" class="node">
<title>010</title>
<ellipse fill="none" stroke="black" cx="233.77" cy="-569.57" rx="28.7" ry="28.7"/>
<text text-anchor="middle" x="233.77" y="-565.87" font-family="Times,serif" font-size="14.00">010</text>
</g>
<!-- 01&#45;&gt;010 -->
<g id="edge10" class="edge">
<title>01&#45;&gt;010</title>
<path fill="none" stroke="black" d="M133.28,-661.78C151.99,-644.8 182.8,-616.83 205.39,-596.33"/>
<polygon fill="black" stroke="black" points="207.94,-598.74 213,-589.43 203.24,-593.55 207.94,-598.74"/>
<text text-anchor="middle" x="187.77" y="-619.97" font-family="Times,serif" font-size="14.00">0</text>
</g>
<!-- 011 -->
<g id="node12" class="node">
<title>011</title>
<ellipse fill="none" stroke="black" cx="157.77" cy="-353.18" rx="28.7" ry="28.7"/>
<text text-anchor="middle" x="157.77" y="-349.48" font-family="Times,serif" font-size="14.00">011</text>
</g>
<!-- 01&#45;&gt;011 -->
<g id="edge11" class="edge">
<title>01&#45;&gt;011</title>
<path fill="none" stroke="black" d="M110.85,-655.56C102.73,-623.43 90.18,-560.56 99.77,-507.97 107.57,-465.16 126.66,-418.78 140.82,-388.28"/>
<polygon fill="black" stroke="black" points="144.12,-389.49 145.22,-378.96 137.79,-386.5 144.12,-389.49"/>
<text text-anchor="middle" x="104.77" y="-511.77" font-family="Times,serif" font-size="14.00">1</text>
</g>
<!-- 100 -->
<g id="node13" class="node">
<title>100</title>
<ellipse fill="none" stroke="black" cx="259.77" cy="-28.6" rx="28.7" ry="28.7"/>
<text text-anchor="middle" x="259.77" y="-24.9" font-family="Times,serif" font-size="14.00">100</text>
</g>
<!-- 10&#45;&gt;100 -->
<g id="edge12" class="edge">
<title>10&#45;&gt;100</title>
<path fill="none" stroke="black" d="M39.49,-547.7C32.75,-526.5 23.77,-492.56 23.77,-462.38 23.77,-462.38 23.77,-462.38 23.77,-135.79 23.77,-50.5 153.55,-33.31 220.63,-30.12"/>
<polygon fill="black" stroke="black" points="220.98,-33.61 230.83,-29.72 220.7,-26.61 220.98,-33.61"/>
<text text-anchor="middle" x="28.77" y="-295.38" font-family="Times,serif" font-size="14.00">0</text>
</g>
<!-- 101 -->
<g id="node14" class="node">
<title>101</title>
<ellipse fill="none" stroke="black" cx="208.77" cy="-461.38" rx="28.7" ry="28.7"/>
<text text-anchor="middle" x="208.77" y="-457.68" font-family="Times,serif" font-size="14.00">101</text>
</g>
<!-- 10&#45;&gt;101 -->
<g id="edge13" class="edge">
<title>10&#45;&gt;101</title>
<path fill="none" stroke="black" d="M65.06,-555.72C77.91,-546.65 95.46,-534.17 110.77,-522.97 119.74,-516.42 121.51,-514.12 130.77,-507.97 145.02,-498.51 161.3,-488.83 175.28,-480.84"/>
<polygon fill="black" stroke="black" points="177.11,-483.82 184.09,-475.85 173.66,-477.73 177.11,-483.82"/>
<text text-anchor="middle" x="135.77" y="-511.77" font-family="Times,serif" font-size="14.00">1</text>
</g>
<!-- 110 -->
<g id="node15" class="node">
<title>110</title>
<ellipse fill="none" stroke="black" cx="197.77" cy="-136.79" rx="28.7" ry="28.7"/>
<text text-anchor="middle" x="197.77" y="-133.09" font-family="Times,serif" font-size="14.00">110</text>
</g>
<!-- 11&#45;&gt;110 -->
<g id="edge14" class="edge">
<title>11&#45;&gt;110</title>
<path fill="none" stroke="black" d="M62.31,-331.27C54.94,-303.14 46.32,-252.5 66.77,-216.39 86.7,-181.19 129.37,-160.04 160.61,-148.69"/>
<polygon fill="black" stroke="black" points="162,-151.91 170.32,-145.34 159.72,-145.29 162,-151.91"/>
<text text-anchor="middle" x="71.77" y="-241.29" font-family="Times,serif" font-size="14.00">0</text>
</g>
<!-- 111 -->
<g id="node16" class="node">
<title>111</title>
<ellipse fill="none" stroke="black" cx="112.77" cy="-244.99" rx="28.7" ry="28.7"/>
<text text-anchor="middle" x="112.77" y="-241.29" font-family="Times,serif" font-size="14.00">111</text>
</g>
<!-- 11&#45;&gt;111 -->
<g id="edge15" class="edge">
<title>11&#45;&gt;111</title>
<path fill="none" stroke="black" d="M77.25,-331.71C83.18,-317.4 91.25,-297.93 98.2,-281.16"/>
<polygon fill="black" stroke="black" points="101.54,-282.24 102.13,-271.66 95.07,-279.56 101.54,-282.24"/>
<text text-anchor="middle" x="98.77" y="-295.38" font-family="Times,serif" font-size="14.00">1</text>
</g>
<!-- 000&#45;&gt;000 -->
<g id="edge16" class="edge">
<title>000&#45;&gt;000</title>
<path fill="none" stroke="black" d="M299.81,-796.08C308.49,-795.98 315.37,-792.61 315.37,-785.96 315.37,-782.22 313.19,-779.52 309.74,-777.85"/>
<polygon fill="black" stroke="black" points="310.3,-774.4 299.81,-775.84 308.91,-781.26 310.3,-774.4"/>
<text text-anchor="middle" x="320.37" y="-782.26" font-family="Times,serif" font-size="14.00">0</text>
</g>
<!-- 000&#45;&gt;001 -->
<g id="edge17" class="edge">
<title>000&#45;&gt;001</title>
<path fill="none" stroke="black" d="M263.23,-758.98C258.32,-745.61 252.26,-729.11 246.91,-714.55"/>
<polygon fill="black" stroke="black" points="250.08,-713.03 243.35,-704.85 243.51,-715.44 250.08,-713.03"/>
<text text-anchor="middle" x="259.77" y="-728.16" font-family="Times,serif" font-size="14.00">1</text>
</g>
<!-- 001&#45;&gt;010 -->
<g id="edge18" class="edge">
<title>001&#45;&gt;010</title>
<path fill="none" stroke="black" d="M233.77,-649.14C233.77,-636.83 233.77,-622.11 233.77,-608.77"/>
<polygon fill="black" stroke="black" points="237.27,-608.43 233.77,-598.43 230.27,-608.43 237.27,-608.43"/>
<text text-anchor="middle" x="238.77" y="-619.97" font-family="Times,serif" font-size="14.00">0</text>
</g>
<!-- 001&#45;&gt;011 -->
<g id="edge19" class="edge">
<title>001&#45;&gt;011</title>
<path fill="none" stroke="black" d="M220.94,-652.16C213.39,-636.93 204.11,-616.78 197.77,-598.17 173.79,-527.76 163.94,-440.88 160.09,-392.09"/>
<polygon fill="black" stroke="black" points="163.57,-391.69 159.33,-381.98 156.59,-392.21 163.57,-391.69"/>
<text text-anchor="middle" x="183.77" y="-511.77" font-family="Times,serif" font-size="14.00">1</text>
</g>
<!-- 010&#45;&gt;100 -->
<g id="edge20" class="edge">
<title>010&#45;&gt;100</title>
<path fill="none" stroke="black" d="M243.9,-542.39C251.2,-521.15 259.77,-490.28 259.77,-462.38 259.77,-462.38 259.77,-462.38 259.77,-135.79 259.77,-113.18 259.77,-87.87 259.77,-67.63"/>
<polygon fill="black" stroke="black" points="263.27,-67.55 259.77,-57.55 256.27,-67.55 263.27,-67.55"/>
<text text-anchor="middle" x="264.77" y="-295.38" font-family="Times,serif" font-size="14.00">0</text>
</g>
<!-- 010&#45;&gt;101 -->
<g id="edge21" class="edge">
<title>010&#45;&gt;101</title>
<path fill="none" stroke="black" d="M217.53,-545.45C213.54,-538.54 209.82,-530.73 207.77,-522.97 205.84,-515.7 205.07,-507.77 204.96,-500.1"/>
<polygon fill="black" stroke="black" points="208.46,-499.98 205.16,-489.91 201.46,-499.84 208.46,-499.98"/>
<text text-anchor="middle" x="212.77" y="-511.77" font-family="Times,serif" font-size="14.00">1</text>
</g>
<!-- 011&#45;&gt;110 -->
<g id="edge22" class="edge">
<title>011&#45;&gt;110</title>
<path fill="none" stroke="black" d="M164.84,-325.39C168.68,-310.25 173.34,-290.94 176.77,-273.58 183.32,-240.49 189.04,-202.51 192.85,-175.15"/>
<polygon fill="black" stroke="black" points="196.32,-175.6 194.21,-165.22 189.39,-174.65 196.32,-175.6"/>
<text text-anchor="middle" x="191.77" y="-241.29" font-family="Times,serif" font-size="14.00">0</text>
</g>
<!-- 011&#45;&gt;111 -->
<g id="edge23" class="edge">
<title>011&#45;&gt;111</title>
<path fill="none" stroke="black" d="M146.88,-326.48C141.11,-312.88 133.96,-295.98 127.69,-281.19"/>
<polygon fill="black" stroke="black" points="130.84,-279.67 123.72,-271.83 124.4,-282.4 130.84,-279.67"/>
<text text-anchor="middle" x="143.77" y="-295.38" font-family="Times,serif" font-size="14.00">1</text>
</g>
<!-- 100&#45;&gt;000 -->
<g id="edge24" class="edge">
<title>100&#45;&gt;000</title>
<path fill="none" stroke="black" d="M280.91,-48.05C300.87,-67.63 327.77,-100.55 327.77,-135.79 327.77,-678.77 327.77,-678.77 327.77,-678.77 327.77,-707.11 312.13,-735.42 297.53,-755.67"/>
<polygon fill="black" stroke="black" points="294.61,-753.74 291.39,-763.84 300.2,-757.95 294.61,-753.74"/>
<text text-anchor="middle" x="332.77" y="-403.58" font-family="Times,serif" font-size="14.00">0</text>
</g>
<!-- 100&#45;&gt;001 -->
<g id="edge25" class="edge">
<title>100&#45;&gt;001</title>
<path fill="none" stroke="black" d="M273.17,-54.12C283.41,-75.15 295.77,-106.59 295.77,-135.79 295.77,-570.57 295.77,-570.57 295.77,-570.57 295.77,-600.41 277.29,-629.31 260.51,-649.42"/>
<polygon fill="black" stroke="black" points="257.66,-647.36 253.73,-657.2 262.94,-651.96 257.66,-647.36"/>
<text text-anchor="middle" x="300.77" y="-349.48" font-family="Times,serif" font-size="14.00">1</text>
</g>
<!-- 101&#45;&gt;010 -->
<g id="edge26" class="edge">
<title>101&#45;&gt;010</title>
<path fill="none" stroke="black" d="M215.13,-489.4C218.16,-502.25 221.82,-517.81 225.09,-531.72"/>
<polygon fill="black" stroke="black" points="221.7,-532.57 227.4,-541.5 228.51,-530.96 221.7,-532.57"/>
<text text-anchor="middle" x="226.77" y="-511.77" font-family="Times,serif" font-size="14.00">0</text>
</g>
<!-- 101&#45;&gt;011 -->
<g id="edge27" class="edge">
<title>101&#45;&gt;011</title>
<path fill="none" stroke="black" d="M196.68,-435.21C189.95,-421.19 181.47,-403.54 174.15,-388.3"/>
<polygon fill="black" stroke="black" points="177.25,-386.67 169.77,-379.17 170.94,-389.7 177.25,-386.67"/>
<text text-anchor="middle" x="191.77" y="-403.58" font-family="Times,serif" font-size="14.00">1</text>
</g>
<!-- 110&#45;&gt;100 -->
<g id="edge28" class="edge">
<title>110&#45;&gt;100</title>
<path fill="none" stroke="black" d="M211.84,-111.7C220.32,-97.17 231.24,-78.46 240.52,-62.57"/>
<polygon fill="black" stroke="black" points="243.74,-64 245.76,-53.6 237.69,-60.47 243.74,-64"/>
<text text-anchor="middle" x="236.77" y="-78.99" font-family="Times,serif" font-size="14.00">0</text>
</g>
<!-- 110&#45;&gt;101 -->
<g id="edge29" class="edge">
<title>110&#45;&gt;101</title>
<path fill="none" stroke="black" d="M200.5,-165.74C200.99,-171.57 201.45,-177.68 201.77,-183.39 206.58,-268.71 208.09,-369.01 208.56,-422.4"/>
<polygon fill="black" stroke="black" points="205.06,-422.47 208.64,-432.44 212.06,-422.41 205.06,-422.47"/>
<text text-anchor="middle" x="211.77" y="-295.38" font-family="Times,serif" font-size="14.00">1</text>
</g>
<!-- 111&#45;&gt;110 -->
<g id="edge30" class="edge">
<title>111&#45;&gt;110</title>
<path fill="none" stroke="black" d="M130.17,-222.24C142.78,-206.49 159.97,-185.01 173.87,-167.66"/>
<polygon fill="black" stroke="black" points="176.87,-169.5 180.39,-159.51 171.4,-165.13 176.87,-169.5"/>
<text text-anchor="middle" x="165.77" y="-187.19" font-family="Times,serif" font-size="14.00">0</text>
</g>
<!-- 111&#45;&gt;111 -->
<g id="edge31" class="edge">
<title>111&#45;&gt;111</title>
<path fill="none" stroke="black" d="M139.81,-255.11C148.49,-255.01 155.37,-251.63 155.37,-244.99 155.37,-241.25 153.19,-238.55 149.74,-236.88"/>
<polygon fill="black" stroke="black" points="150.3,-233.42 139.81,-234.86 148.91,-240.28 150.3,-233.42"/>
<text text-anchor="middle" x="160.37" y="-241.29" font-family="Times,serif" font-size="14.00">1</text>
</g>
</g>
</svg>
