<?xml version="1.0" encoding="UTF-8" standalone="no"?>
<!DOCTYPE svg PUBLIC "-//W3C//DTD SVG 1.1//EN"
 "http://www.w3.org/Graphics/SVG/1.1/DTD/svg11.dtd">
<!-- Generated by graphviz version 2.42.3 (0)
 -->
<!-- Title: 109 Pages: 1 -->
<svg width="254pt" height="91pt"
 viewBox="0.00 0.00 254.00 91.46" xmlns="http://www.w3.org/2000/svg" xmlns:xlink="http://www.w3.org/1999/xlink">
<g id="graph0" class="graph" transform="scale(1 1) rotate(0) translate(4 87.46)">
<title>109</title>
<polygon fill="white" stroke="transparent" points="-4,4 -4,-87.46 250,-87.46 250,4 -4,4"/>
<!-- enter -->
<g id="node1" class="node">
<title>enter</title>
</g>
<!-- 0 -->
<g id="node2" class="node">
<title>0</title>
<ellipse fill="none" stroke="black" cx="60" cy="-24.46" rx="18" ry="18"/>
<ellipse fill="none" stroke="black" cx="60" cy="-24.46" rx="22" ry="22"/>
<text text-anchor="middle" x="60" y="-20.76" font-family="Times,serif" font-size="14.00">0</text>
</g>
<!-- enter&#45;&gt;0 -->
<g id="edge1" class="edge">
<title>enter&#45;&gt;0:sw</title>
<path fill="none" stroke="black" d="M1.08,-8.4C2.48,-7.51 21.56,4.49 36.7,-2.16"/>
<polygon fill="black" stroke="black" points="34.92,-5.2 45,-8.46 39.15,0.38 34.92,-5.2"/>
</g>
<!-- 0&#45;&gt;0 -->
<g id="edge3" class="edge">
<title>0&#45;&gt;0</title>
<path fill="none" stroke="black" d="M52.86,-45.73C51.53,-57.56 53.91,-68.46 60,-68.46 64.28,-68.46 66.73,-63.07 67.35,-55.76"/>
<polygon fill="black" stroke="black" points="70.85,-55.66 67.14,-45.73 63.85,-55.8 70.85,-55.66"/>
<text text-anchor="middle" x="60" y="-72.26" font-family="Times,serif" font-size="14.00">0</text>
</g>
<!-- 1 -->
<g id="node3" class="node">
<title>1</title>
<ellipse fill="none" stroke="black" cx="146" cy="-24.46" rx="18" ry="18"/>
<text text-anchor="middle" x="146" y="-20.76" font-family="Times,serif" font-size="14.00">1</text>
</g>
<!-- 0&#45;&gt;1 -->
<g id="edge2" class="edge">
<title>0&#45;&gt;1</title>
<path fill="none" stroke="black" d="M82.2,-24.46C92.88,-24.46 105.96,-24.46 117.41,-24.46"/>
<polygon fill="black" stroke="black" points="117.77,-27.96 127.77,-24.46 117.77,-20.96 117.77,-27.96"/>
<text text-anchor="middle" x="105" y="-28.26" font-family="Times,serif" font-size="14.00">1</text>
</g>
<!-- 1&#45;&gt;0 -->
<g id="edge5" class="edge">
<title>1&#45;&gt;0</title>
<path fill="none" stroke="black" d="M131.09,-14.29C124.95,-10.4 117.44,-6.43 110,-4.46 102.55,-2.48 94.72,-3.94 87.57,-6.81"/>
<polygon fill="black" stroke="black" points="85.72,-3.81 78.32,-11.39 88.83,-10.09 85.72,-3.81"/>
<text text-anchor="middle" x="105" y="-8.26" font-family="Times,serif" font-size="14.00">1</text>
</g>
<!-- 2 -->
<g id="node4" class="node">
<title>2</title>
<ellipse fill="none" stroke="black" cx="228" cy="-24.46" rx="18" ry="18"/>
<text text-anchor="middle" x="228" y="-20.76" font-family="Times,serif" font-size="14.00">2</text>
</g>
<!-- 1&#45;&gt;2 -->
<g id="edge4" class="edge">
<title>1&#45;&gt;2</title>
<path fill="none" stroke="black" d="M164.36,-24.46C174.7,-24.46 188.06,-24.46 199.78,-24.46"/>
<polygon fill="black" stroke="black" points="199.95,-27.96 209.95,-24.46 199.95,-20.96 199.95,-27.96"/>
<text text-anchor="middle" x="187" y="-28.26" font-family="Times,serif" font-size="14.00">0</text>
</g>
<!-- 2&#45;&gt;1 -->
<g id="edge6" class="edge">
<title>2&#45;&gt;1</title>
<path fill="none" stroke="black" d="M213.09,-14.29C206.95,-10.4 199.44,-6.43 192,-4.46 184.39,-2.43 176.43,-4.46 169.35,-7.88"/>
<polygon fill="black" stroke="black" points="167.22,-5.07 160.38,-13.15 170.77,-11.1 167.22,-5.07"/>
<text text-anchor="middle" x="187" y="-8.26" font-family="Times,serif" font-size="14.00">0</text>
</g>
<!-- 2&#45;&gt;2 -->
<g id="edge7" class="edge">
<title>2&#45;&gt;2</title>
<path fill="none" stroke="black" d="M221.23,-41.31C219.18,-52.97 221.44,-64.46 228,-64.46 232.61,-64.46 235.1,-58.78 235.46,-51.35"/>
<polygon fill="black" stroke="black" points="238.94,-51.04 234.77,-41.31 231.96,-51.52 238.94,-51.04"/>
<text text-anchor="middle" x="228" y="-68.26" font-family="Times,serif" font-size="14.00">1</text>
</g>
</g>
</svg>
