<?xml version="1.0" encoding="UTF-8" standalone="no"?>
<!DOCTYPE svg PUBLIC "-//W3C//DTD SVG 1.1//EN"
 "http://www.w3.org/Graphics/SVG/1.1/DTD/svg11.dtd">
<!-- Generated by graphviz version 2.42.3 (0)
 -->
<!-- Title: 110 Pages: 1 -->
<svg width="3539pt" height="777pt"
 viewBox="0.00 0.00 3538.97 777.30" xmlns="http://www.w3.org/2000/svg" xmlns:xlink="http://www.w3.org/1999/xlink">
<g id="graph0" class="graph" transform="scale(1 1) rotate(0) translate(4 773.3)">
<title>110</title>
<polygon fill="white" stroke="transparent" points="-4,4 -4,-773.3 3534.97,-773.3 3534.97,4 -4,4"/>
<!-- enter -->
<g id="node1" class="node">
<title>enter</title>
</g>
<!-- 00000 -->
<g id="node18" class="node">
<title>00000</title>
<ellipse fill="none" stroke="black" cx="58.3" cy="-696" rx="40.09" ry="40.09"/>
<text text-anchor="middle" x="58.3" y="-692.3" font-family="Times,serif" font-size="14.00">00000</text>
</g>
<!-- enter&#45;&gt;00000 -->
<g id="edge1" class="edge">
<title>enter&#45;&gt;00000:sw</title>
<path fill="none" stroke="black" d="M1.05,-666.94C2.14,-665.75 19.62,-646.85 29.3,-655.7 29.59,-655.97 29.77,-656.38 29.87,-656.9"/>
<polygon fill="black" stroke="black" points="26.38,-657.16 30.3,-667 33.37,-656.86 26.38,-657.16"/>
</g>
<!-- 10000 -->
<g id="node2" class="node">
<title>10000</title>
<ellipse fill="none" stroke="black" cx="3486.67" cy="-689" rx="40.11" ry="40.11"/>
<ellipse fill="none" stroke="black" cx="3486.67" cy="-689" rx="44.09" ry="44.09"/>
<text text-anchor="middle" x="3486.67" y="-685.3" font-family="Times,serif" font-size="14.00">10000</text>
</g>
<!-- 10000&#45;&gt;00000 -->
<g id="edge35" class="edge">
<title>10000&#45;&gt;00000</title>
<path fill="none" stroke="black" d="M3447.34,-709.45C3427.04,-718.44 3401.35,-727 3377.08,-727 163.89,-727 163.89,-727 163.89,-727 144.07,-727 122.99,-721.82 104.97,-715.7"/>
<polygon fill="black" stroke="black" points="105.91,-712.31 95.31,-712.23 103.54,-718.9 105.91,-712.31"/>
<text text-anchor="middle" x="1766.49" y="-730.8" font-family="Times,serif" font-size="14.00">0</text>
</g>
<!-- 00001 -->
<g id="node19" class="node">
<title>00001</title>
<ellipse fill="none" stroke="black" cx="164.89" cy="-663" rx="40.09" ry="40.09"/>
<text text-anchor="middle" x="164.89" y="-659.3" font-family="Times,serif" font-size="14.00">00001</text>
</g>
<!-- 10000&#45;&gt;00001 -->
<g id="edge34" class="edge">
<title>10000&#45;&gt;00001</title>
<path fill="none" stroke="black" d="M3442.34,-689.58C3422.46,-689.8 3398.58,-690 3377.08,-690 270.48,-690 270.48,-690 270.48,-690 251.02,-690 230.15,-685.56 212.21,-680.29"/>
<polygon fill="black" stroke="black" points="213.16,-676.92 202.57,-677.29 211.08,-683.6 213.16,-676.92"/>
<text text-anchor="middle" x="1823.78" y="-693.8" font-family="Times,serif" font-size="14.00">1</text>
</g>
<!-- 10001 -->
<g id="node3" class="node">
<title>10001</title>
<ellipse fill="none" stroke="black" cx="1053.63" cy="-96" rx="40.11" ry="40.11"/>
<ellipse fill="none" stroke="black" cx="1053.63" cy="-96" rx="44.09" ry="44.09"/>
<text text-anchor="middle" x="1053.63" y="-92.3" font-family="Times,serif" font-size="14.00">10001</text>
</g>
<!-- 00011 -->
<g id="node20" class="node">
<title>00011</title>
<ellipse fill="none" stroke="black" cx="271.48" cy="-167" rx="40.09" ry="40.09"/>
<text text-anchor="middle" x="271.48" y="-163.3" font-family="Times,serif" font-size="14.00">00011</text>
</g>
<!-- 10001&#45;&gt;00011 -->
<g id="edge36" class="edge">
<title>10001&#45;&gt;00011</title>
<path fill="none" stroke="black" d="M1011.26,-82.18C977.17,-72.03 927.36,-60 882.74,-60 377.07,-60 377.07,-60 377.07,-60 340.35,-60 312.29,-92.63 294.52,-121.85"/>
<polygon fill="black" stroke="black" points="291.34,-120.37 289.34,-130.77 297.39,-123.89 291.34,-120.37"/>
<text text-anchor="middle" x="652.56" y="-63.8" font-family="Times,serif" font-size="14.00">1</text>
</g>
<!-- 00010 -->
<g id="node21" class="node">
<title>00010</title>
<ellipse fill="none" stroke="black" cx="1164.22" cy="-359" rx="40.09" ry="40.09"/>
<text text-anchor="middle" x="1164.22" y="-355.3" font-family="Times,serif" font-size="14.00">00010</text>
</g>
<!-- 10001&#45;&gt;00010 -->
<g id="edge37" class="edge">
<title>10001&#45;&gt;00010</title>
<path fill="none" stroke="black" d="M1071.48,-136.81C1091.12,-184.38 1123.52,-262.84 1144.09,-312.67"/>
<polygon fill="black" stroke="black" points="1140.87,-314.02 1147.92,-321.93 1147.34,-311.35 1140.87,-314.02"/>
<text text-anchor="middle" x="1110.93" y="-247.8" font-family="Times,serif" font-size="14.00">0</text>
</g>
<!-- 10010 -->
<g id="node4" class="node">
<title>10010</title>
<ellipse fill="none" stroke="black" cx="3158.9" cy="-299" rx="40.11" ry="40.11"/>
<ellipse fill="none" stroke="black" cx="3158.9" cy="-299" rx="44.09" ry="44.09"/>
<text text-anchor="middle" x="3158.9" y="-295.3" font-family="Times,serif" font-size="14.00">10010</text>
</g>
<!-- 00101 -->
<g id="node22" class="node">
<title>00101</title>
<ellipse fill="none" stroke="black" cx="1270.82" cy="-400" rx="40.09" ry="40.09"/>
<text text-anchor="middle" x="1270.82" y="-396.3" font-family="Times,serif" font-size="14.00">00101</text>
</g>
<!-- 10010&#45;&gt;00101 -->
<g id="edge38" class="edge">
<title>10010&#45;&gt;00101</title>
<path fill="none" stroke="black" d="M3128.13,-266.79C3107.1,-247.62 3077.09,-227 3045.3,-227 1933.37,-227 1933.37,-227 1933.37,-227 1660.96,-227 1591.7,-272.08 1337.11,-369 1330.26,-371.61 1323.13,-374.64 1316.22,-377.77"/>
<polygon fill="black" stroke="black" points="1314.56,-374.68 1306.96,-382.06 1317.5,-381.03 1314.56,-374.68"/>
<text text-anchor="middle" x="2216.86" y="-230.8" font-family="Times,serif" font-size="14.00">1</text>
</g>
<!-- 00100 -->
<g id="node23" class="node">
<title>00100</title>
<ellipse fill="none" stroke="black" cx="3269.49" cy="-336" rx="40.09" ry="40.09"/>
<text text-anchor="middle" x="3269.49" y="-332.3" font-family="Times,serif" font-size="14.00">00100</text>
</g>
<!-- 10010&#45;&gt;00100 -->
<g id="edge39" class="edge">
<title>10010&#45;&gt;00100</title>
<path fill="none" stroke="black" d="M3200.95,-312.99C3207.57,-315.24 3214.47,-317.59 3221.22,-319.89"/>
<polygon fill="black" stroke="black" points="3220.36,-323.3 3230.95,-323.21 3222.61,-316.67 3220.36,-323.3"/>
<text text-anchor="middle" x="3216.19" y="-323.8" font-family="Times,serif" font-size="14.00">0</text>
</g>
<!-- 10011 -->
<g id="node5" class="node">
<title>10011</title>
<ellipse fill="none" stroke="black" cx="2716.52" cy="-393" rx="40.11" ry="40.11"/>
<ellipse fill="none" stroke="black" cx="2716.52" cy="-393" rx="44.09" ry="44.09"/>
<text text-anchor="middle" x="2716.52" y="-389.3" font-family="Times,serif" font-size="14.00">10011</text>
</g>
<!-- 00111 -->
<g id="node24" class="node">
<title>00111</title>
<ellipse fill="none" stroke="black" cx="378.07" cy="-353" rx="40.09" ry="40.09"/>
<text text-anchor="middle" x="378.07" y="-349.3" font-family="Times,serif" font-size="14.00">00111</text>
</g>
<!-- 10011&#45;&gt;00111 -->
<g id="edge40" class="edge">
<title>10011&#45;&gt;00111</title>
<path fill="none" stroke="black" d="M2679.33,-368.46C2645.02,-346.65 2591.2,-316.11 2539.64,-302 2325.09,-243.32 1762.72,-244.21 1540.3,-246 1402.61,-247.11 1363.3,-214.54 1230.52,-251 1177.89,-265.45 1170.7,-283.86 1123.93,-312 1066.9,-346.32 1063.89,-392 997.34,-392 483.67,-392 483.67,-392 483.67,-392 462.71,-392 440.79,-385.04 422.47,-377"/>
<polygon fill="black" stroke="black" points="423.78,-373.75 413.24,-372.73 420.84,-380.1 423.78,-373.75"/>
<text text-anchor="middle" x="1545.3" y="-249.8" font-family="Times,serif" font-size="14.00">1</text>
</g>
<!-- 00110 -->
<g id="node25" class="node">
<title>00110</title>
<ellipse fill="none" stroke="black" cx="2827.12" cy="-331" rx="40.09" ry="40.09"/>
<text text-anchor="middle" x="2827.12" y="-327.3" font-family="Times,serif" font-size="14.00">00110</text>
</g>
<!-- 10011&#45;&gt;00110 -->
<g id="edge41" class="edge">
<title>10011&#45;&gt;00110</title>
<path fill="none" stroke="black" d="M2755.51,-371.32C2764.31,-366.29 2773.75,-360.9 2782.77,-355.75"/>
<polygon fill="black" stroke="black" points="2784.66,-358.7 2791.61,-350.7 2781.19,-352.62 2784.66,-358.7"/>
<text text-anchor="middle" x="2773.82" y="-365.8" font-family="Times,serif" font-size="14.00">0</text>
</g>
<!-- 10100 -->
<g id="node6" class="node">
<title>10100</title>
<ellipse fill="none" stroke="black" cx="2495.34" cy="-515" rx="40.11" ry="40.11"/>
<ellipse fill="none" stroke="black" cx="2495.34" cy="-515" rx="44.09" ry="44.09"/>
<text text-anchor="middle" x="2495.34" y="-511.3" font-family="Times,serif" font-size="14.00">10100</text>
</g>
<!-- 01001 -->
<g id="node26" class="node">
<title>01001</title>
<ellipse fill="none" stroke="black" cx="2605.93" cy="-465" rx="40.09" ry="40.09"/>
<text text-anchor="middle" x="2605.93" y="-461.3" font-family="Times,serif" font-size="14.00">01001</text>
</g>
<!-- 10100&#45;&gt;01001 -->
<g id="edge42" class="edge">
<title>10100&#45;&gt;01001</title>
<path fill="none" stroke="black" d="M2535.85,-496.81C2543.61,-493.24 2551.8,-489.46 2559.73,-485.81"/>
<polygon fill="black" stroke="black" points="2561.26,-488.96 2568.87,-481.6 2558.33,-482.61 2561.26,-488.96"/>
<text text-anchor="middle" x="2552.64" y="-493.8" font-family="Times,serif" font-size="14.00">1</text>
</g>
<!-- 01000 -->
<g id="node27" class="node">
<title>01000</title>
<ellipse fill="none" stroke="black" cx="3376.08" cy="-392" rx="40.09" ry="40.09"/>
<text text-anchor="middle" x="3376.08" y="-388.3" font-family="Times,serif" font-size="14.00">01000</text>
</g>
<!-- 10100&#45;&gt;01000 -->
<g id="edge43" class="edge">
<title>10100&#45;&gt;01000</title>
<path fill="none" stroke="black" d="M2538.65,-524.74C2558.63,-528.54 2582.89,-532 2604.93,-532 2604.93,-532 2604.93,-532 3270.49,-532 3317.54,-532 3345.96,-480.63 3361.07,-440.13"/>
<polygon fill="black" stroke="black" points="3364.39,-441.22 3364.44,-430.63 3357.8,-438.88 3364.39,-441.22"/>
<text text-anchor="middle" x="2933.71" y="-535.8" font-family="Times,serif" font-size="14.00">0</text>
</g>
<!-- 10101 -->
<g id="node7" class="node">
<title>10101</title>
<ellipse fill="none" stroke="black" cx="2274.15" cy="-557" rx="40.11" ry="40.11"/>
<ellipse fill="none" stroke="black" cx="2274.15" cy="-557" rx="44.09" ry="44.09"/>
<text text-anchor="middle" x="2274.15" y="-553.3" font-family="Times,serif" font-size="14.00">10101</text>
</g>
<!-- 01011 -->
<g id="node28" class="node">
<title>01011</title>
<ellipse fill="none" stroke="black" cx="1377.41" cy="-416" rx="40.09" ry="40.09"/>
<text text-anchor="middle" x="1377.41" y="-412.3" font-family="Times,serif" font-size="14.00">01011</text>
</g>
<!-- 10101&#45;&gt;01011 -->
<g id="edge44" class="edge">
<title>10101&#45;&gt;01011</title>
<path fill="none" stroke="black" d="M2230.88,-566.44C2209.85,-570.36 2183.99,-574 2160.56,-574 1880.08,-574 1880.08,-574 1880.08,-574 1779.07,-574 1753.9,-568 1652.89,-568 1487,-568 1487,-568 1487,-568 1435.44,-568 1406.04,-509.38 1391.16,-464.95"/>
<polygon fill="black" stroke="black" points="1394.41,-463.61 1388.03,-455.14 1387.74,-465.73 1394.41,-463.61"/>
<text text-anchor="middle" x="1823.78" y="-577.8" font-family="Times,serif" font-size="14.00">1</text>
</g>
<!-- 01010 -->
<g id="node29" class="node">
<title>01010</title>
<ellipse fill="none" stroke="black" cx="2384.75" cy="-564" rx="40.09" ry="40.09"/>
<text text-anchor="middle" x="2384.75" y="-560.3" font-family="Times,serif" font-size="14.00">01010</text>
</g>
<!-- 10101&#45;&gt;01010 -->
<g id="edge45" class="edge">
<title>10101&#45;&gt;01010</title>
<path fill="none" stroke="black" d="M2318.38,-559.79C2323.57,-560.12 2328.91,-560.46 2334.18,-560.8"/>
<polygon fill="black" stroke="black" points="2333.98,-564.3 2344.19,-561.45 2334.43,-557.31 2333.98,-564.3"/>
<text text-anchor="middle" x="2331.45" y="-564.8" font-family="Times,serif" font-size="14.00">0</text>
</g>
<!-- 10110 -->
<g id="node8" class="node">
<title>10110</title>
<ellipse fill="none" stroke="black" cx="1488" cy="-449" rx="40.11" ry="40.11"/>
<ellipse fill="none" stroke="black" cx="1488" cy="-449" rx="44.09" ry="44.09"/>
<text text-anchor="middle" x="1488" y="-445.3" font-family="Times,serif" font-size="14.00">10110</text>
</g>
<!-- 01101 -->
<g id="node30" class="node">
<title>01101</title>
<ellipse fill="none" stroke="black" cx="1598.6" cy="-451" rx="40.09" ry="40.09"/>
<text text-anchor="middle" x="1598.6" y="-447.3" font-family="Times,serif" font-size="14.00">01101</text>
</g>
<!-- 10110&#45;&gt;01101 -->
<g id="edge46" class="edge">
<title>10110&#45;&gt;01101</title>
<path fill="none" stroke="black" d="M1532.55,-449.8C1537.59,-449.89 1542.77,-449.99 1547.89,-450.08"/>
<polygon fill="black" stroke="black" points="1548.19,-453.59 1558.26,-450.28 1548.32,-446.59 1548.19,-453.59"/>
<text text-anchor="middle" x="1545.3" y="-454.8" font-family="Times,serif" font-size="14.00">1</text>
</g>
<!-- 01100 -->
<g id="node31" class="node">
<title>01100</title>
<ellipse fill="none" stroke="black" cx="2933.71" cy="-291" rx="40.09" ry="40.09"/>
<text text-anchor="middle" x="2933.71" y="-287.3" font-family="Times,serif" font-size="14.00">01100</text>
</g>
<!-- 10110&#45;&gt;01100 -->
<g id="edge47" class="edge">
<title>10110&#45;&gt;01100</title>
<path fill="none" stroke="black" d="M1517.2,-415.3C1528.91,-402.91 1543.27,-389.58 1558.3,-380 1595.27,-356.43 1607.05,-346 1650.89,-346 1650.89,-346 1650.89,-346 1935.37,-346 2125.09,-346 2597.24,-290.89 2786.82,-284 2822.62,-282.7 2831.65,-282.09 2867.41,-284 2872.55,-284.27 2877.9,-284.67 2883.23,-285.13"/>
<polygon fill="black" stroke="black" points="2883.12,-288.64 2893.4,-286.1 2883.78,-281.67 2883.12,-288.64"/>
<text text-anchor="middle" x="2216.86" y="-334.8" font-family="Times,serif" font-size="14.00">0</text>
</g>
<!-- 10111 -->
<g id="node9" class="node">
<title>10111</title>
<ellipse fill="none" stroke="black" cx="1823.78" cy="-442" rx="40.11" ry="40.11"/>
<ellipse fill="none" stroke="black" cx="1823.78" cy="-442" rx="44.09" ry="44.09"/>
<text text-anchor="middle" x="1823.78" y="-438.3" font-family="Times,serif" font-size="14.00">10111</text>
</g>
<!-- 01111 -->
<g id="node32" class="node">
<title>01111</title>
<ellipse fill="none" stroke="black" cx="484.67" cy="-313" rx="40.09" ry="40.09"/>
<text text-anchor="middle" x="484.67" y="-309.3" font-family="Times,serif" font-size="14.00">01111</text>
</g>
<!-- 10111&#45;&gt;01111 -->
<g id="edge48" class="edge">
<title>10111&#45;&gt;01111</title>
<path fill="none" stroke="black" d="M1807.15,-483.28C1785.1,-538.08 1743.78,-628 1710.19,-628 1429.71,-628 1429.71,-628 1429.71,-628 1387.19,-628 1375.64,-621.96 1337.11,-604 1253.1,-564.83 1090.04,-362 997.34,-362 594.26,-362 594.26,-362 594.26,-362 570.41,-362 546,-352.05 526.39,-341.12"/>
<polygon fill="black" stroke="black" points="528.13,-338.09 517.73,-336.07 524.6,-344.13 528.13,-338.09"/>
<text text-anchor="middle" x="1164.22" y="-501.8" font-family="Times,serif" font-size="14.00">1</text>
</g>
<!-- 01110 -->
<g id="node33" class="node">
<title>01110</title>
<ellipse fill="none" stroke="black" cx="1934.37" cy="-442" rx="40.09" ry="40.09"/>
<text text-anchor="middle" x="1934.37" y="-438.3" font-family="Times,serif" font-size="14.00">01110</text>
</g>
<!-- 10111&#45;&gt;01110 -->
<g id="edge49" class="edge">
<title>10111&#45;&gt;01110</title>
<path fill="none" stroke="black" d="M1868.33,-442C1873.37,-442 1878.54,-442 1883.66,-442"/>
<polygon fill="black" stroke="black" points="1884.04,-445.5 1894.04,-442 1884.04,-438.5 1884.04,-445.5"/>
<text text-anchor="middle" x="1881.08" y="-445.8" font-family="Times,serif" font-size="14.00">0</text>
</g>
<!-- 11000 -->
<g id="node10" class="node">
<title>11000</title>
<ellipse fill="none" stroke="black" cx="939.04" cy="-126" rx="40.11" ry="40.11"/>
<ellipse fill="none" stroke="black" cx="939.04" cy="-126" rx="44.09" ry="44.09"/>
<text text-anchor="middle" x="939.04" y="-122.3" font-family="Times,serif" font-size="14.00">11000</text>
</g>
<!-- 11000&#45;&gt;10000 -->
<g id="edge51" class="edge">
<title>11000&#45;&gt;10000</title>
<path fill="none" stroke="black" d="M965.67,-90.23C995.63,-52.98 1048.97,0 1109.93,0 1109.93,0 1109.93,0 3377.08,0 3441.18,0 3473.53,-471.29 3482.81,-634.3"/>
<polygon fill="black" stroke="black" points="3479.33,-634.8 3483.38,-644.59 3486.32,-634.41 3479.33,-634.8"/>
<text text-anchor="middle" x="2216.86" y="-3.8" font-family="Times,serif" font-size="14.00">0</text>
</g>
<!-- 11000&#45;&gt;10001 -->
<g id="edge50" class="edge">
<title>11000&#45;&gt;10001</title>
<path fill="none" stroke="black" d="M981.96,-114.83C988.12,-113.19 994.52,-111.48 1000.84,-109.8"/>
<polygon fill="black" stroke="black" points="1001.91,-113.14 1010.67,-107.18 1000.11,-106.37 1001.91,-113.14"/>
<text text-anchor="middle" x="996.34" y="-115.8" font-family="Times,serif" font-size="14.00">1</text>
</g>
<!-- 11001 -->
<g id="node11" class="node">
<title>11001</title>
<ellipse fill="none" stroke="black" cx="3044.3" cy="-294" rx="40.11" ry="40.11"/>
<ellipse fill="none" stroke="black" cx="3044.3" cy="-294" rx="44.09" ry="44.09"/>
<text text-anchor="middle" x="3044.3" y="-290.3" font-family="Times,serif" font-size="14.00">11001</text>
</g>
<!-- 11001&#45;&gt;10010 -->
<g id="edge53" class="edge">
<title>11001&#45;&gt;10010</title>
<path fill="none" stroke="black" d="M3088.83,-295.93C3093.96,-296.16 3099.24,-296.4 3104.49,-296.63"/>
<polygon fill="black" stroke="black" points="3104.34,-300.12 3114.48,-297.07 3104.65,-293.13 3104.34,-300.12"/>
<text text-anchor="middle" x="3101.6" y="-300.8" font-family="Times,serif" font-size="14.00">0</text>
</g>
<!-- 11001&#45;&gt;10011 -->
<g id="edge52" class="edge">
<title>11001&#45;&gt;10011</title>
<path fill="none" stroke="black" d="M3007.44,-318.75C2996.93,-325.46 2985.23,-332.41 2974.01,-338 2928.72,-360.57 2916.69,-366.5 2867.41,-378 2836,-385.33 2800.06,-389.08 2771.25,-391"/>
<polygon fill="black" stroke="black" points="2770.74,-387.52 2760.98,-391.63 2771.17,-394.51 2770.74,-387.52"/>
<text text-anchor="middle" x="2880.41" y="-379.8" font-family="Times,serif" font-size="14.00">1</text>
</g>
<!-- 11010 -->
<g id="node12" class="node">
<title>11010</title>
<ellipse fill="none" stroke="black" cx="2159.56" cy="-502" rx="40.11" ry="40.11"/>
<ellipse fill="none" stroke="black" cx="2159.56" cy="-502" rx="44.09" ry="44.09"/>
<text text-anchor="middle" x="2159.56" y="-498.3" font-family="Times,serif" font-size="14.00">11010</text>
</g>
<!-- 11010&#45;&gt;10100 -->
<g id="edge55" class="edge">
<title>11010&#45;&gt;10100</title>
<path fill="none" stroke="black" d="M2204.13,-502.8C2235.84,-503.46 2279.82,-504.52 2318.45,-506 2359.43,-507.57 2405.75,-509.96 2440.57,-511.89"/>
<polygon fill="black" stroke="black" points="2440.8,-515.41 2450.98,-512.47 2441.19,-508.42 2440.8,-515.41"/>
<text text-anchor="middle" x="2331.45" y="-510.8" font-family="Times,serif" font-size="14.00">0</text>
</g>
<!-- 11010&#45;&gt;10101 -->
<g id="edge54" class="edge">
<title>11010&#45;&gt;10101</title>
<path fill="none" stroke="black" d="M2199.62,-521.08C2207.83,-525.09 2216.58,-529.37 2225.08,-533.52"/>
<polygon fill="black" stroke="black" points="2223.64,-536.71 2234.16,-537.95 2226.71,-530.42 2223.64,-536.71"/>
<text text-anchor="middle" x="2216.86" y="-535.8" font-family="Times,serif" font-size="14.00">1</text>
</g>
<!-- 11011 -->
<g id="node13" class="node">
<title>11011</title>
<ellipse fill="none" stroke="black" cx="1709.19" cy="-472" rx="40.11" ry="40.11"/>
<ellipse fill="none" stroke="black" cx="1709.19" cy="-472" rx="44.09" ry="44.09"/>
<text text-anchor="middle" x="1709.19" y="-468.3" font-family="Times,serif" font-size="14.00">11011</text>
</g>
<!-- 11011&#45;&gt;10110 -->
<g id="edge57" class="edge">
<title>11011&#45;&gt;10110</title>
<path fill="none" stroke="black" d="M1668.21,-489.77C1658.78,-493.18 1648.63,-496.23 1638.89,-498 1603.65,-504.39 1592.44,-508.85 1558.3,-498 1548.51,-494.89 1538.9,-489.83 1530.12,-484.13"/>
<polygon fill="black" stroke="black" points="1531.84,-481.06 1521.63,-478.25 1527.86,-486.82 1531.84,-481.06"/>
<text text-anchor="middle" x="1598.6" y="-508.8" font-family="Times,serif" font-size="14.00">0</text>
</g>
<!-- 11011&#45;&gt;10111 -->
<g id="edge56" class="edge">
<title>11011&#45;&gt;10111</title>
<path fill="none" stroke="black" d="M1752.11,-460.83C1758.27,-459.19 1764.67,-457.48 1770.99,-455.8"/>
<polygon fill="black" stroke="black" points="1772.06,-459.14 1780.82,-453.18 1770.26,-452.37 1772.06,-459.14"/>
<text text-anchor="middle" x="1766.49" y="-461.8" font-family="Times,serif" font-size="14.00">1</text>
</g>
<!-- 11100 -->
<g id="node14" class="node">
<title>11100</title>
<ellipse fill="none" stroke="black" cx="824.45" cy="-196" rx="40.11" ry="40.11"/>
<ellipse fill="none" stroke="black" cx="824.45" cy="-196" rx="44.09" ry="44.09"/>
<text text-anchor="middle" x="824.45" y="-192.3" font-family="Times,serif" font-size="14.00">11100</text>
</g>
<!-- 11100&#45;&gt;11000 -->
<g id="edge59" class="edge">
<title>11100&#45;&gt;11000</title>
<path fill="none" stroke="black" d="M864.06,-175.39C871.67,-171.11 879.52,-166.52 886.74,-162 889.21,-160.46 891.72,-158.85 894.23,-157.19"/>
<polygon fill="black" stroke="black" points="896.41,-159.95 902.77,-151.48 892.51,-154.13 896.41,-159.95"/>
<text text-anchor="middle" x="881.74" y="-171.8" font-family="Times,serif" font-size="14.00">0</text>
</g>
<!-- 11100&#45;&gt;11001 -->
<g id="edge58" class="edge">
<title>11100&#45;&gt;11001</title>
<path fill="none" stroke="black" d="M839.62,-154.36C850.68,-127.91 868.6,-95.01 894.74,-75 967.23,-19.51 1007.63,-31.6 1097.93,-45 1152.41,-53.09 1161.44,-81 1216.52,-81 1216.52,-81 1216.52,-81 1489,-81 1710.21,-81 1765.47,-87 1986.67,-87 1986.67,-87 1986.67,-87 2934.71,-87 3003.81,-87 3029.03,-178.57 3038.17,-239.91"/>
<polygon fill="black" stroke="black" points="3034.71,-240.42 3039.56,-249.85 3041.64,-239.46 3034.71,-240.42"/>
<text text-anchor="middle" x="1934.37" y="-90.8" font-family="Times,serif" font-size="14.00">1</text>
</g>
<!-- 11101 -->
<g id="node15" class="node">
<title>11101</title>
<ellipse fill="none" stroke="black" cx="2044.97" cy="-457" rx="40.11" ry="40.11"/>
<ellipse fill="none" stroke="black" cx="2044.97" cy="-457" rx="44.09" ry="44.09"/>
<text text-anchor="middle" x="2044.97" y="-453.3" font-family="Times,serif" font-size="14.00">11101</text>
</g>
<!-- 11101&#45;&gt;11010 -->
<g id="edge61" class="edge">
<title>11101&#45;&gt;11010</title>
<path fill="none" stroke="black" d="M2086.3,-473.12C2093.57,-476.03 2101.24,-479.09 2108.75,-482.09"/>
<polygon fill="black" stroke="black" points="2107.55,-485.38 2118.13,-485.84 2110.15,-478.88 2107.55,-485.38"/>
<text text-anchor="middle" x="2102.26" y="-484.8" font-family="Times,serif" font-size="14.00">0</text>
</g>
<!-- 11101&#45;&gt;11011 -->
<g id="edge60" class="edge">
<title>11101&#45;&gt;11011</title>
<path fill="none" stroke="black" d="M2005.73,-477.91C1995.88,-482.38 1985.11,-486.5 1974.67,-489 1890.29,-509.21 1865.32,-505.72 1779.49,-493 1773.37,-492.09 1767.04,-490.76 1760.81,-489.19"/>
<polygon fill="black" stroke="black" points="1761.71,-485.81 1751.14,-486.58 1759.88,-492.57 1761.71,-485.81"/>
<text text-anchor="middle" x="1881.08" y="-507.8" font-family="Times,serif" font-size="14.00">1</text>
</g>
<!-- 11110 -->
<g id="node16" class="node">
<title>11110</title>
<ellipse fill="none" stroke="black" cx="709.85" cy="-237" rx="40.11" ry="40.11"/>
<ellipse fill="none" stroke="black" cx="709.85" cy="-237" rx="44.09" ry="44.09"/>
<text text-anchor="middle" x="709.85" y="-233.3" font-family="Times,serif" font-size="14.00">11110</text>
</g>
<!-- 11110&#45;&gt;11100 -->
<g id="edge63" class="edge">
<title>11110&#45;&gt;11100</title>
<path fill="none" stroke="black" d="M751.82,-222.08C758.74,-219.56 765.99,-216.92 773.11,-214.33"/>
<polygon fill="black" stroke="black" points="774.5,-217.55 782.7,-210.84 772.1,-210.97 774.5,-217.55"/>
<text text-anchor="middle" x="767.15" y="-221.8" font-family="Times,serif" font-size="14.00">0</text>
</g>
<!-- 11110&#45;&gt;11101 -->
<g id="edge62" class="edge">
<title>11110&#45;&gt;11101</title>
<path fill="none" stroke="black" d="M752.08,-250.67C773.18,-256.51 799.42,-262 823.45,-262 823.45,-262 823.45,-262 1325.11,-262 1446.15,-262 1756.37,-258.41 1868.08,-305 1925.22,-328.83 1977.03,-378.68 2009.39,-414.81"/>
<polygon fill="black" stroke="black" points="2007.15,-417.56 2016.39,-422.75 2012.41,-412.94 2007.15,-417.56"/>
<text text-anchor="middle" x="1377.41" y="-265.8" font-family="Times,serif" font-size="14.00">1</text>
</g>
<!-- 11111 -->
<g id="node17" class="node">
<title>11111</title>
<ellipse fill="none" stroke="black" cx="595.26" cy="-263" rx="40.11" ry="40.11"/>
<ellipse fill="none" stroke="black" cx="595.26" cy="-263" rx="44.09" ry="44.09"/>
<text text-anchor="middle" x="595.26" y="-259.3" font-family="Times,serif" font-size="14.00">11111</text>
</g>
<!-- 11111&#45;&gt;11110 -->
<g id="edge65" class="edge">
<title>11111&#45;&gt;11110</title>
<path fill="none" stroke="black" d="M638.51,-253.24C644.34,-251.9 650.39,-250.5 656.39,-249.12"/>
<polygon fill="black" stroke="black" points="657.41,-252.47 666.37,-246.81 655.84,-245.65 657.41,-252.47"/>
<text text-anchor="middle" x="652.56" y="-254.8" font-family="Times,serif" font-size="14.00">0</text>
</g>
<!-- 11111&#45;&gt;11111 -->
<g id="edge64" class="edge">
<title>11111&#45;&gt;11111</title>
<path fill="none" stroke="black" d="M585.16,-306.22C586.26,-315.01 589.63,-321.3 595.26,-321.3 598.43,-321.3 600.88,-319.31 602.61,-316"/>
<polygon fill="black" stroke="black" points="606.03,-316.79 605.36,-306.22 599.29,-314.9 606.03,-316.79"/>
<text text-anchor="middle" x="595.26" y="-325.1" font-family="Times,serif" font-size="14.00">1</text>
</g>
<!-- 00000&#45;&gt;00000 -->
<g id="edge3" class="edge">
<title>00000&#45;&gt;00000</title>
<path fill="none" stroke="black" d="M49.56,-735.53C50.42,-744.09 53.33,-750.3 58.3,-750.3 61.01,-750.3 63.12,-748.44 64.6,-745.36"/>
<polygon fill="black" stroke="black" points="68.03,-746.08 67.03,-735.53 61.23,-744.4 68.03,-746.08"/>
<text text-anchor="middle" x="58.3" y="-754.1" font-family="Times,serif" font-size="14.00">0</text>
</g>
<!-- 00000&#45;&gt;00001 -->
<g id="edge2" class="edge">
<title>00000&#45;&gt;00001</title>
<path fill="none" stroke="black" d="M97.06,-684.09C103.28,-682.12 109.8,-680.07 116.22,-678.04"/>
<polygon fill="black" stroke="black" points="117.7,-681.24 126.18,-674.9 115.59,-674.57 117.7,-681.24"/>
<text text-anchor="middle" x="111.59" y="-683.8" font-family="Times,serif" font-size="14.00">1</text>
</g>
<!-- 00001&#45;&gt;00011 -->
<g id="edge4" class="edge">
<title>00001&#45;&gt;00011</title>
<path fill="none" stroke="black" d="M174.18,-623.67C193.08,-534.04 239.31,-314.82 260.08,-216.33"/>
<polygon fill="black" stroke="black" points="263.55,-216.85 262.19,-206.34 256.7,-215.4 263.55,-216.85"/>
<text text-anchor="middle" x="218.19" y="-433.8" font-family="Times,serif" font-size="14.00">1</text>
</g>
<!-- 00001&#45;&gt;00010 -->
<g id="edge5" class="edge">
<title>00001&#45;&gt;00010</title>
<path fill="none" stroke="black" d="M204.39,-653.7C224.04,-649.74 248.41,-646 270.48,-646 270.48,-646 270.48,-646 997.34,-646 1115.58,-646 1060.42,-511.74 1123.93,-412 1126.7,-407.64 1129.72,-403.18 1132.81,-398.77"/>
<polygon fill="black" stroke="black" points="1135.8,-400.6 1138.78,-390.43 1130.11,-396.52 1135.8,-400.6"/>
<text text-anchor="middle" x="652.56" y="-649.8" font-family="Times,serif" font-size="14.00">0</text>
</g>
<!-- 00011&#45;&gt;00111 -->
<g id="edge8" class="edge">
<title>00011&#45;&gt;00111</title>
<path fill="none" stroke="black" d="M292.16,-201.99C309.25,-232.38 334.08,-276.54 352.48,-309.27"/>
<polygon fill="black" stroke="black" points="349.54,-311.17 357.49,-318.17 355.64,-307.74 349.54,-311.17"/>
<text text-anchor="middle" x="324.78" y="-269.8" font-family="Times,serif" font-size="14.00">1</text>
</g>
<!-- 00011&#45;&gt;00110 -->
<g id="edge9" class="edge">
<title>00011&#45;&gt;00110</title>
<path fill="none" stroke="black" d="M307.23,-148.07C327.09,-138.96 352.81,-130 377.07,-130 377.07,-130 377.07,-130 825.45,-130 855.58,-130 868.17,-135.27 886.74,-159 892.14,-165.89 887.78,-171.7 894.74,-177 930.72,-204.37 950.13,-192 995.34,-192 995.34,-192 995.34,-192 1652.89,-192 1801.26,-192 1838.31,-197 1986.67,-197 1986.67,-197 1986.67,-197 2717.52,-197 2763.35,-197 2793.19,-244.88 2809.79,-283.4"/>
<polygon fill="black" stroke="black" points="2806.68,-285.05 2813.72,-292.96 2813.15,-282.38 2806.68,-285.05"/>
<text text-anchor="middle" x="1545.3" y="-195.8" font-family="Times,serif" font-size="14.00">0</text>
</g>
<!-- 00010&#45;&gt;00101 -->
<g id="edge6" class="edge">
<title>00010&#45;&gt;00101</title>
<path fill="none" stroke="black" d="M1202.1,-373.46C1208.97,-376.15 1216.24,-379 1223.36,-381.79"/>
<polygon fill="black" stroke="black" points="1222.34,-385.15 1232.92,-385.54 1224.89,-378.63 1222.34,-385.15"/>
<text text-anchor="middle" x="1217.52" y="-384.8" font-family="Times,serif" font-size="14.00">1</text>
</g>
<!-- 00010&#45;&gt;00100 -->
<g id="edge7" class="edge">
<title>00010&#45;&gt;00100</title>
<path fill="none" stroke="black" d="M1173.56,-319.72C1189.9,-254.75 1232.74,-132 1323.11,-132 1323.11,-132 1323.11,-132 1767.49,-132 1864.97,-132 1889.19,-124 1986.67,-124 1986.67,-124 1986.67,-124 3159.9,-124 3232.17,-124 3256.37,-222.81 3264.46,-285.51"/>
<polygon fill="black" stroke="black" points="3261,-286.11 3265.66,-295.63 3267.95,-285.28 3261,-286.11"/>
<text text-anchor="middle" x="2216.86" y="-127.8" font-family="Times,serif" font-size="14.00">0</text>
</g>
<!-- 00101&#45;&gt;01011 -->
<g id="edge12" class="edge">
<title>00101&#45;&gt;01011</title>
<path fill="none" stroke="black" d="M1310.76,-405.96C1316.21,-406.79 1321.86,-407.66 1327.46,-408.51"/>
<polygon fill="black" stroke="black" points="1327.02,-411.98 1337.43,-410.04 1328.08,-405.07 1327.02,-411.98"/>
<text text-anchor="middle" x="1324.11" y="-412.8" font-family="Times,serif" font-size="14.00">1</text>
</g>
<!-- 00101&#45;&gt;01010 -->
<g id="edge13" class="edge">
<title>00101&#45;&gt;01010</title>
<path fill="none" stroke="black" d="M1275.25,-440.07C1282.64,-497.92 1305.66,-598 1376.41,-598 1376.41,-598 1376.41,-598 1652.89,-598 1778.05,-598 1808.22,-623 1933.37,-623 1933.37,-623 1933.37,-623 2275.15,-623 2300.87,-623 2326.32,-610.06 2346.1,-596.31"/>
<polygon fill="black" stroke="black" points="2348.2,-599.11 2354.22,-590.39 2344.08,-593.45 2348.2,-599.11"/>
<text text-anchor="middle" x="1823.78" y="-624.8" font-family="Times,serif" font-size="14.00">0</text>
</g>
<!-- 00100&#45;&gt;01001 -->
<g id="edge10" class="edge">
<title>00100&#45;&gt;01001</title>
<path fill="none" stroke="black" d="M3259.06,-375C3245.51,-420.33 3215.76,-489 3159.9,-489 2715.52,-489 2715.52,-489 2715.52,-489 2695.23,-489 2673.29,-484.95 2654.49,-480.18"/>
<polygon fill="black" stroke="black" points="2655.24,-476.76 2644.68,-477.56 2653.43,-483.53 2655.24,-476.76"/>
<text text-anchor="middle" x="2933.71" y="-492.8" font-family="Times,serif" font-size="14.00">1</text>
</g>
<!-- 00100&#45;&gt;01000 -->
<g id="edge11" class="edge">
<title>00100&#45;&gt;01000</title>
<path fill="none" stroke="black" d="M3305.32,-354.65C3313.61,-359.09 3322.56,-363.88 3331.2,-368.51"/>
<polygon fill="black" stroke="black" points="3329.58,-371.61 3340.05,-373.24 3332.89,-365.44 3329.58,-371.61"/>
<text text-anchor="middle" x="3322.79" y="-369.8" font-family="Times,serif" font-size="14.00">0</text>
</g>
<!-- 00111&#45;&gt;01111 -->
<g id="edge16" class="edge">
<title>00111&#45;&gt;01111</title>
<path fill="none" stroke="black" d="M415.95,-338.9C422.82,-336.27 430.09,-333.49 437.21,-330.77"/>
<polygon fill="black" stroke="black" points="438.68,-333.95 446.77,-327.11 436.18,-327.41 438.68,-333.95"/>
<text text-anchor="middle" x="431.37" y="-338.8" font-family="Times,serif" font-size="14.00">1</text>
</g>
<!-- 00111&#45;&gt;01110 -->
<g id="edge17" class="edge">
<title>00111&#45;&gt;01110</title>
<path fill="none" stroke="black" d="M386.29,-392.66C400.79,-466.13 436.19,-616 483.67,-616 483.67,-616 483.67,-616 997.34,-616 1190.41,-616 1236.64,-658 1429.71,-658 1429.71,-658 1429.71,-658 1652.89,-658 1748.9,-658 1792.79,-698.58 1868.08,-639 1912.21,-604.08 1926.8,-538.44 1931.46,-492.56"/>
<polygon fill="black" stroke="black" points="1934.96,-492.79 1932.36,-482.52 1927.98,-492.17 1934.96,-492.79"/>
<text text-anchor="middle" x="1164.22" y="-639.8" font-family="Times,serif" font-size="14.00">0</text>
</g>
<!-- 00110&#45;&gt;01101 -->
<g id="edge14" class="edge">
<title>00110&#45;&gt;01101</title>
<path fill="none" stroke="black" d="M2786.62,-333.88C2649.26,-343.82 2192.83,-376 2045.97,-376 1822.78,-376 1822.78,-376 1822.78,-376 1757.72,-376 1687.28,-405 1643.3,-426.93"/>
<polygon fill="black" stroke="black" points="1641.66,-423.84 1634.33,-431.49 1644.83,-430.08 1641.66,-423.84"/>
<text text-anchor="middle" x="2216.86" y="-374.8" font-family="Times,serif" font-size="14.00">1</text>
</g>
<!-- 00110&#45;&gt;01100 -->
<g id="edge15" class="edge">
<title>00110&#45;&gt;01100</title>
<path fill="none" stroke="black" d="M2864.99,-316.9C2871.87,-314.27 2879.13,-311.49 2886.25,-308.77"/>
<polygon fill="black" stroke="black" points="2887.73,-311.95 2895.82,-305.11 2885.22,-305.41 2887.73,-311.95"/>
<text text-anchor="middle" x="2880.41" y="-316.8" font-family="Times,serif" font-size="14.00">0</text>
</g>
<!-- 01001&#45;&gt;10010 -->
<g id="edge21" class="edge">
<title>01001&#45;&gt;10010</title>
<path fill="none" stroke="black" d="M2646.13,-461.38C2677.41,-458.07 2722.22,-452.41 2760.82,-444 2909.51,-411.61 2950.89,-409.77 3088.6,-345 3097.23,-340.94 3106.02,-335.91 3114.31,-330.69"/>
<polygon fill="black" stroke="black" points="3116.27,-333.59 3122.75,-325.2 3112.46,-327.72 3116.27,-333.59"/>
<text text-anchor="middle" x="2880.41" y="-423.8" font-family="Times,serif" font-size="14.00">0</text>
</g>
<!-- 01001&#45;&gt;10011 -->
<g id="edge20" class="edge">
<title>01001&#45;&gt;10011</title>
<path fill="none" stroke="black" d="M2639.71,-442.72C2644.57,-439.45 2649.52,-436.13 2654.23,-433 2659.44,-429.54 2664.91,-425.93 2670.35,-422.36"/>
<polygon fill="black" stroke="black" points="2672.39,-425.21 2678.83,-416.8 2668.55,-419.35 2672.39,-425.21"/>
<text text-anchor="middle" x="2659.23" y="-436.8" font-family="Times,serif" font-size="14.00">1</text>
</g>
<!-- 01000&#45;&gt;10000 -->
<g id="edge19" class="edge">
<title>01000&#45;&gt;10000</title>
<path fill="none" stroke="black" d="M3390.84,-429.62C3410.14,-482.4 3445.31,-578.62 3466.98,-637.86"/>
<polygon fill="black" stroke="black" points="3463.74,-639.21 3470.46,-647.4 3470.32,-636.8 3463.74,-639.21"/>
<text text-anchor="middle" x="3429.38" y="-544.8" font-family="Times,serif" font-size="14.00">0</text>
</g>
<!-- 01000&#45;&gt;10001 -->
<g id="edge18" class="edge">
<title>01000&#45;&gt;10001</title>
<path fill="none" stroke="black" d="M3371.33,-351.88C3361.78,-261.74 3332.8,-51 3270.49,-51 1163.22,-51 1163.22,-51 1163.22,-51 1141.48,-51 1119.02,-58.8 1100.21,-67.9"/>
<polygon fill="black" stroke="black" points="1098.61,-64.79 1091.29,-72.45 1101.79,-71.02 1098.61,-64.79"/>
<text text-anchor="middle" x="2216.86" y="-54.8" font-family="Times,serif" font-size="14.00">1</text>
</g>
<!-- 01011&#45;&gt;10110 -->
<g id="edge25" class="edge">
<title>01011&#45;&gt;10110</title>
<path fill="none" stroke="black" d="M1416.09,-427.45C1422.42,-429.38 1429.1,-431.4 1435.71,-433.41"/>
<polygon fill="black" stroke="black" points="1434.73,-436.77 1445.31,-436.33 1436.76,-430.07 1434.73,-436.77"/>
<text text-anchor="middle" x="1430.71" y="-436.8" font-family="Times,serif" font-size="14.00">0</text>
</g>
<!-- 01011&#45;&gt;10111 -->
<g id="edge24" class="edge">
<title>01011&#45;&gt;10111</title>
<path fill="none" stroke="black" d="M1416.11,-404.29C1425.08,-401.88 1434.67,-399.59 1443.71,-398 1529.24,-382.99 1552.86,-377.21 1638.89,-389 1684.93,-395.31 1735.55,-410.54 1772,-423.06"/>
<polygon fill="black" stroke="black" points="1771.3,-426.53 1781.89,-426.52 1773.6,-419.92 1771.3,-426.53"/>
<text text-anchor="middle" x="1598.6" y="-392.8" font-family="Times,serif" font-size="14.00">1</text>
</g>
<!-- 01010&#45;&gt;10100 -->
<g id="edge23" class="edge">
<title>01010&#45;&gt;10100</title>
<path fill="none" stroke="black" d="M2421.91,-547.68C2429.44,-544.28 2437.51,-540.64 2445.42,-537.07"/>
<polygon fill="black" stroke="black" points="2446.92,-540.24 2454.6,-532.93 2444.04,-533.85 2446.92,-540.24"/>
<text text-anchor="middle" x="2438.04" y="-546.8" font-family="Times,serif" font-size="14.00">0</text>
</g>
<!-- 01010&#45;&gt;10101 -->
<g id="edge22" class="edge">
<title>01010&#45;&gt;10101</title>
<path fill="none" stroke="black" d="M2348.38,-546.43C2344.43,-545.03 2340.4,-543.84 2336.45,-543 2333.19,-542.31 2329.84,-541.98 2326.47,-541.94"/>
<polygon fill="black" stroke="black" points="2326.08,-538.46 2316.33,-542.6 2326.54,-545.44 2326.08,-538.46"/>
<text text-anchor="middle" x="2331.45" y="-546.8" font-family="Times,serif" font-size="14.00">1</text>
</g>
<!-- 01101&#45;&gt;11010 -->
<g id="edge29" class="edge">
<title>01101&#45;&gt;11010</title>
<path fill="none" stroke="black" d="M1626.17,-480.63C1643.69,-500.11 1663.64,-522.17 1664.89,-523 1681.88,-534.23 1687.82,-538 1708.19,-538 1708.19,-538 1708.19,-538 2045.97,-538 2067.56,-538 2090.43,-531.92 2109.87,-524.75"/>
<polygon fill="black" stroke="black" points="2111.35,-527.93 2119.41,-521.05 2108.82,-521.41 2111.35,-527.93"/>
<text text-anchor="middle" x="1881.08" y="-541.8" font-family="Times,serif" font-size="14.00">0</text>
</g>
<!-- 01101&#45;&gt;11011 -->
<g id="edge28" class="edge">
<title>01101&#45;&gt;11011</title>
<path fill="none" stroke="black" d="M1638.49,-458.52C1643.97,-459.58 1649.68,-460.68 1655.36,-461.78"/>
<polygon fill="black" stroke="black" points="1655.03,-465.28 1665.51,-463.75 1656.36,-458.41 1655.03,-465.28"/>
<text text-anchor="middle" x="1651.89" y="-465.8" font-family="Times,serif" font-size="14.00">1</text>
</g>
<!-- 01100&#45;&gt;11000 -->
<g id="edge27" class="edge">
<title>01100&#45;&gt;11000</title>
<path fill="none" stroke="black" d="M2903.61,-263.8C2874.52,-238.5 2827.25,-202.33 2778.82,-186 2566.42,-114.39 2499.3,-160 2275.15,-160 1986.67,-160 1986.67,-160 1986.67,-160 1889.25,-160 1864.91,-162 1767.49,-162 1052.63,-162 1052.63,-162 1052.63,-162 1031.04,-162 1008.17,-155.92 988.73,-148.75"/>
<polygon fill="black" stroke="black" points="989.78,-145.41 979.19,-145.05 987.25,-151.93 989.78,-145.41"/>
<text text-anchor="middle" x="1934.37" y="-164.8" font-family="Times,serif" font-size="14.00">0</text>
</g>
<!-- 01100&#45;&gt;11001 -->
<g id="edge26" class="edge">
<title>01100&#45;&gt;11001</title>
<path fill="none" stroke="black" d="M2974.22,-292.09C2979.32,-292.23 2984.61,-292.38 2989.89,-292.52"/>
<polygon fill="black" stroke="black" points="2989.88,-296.03 2999.97,-292.8 2990.07,-289.03 2989.88,-296.03"/>
<text text-anchor="middle" x="2987.01" y="-296.8" font-family="Times,serif" font-size="14.00">1</text>
</g>
<!-- 01111&#45;&gt;11110 -->
<g id="edge33" class="edge">
<title>01111&#45;&gt;11110</title>
<path fill="none" stroke="black" d="M496.13,-274.33C505.64,-247.44 522.63,-213.56 550.96,-197 584.96,-177.13 601.52,-186.81 639.56,-197 648.04,-199.27 656.56,-202.86 664.58,-206.98"/>
<polygon fill="black" stroke="black" points="662.94,-210.07 673.39,-211.81 666.3,-203.93 662.94,-210.07"/>
<text text-anchor="middle" x="595.26" y="-200.8" font-family="Times,serif" font-size="14.00">0</text>
</g>
<!-- 01111&#45;&gt;11111 -->
<g id="edge32" class="edge">
<title>01111&#45;&gt;11111</title>
<path fill="none" stroke="black" d="M521.53,-296.49C529.16,-292.97 537.35,-289.2 545.38,-285.5"/>
<polygon fill="black" stroke="black" points="547.07,-288.58 554.69,-281.22 544.15,-282.22 547.07,-288.58"/>
<text text-anchor="middle" x="537.96" y="-294.8" font-family="Times,serif" font-size="14.00">1</text>
</g>
<!-- 01110&#45;&gt;11100 -->
<g id="edge31" class="edge">
<title>01110&#45;&gt;11100</title>
<path fill="none" stroke="black" d="M1919.43,-404.2C1903.01,-367.08 1871.85,-316 1824.78,-316 1544.3,-316 1544.3,-316 1544.3,-316 1375.54,-316 1333.99,-294 1165.22,-294 938.04,-294 938.04,-294 938.04,-294 903.43,-294 874.29,-267.33 854.33,-241.82"/>
<polygon fill="black" stroke="black" points="856.98,-239.51 848.18,-233.61 851.38,-243.71 856.98,-239.51"/>
<text text-anchor="middle" x="1377.41" y="-315.8" font-family="Times,serif" font-size="14.00">0</text>
</g>
<!-- 01110&#45;&gt;11101 -->
<g id="edge30" class="edge">
<title>01110&#45;&gt;11101</title>
<path fill="none" stroke="black" d="M1974.58,-447.42C1979.76,-448.13 1985.14,-448.87 1990.52,-449.62"/>
<polygon fill="black" stroke="black" points="1990.39,-453.13 2000.78,-451.03 1991.35,-446.2 1990.39,-453.13"/>
<text text-anchor="middle" x="1987.67" y="-453.8" font-family="Times,serif" font-size="14.00">1</text>
</g>
</g>
</svg>
