<?xml version="1.0" encoding="UTF-8" standalone="no"?>
<!DOCTYPE svg PUBLIC "-//W3C//DTD SVG 1.1//EN"
 "http://www.w3.org/Graphics/SVG/1.1/DTD/svg11.dtd">
<!-- Generated by graphviz version 2.42.3 (0)
 -->
<!-- Title: 113 Pages: 1 -->
<svg width="418pt" height="170pt"
 viewBox="0.00 0.00 418.00 170.00" xmlns="http://www.w3.org/2000/svg" xmlns:xlink="http://www.w3.org/1999/xlink">
<g id="graph0" class="graph" transform="scale(1 1) rotate(0) translate(4 166)">
<title>113</title>
<polygon fill="white" stroke="transparent" points="-4,4 -4,-166 414,-166 414,4 -4,4"/>
<!-- enter -->
<g id="node1" class="node">
<title>enter</title>
</g>
<!-- 0 -->
<g id="node2" class="node">
<title>0</title>
<ellipse fill="none" stroke="black" cx="60" cy="-32" rx="18" ry="18"/>
<ellipse fill="none" stroke="black" cx="60" cy="-32" rx="22" ry="22"/>
<text text-anchor="middle" x="60" y="-28.3" font-family="Times,serif" font-size="14.00">0</text>
</g>
<!-- enter&#45;&gt;0 -->
<g id="edge1" class="edge">
<title>enter&#45;&gt;0:sw</title>
<path fill="none" stroke="black" d="M1.08,-15.95C2.48,-15.05 21.56,-3.05 36.7,-9.7"/>
<polygon fill="black" stroke="black" points="34.92,-12.74 45,-16 39.15,-7.17 34.92,-12.74"/>
</g>
<!-- 0&#45;&gt;0 -->
<g id="edge3" class="edge">
<title>0&#45;&gt;0:w</title>
<path fill="none" stroke="black" d="M66.49,-53.28C66.8,-65.11 61.8,-76 49,-76 31.77,-76 28.68,-56.26 33.64,-41.07"/>
<polygon fill="black" stroke="black" points="36.82,-42.53 38,-32 30.51,-39.5 36.82,-42.53"/>
<text text-anchor="middle" x="60" y="-79.8" font-family="Times,serif" font-size="14.00">0</text>
</g>
<!-- 2 -->
<g id="node4" class="node">
<title>2</title>
<ellipse fill="none" stroke="black" cx="146" cy="-76" rx="18" ry="18"/>
<text text-anchor="middle" x="146" y="-72.3" font-family="Times,serif" font-size="14.00">2</text>
</g>
<!-- 0&#45;&gt;2 -->
<g id="edge7" class="edge">
<title>0&#45;&gt;2</title>
<path fill="none" stroke="black" d="M80.06,-41.98C92.02,-48.25 107.55,-56.39 120.43,-63.13"/>
<polygon fill="black" stroke="black" points="119.18,-66.42 129.66,-67.96 122.42,-60.22 119.18,-66.42"/>
<text text-anchor="middle" x="105" y="-59.8" font-family="Times,serif" font-size="14.00">1</text>
</g>
<!-- 1 -->
<g id="node3" class="node">
<title>1</title>
<ellipse fill="none" stroke="black" cx="228" cy="-18" rx="18" ry="18"/>
<text text-anchor="middle" x="228" y="-14.3" font-family="Times,serif" font-size="14.00">1</text>
</g>
<!-- 1&#45;&gt;0 -->
<g id="edge2" class="edge">
<title>1&#45;&gt;0</title>
<path fill="none" stroke="black" d="M209.67,-19.46C181.85,-21.81 126.85,-26.45 92.1,-29.38"/>
<polygon fill="black" stroke="black" points="91.69,-25.9 82.02,-30.23 92.28,-32.87 91.69,-25.9"/>
<text text-anchor="middle" x="146" y="-29.8" font-family="Times,serif" font-size="14.00">1</text>
</g>
<!-- 3 -->
<g id="node5" class="node">
<title>3</title>
<ellipse fill="none" stroke="black" cx="310" cy="-67" rx="18" ry="18"/>
<text text-anchor="middle" x="310" y="-63.3" font-family="Times,serif" font-size="14.00">3</text>
</g>
<!-- 1&#45;&gt;3 -->
<g id="edge8" class="edge">
<title>1&#45;&gt;3</title>
<path fill="none" stroke="black" d="M246.14,-14.91C254.93,-14.15 265.55,-14.58 274,-19 283.5,-23.96 291.05,-32.8 296.67,-41.56"/>
<polygon fill="black" stroke="black" points="293.8,-43.58 301.84,-50.48 299.86,-40.08 293.8,-43.58"/>
<text text-anchor="middle" x="269" y="-22.8" font-family="Times,serif" font-size="14.00">0</text>
</g>
<!-- 2&#45;&gt;1 -->
<g id="edge4" class="edge">
<title>2&#45;&gt;1</title>
<path fill="none" stroke="black" d="M160.93,-65.9C173.02,-57.14 190.73,-44.3 204.77,-34.12"/>
<polygon fill="black" stroke="black" points="206.91,-36.89 212.96,-28.18 202.81,-31.22 206.91,-36.89"/>
<text text-anchor="middle" x="187" y="-53.8" font-family="Times,serif" font-size="14.00">0</text>
</g>
<!-- 2&#45;&gt;3 -->
<g id="edge9" class="edge">
<title>2&#45;&gt;3</title>
<path fill="none" stroke="black" d="M164.03,-75.05C192.03,-73.5 248.04,-70.39 281.65,-68.52"/>
<polygon fill="black" stroke="black" points="281.92,-72.01 291.71,-67.96 281.53,-65.02 281.92,-72.01"/>
<text text-anchor="middle" x="228" y="-75.8" font-family="Times,serif" font-size="14.00">1</text>
</g>
<!-- 3&#45;&gt;1 -->
<g id="edge5" class="edge">
<title>3&#45;&gt;1</title>
<path fill="none" stroke="black" d="M294.15,-57.9C282.44,-50.73 265.91,-40.61 252.42,-32.35"/>
<polygon fill="black" stroke="black" points="254.03,-29.23 243.67,-26.99 250.37,-35.2 254.03,-29.23"/>
<text text-anchor="middle" x="269" y="-48.8" font-family="Times,serif" font-size="14.00">1</text>
</g>
<!-- 4 -->
<g id="node6" class="node">
<title>4</title>
<ellipse fill="none" stroke="black" cx="392" cy="-107" rx="18" ry="18"/>
<text text-anchor="middle" x="392" y="-103.3" font-family="Times,serif" font-size="14.00">4</text>
</g>
<!-- 3&#45;&gt;4 -->
<g id="edge10" class="edge">
<title>3&#45;&gt;4</title>
<path fill="none" stroke="black" d="M326.42,-74.71C337.82,-80.41 353.57,-88.29 366.66,-94.83"/>
<polygon fill="black" stroke="black" points="365.11,-97.97 375.62,-99.31 368.24,-91.71 365.11,-97.97"/>
<text text-anchor="middle" x="351" y="-92.8" font-family="Times,serif" font-size="14.00">0</text>
</g>
<!-- 4&#45;&gt;2 -->
<g id="edge6" class="edge">
<title>4&#45;&gt;2</title>
<path fill="none" stroke="black" d="M373.9,-108.58C365.49,-109.15 355.21,-109.53 346,-109 272.75,-104.77 253.13,-108.01 182,-90 178.76,-89.18 175.43,-88.13 172.16,-86.98"/>
<polygon fill="black" stroke="black" points="173.32,-83.68 162.73,-83.33 170.79,-90.2 173.32,-83.68"/>
<text text-anchor="middle" x="269" y="-108.8" font-family="Times,serif" font-size="14.00">0</text>
</g>
<!-- 4&#45;&gt;4 -->
<g id="edge11" class="edge">
<title>4&#45;&gt;4</title>
<path fill="none" stroke="black" d="M385.23,-123.85C383.18,-135.52 385.44,-147 392,-147 396.61,-147 399.1,-141.32 399.46,-133.9"/>
<polygon fill="black" stroke="black" points="402.94,-133.59 398.77,-123.85 395.96,-134.07 402.94,-133.59"/>
<text text-anchor="middle" x="392" y="-150.8" font-family="Times,serif" font-size="14.00">1</text>
</g>
</g>
</svg>
