<?xml version="1.0" encoding="UTF-8" standalone="no"?>
<!DOCTYPE svg PUBLIC "-//W3C//DTD SVG 1.1//EN"
 "http://www.w3.org/Graphics/SVG/1.1/DTD/svg11.dtd">
<!-- Generated by graphviz version 2.42.3 (0)
 -->
<!-- Title: 114 Pages: 1 -->
<svg width="366pt" height="225pt"
 viewBox="0.00 0.00 366.49 225.10" xmlns="http://www.w3.org/2000/svg" xmlns:xlink="http://www.w3.org/1999/xlink">
<g id="graph0" class="graph" transform="scale(1 1) rotate(0) translate(4 221.1)">
<title>114</title>
<polygon fill="white" stroke="transparent" points="-4,4 -4,-221.1 362.49,-221.1 362.49,4 -4,4"/>
<!-- enter -->
<g id="node1" class="node">
<title>enter</title>
</g>
<!-- start -->
<g id="node3" class="node">
<title>start</title>
<ellipse fill="none" stroke="black" cx="71.15" cy="-108.1" rx="33.29" ry="33.29"/>
<text text-anchor="middle" x="71.15" y="-104.4" font-family="Times,serif" font-size="14.00">start</text>
</g>
<!-- enter&#45;&gt;start -->
<g id="edge1" class="edge">
<title>enter&#45;&gt;start:sw</title>
<path fill="none" stroke="black" d="M1.09,-84.03C2.64,-82.88 24.4,-67.01 40.7,-76.96"/>
<polygon fill="black" stroke="black" points="38.5,-79.71 48.15,-84.1 43.35,-74.65 38.5,-79.71"/>
</g>
<!-- 0 -->
<g id="node2" class="node">
<title>0</title>
<ellipse fill="none" stroke="black" cx="172.39" cy="-158.1" rx="18" ry="18"/>
<ellipse fill="none" stroke="black" cx="172.39" cy="-158.1" rx="22" ry="22"/>
<text text-anchor="middle" x="172.39" y="-154.4" font-family="Times,serif" font-size="14.00">0</text>
</g>
<!-- 0&#45;&gt;0 -->
<g id="edge7" class="edge">
<title>0&#45;&gt;0</title>
<path fill="none" stroke="black" d="M164.6,-178.92C163,-190.92 165.6,-202.1 172.39,-202.1 177.17,-202.1 179.87,-196.57 180.5,-189.12"/>
<polygon fill="black" stroke="black" points="183.99,-188.81 180.19,-178.92 176.99,-189.02 183.99,-188.81"/>
<text text-anchor="middle" x="172.39" y="-205.9" font-family="Times,serif" font-size="14.00">0</text>
</g>
<!-- 1 -->
<g id="node5" class="node">
<title>1</title>
<ellipse fill="none" stroke="black" cx="258.49" cy="-158.1" rx="18" ry="18"/>
<text text-anchor="middle" x="258.49" y="-154.4" font-family="Times,serif" font-size="14.00">1</text>
</g>
<!-- 0&#45;&gt;1 -->
<g id="edge6" class="edge">
<title>0&#45;&gt;1</title>
<path fill="none" stroke="black" d="M194.61,-158.1C205.42,-158.1 218.68,-158.1 230.23,-158.1"/>
<polygon fill="black" stroke="black" points="230.24,-161.6 240.24,-158.1 230.24,-154.6 230.24,-161.6"/>
<text text-anchor="middle" x="217.49" y="-161.9" font-family="Times,serif" font-size="14.00">1</text>
</g>
<!-- start&#45;&gt;0 -->
<g id="edge2" class="edge">
<title>start&#45;&gt;0</title>
<path fill="none" stroke="black" d="M101.12,-122.69C114.38,-129.37 130.03,-137.26 143.2,-143.89"/>
<polygon fill="black" stroke="black" points="141.77,-147.09 152.27,-148.46 144.92,-140.84 141.77,-147.09"/>
<text text-anchor="middle" x="127.29" y="-140.9" font-family="Times,serif" font-size="14.00">0</text>
</g>
<!-- no -->
<g id="node4" class="node">
<title>no</title>
<ellipse fill="none" stroke="black" cx="172.39" cy="-59.1" rx="22.2" ry="22.2"/>
<text text-anchor="middle" x="172.39" y="-55.4" font-family="Times,serif" font-size="14.00">no</text>
</g>
<!-- start&#45;&gt;no -->
<g id="edge3" class="edge">
<title>start&#45;&gt;no</title>
<path fill="none" stroke="black" d="M101.12,-93.79C114.38,-87.25 130.03,-79.52 143.2,-73.02"/>
<polygon fill="black" stroke="black" points="144.85,-76.1 152.27,-68.54 141.76,-69.83 144.85,-76.1"/>
<text text-anchor="middle" x="127.29" y="-86.9" font-family="Times,serif" font-size="14.00">1</text>
</g>
<!-- no&#45;&gt;no -->
<g id="edge4" class="edge">
<title>no&#45;&gt;no:ne</title>
<path fill="none" stroke="black" d="M165.04,-79.97C164.18,-92 168.67,-103.2 180.39,-103.2 195.38,-103.2 198.55,-94.06 193.81,-83.61"/>
<polygon fill="black" stroke="black" points="196.71,-81.66 188.39,-75.1 190.81,-85.41 196.71,-81.66"/>
<text text-anchor="middle" x="172.39" y="-107" font-family="Times,serif" font-size="14.00">0</text>
</g>
<!-- no&#45;&gt;no -->
<g id="edge5" class="edge">
<title>no&#45;&gt;no:sw</title>
<path fill="none" stroke="black" d="M179.74,-38.23C180.61,-26.2 176.12,-15 164.39,-15 149.4,-15 146.24,-24.13 150.97,-34.58"/>
<polygon fill="black" stroke="black" points="148.07,-36.54 156.39,-43.1 153.98,-32.78 148.07,-36.54"/>
<text text-anchor="middle" x="172.39" y="-3.8" font-family="Times,serif" font-size="14.00">1</text>
</g>
<!-- 1&#45;&gt;0 -->
<g id="edge9" class="edge">
<title>1&#45;&gt;0</title>
<path fill="none" stroke="black" d="M243.58,-147.93C237.44,-144.04 229.93,-140.07 222.49,-138.1 214.91,-136.08 206.93,-137.63 199.66,-140.59"/>
<polygon fill="black" stroke="black" points="197.66,-137.68 190.29,-145.29 200.8,-143.93 197.66,-137.68"/>
<text text-anchor="middle" x="217.49" y="-141.9" font-family="Times,serif" font-size="14.00">1</text>
</g>
<!-- 2 -->
<g id="node6" class="node">
<title>2</title>
<ellipse fill="none" stroke="black" cx="340.49" cy="-158.1" rx="18" ry="18"/>
<text text-anchor="middle" x="340.49" y="-154.4" font-family="Times,serif" font-size="14.00">2</text>
</g>
<!-- 1&#45;&gt;2 -->
<g id="edge8" class="edge">
<title>1&#45;&gt;2</title>
<path fill="none" stroke="black" d="M276.85,-158.1C287.19,-158.1 300.55,-158.1 312.27,-158.1"/>
<polygon fill="black" stroke="black" points="312.44,-161.6 322.44,-158.1 312.44,-154.6 312.44,-161.6"/>
<text text-anchor="middle" x="299.49" y="-161.9" font-family="Times,serif" font-size="14.00">0</text>
</g>
<!-- 2&#45;&gt;1 -->
<g id="edge10" class="edge">
<title>2&#45;&gt;1</title>
<path fill="none" stroke="black" d="M325.58,-147.93C319.44,-144.04 311.93,-140.07 304.49,-138.1 296.88,-136.08 288.92,-138.1 281.84,-141.52"/>
<polygon fill="black" stroke="black" points="279.71,-138.71 272.87,-146.8 283.26,-144.75 279.71,-138.71"/>
<text text-anchor="middle" x="299.49" y="-141.9" font-family="Times,serif" font-size="14.00">0</text>
</g>
<!-- 2&#45;&gt;2 -->
<g id="edge11" class="edge">
<title>2&#45;&gt;2</title>
<path fill="none" stroke="black" d="M333.72,-174.95C331.67,-186.61 333.93,-198.1 340.49,-198.1 345.1,-198.1 347.59,-192.42 347.95,-184.99"/>
<polygon fill="black" stroke="black" points="351.43,-184.69 347.26,-174.95 344.45,-185.17 351.43,-184.69"/>
<text text-anchor="middle" x="340.49" y="-201.9" font-family="Times,serif" font-size="14.00">1</text>
</g>
</g>
</svg>
