<?xml version="1.0" encoding="UTF-8" standalone="no"?>
<!DOCTYPE svg PUBLIC "-//W3C//DTD SVG 1.1//EN"
 "http://www.w3.org/Graphics/SVG/1.1/DTD/svg11.dtd">
<!-- Generated by graphviz version 2.44.0 (0)
 -->
<!-- Title: 136 Pages: 1 -->
<svg width="283pt" height="76pt"
 viewBox="0.00 0.00 283.29 75.64" xmlns="http://www.w3.org/2000/svg" xmlns:xlink="http://www.w3.org/1999/xlink">
<g id="graph0" class="graph" transform="scale(1 1) rotate(0) translate(4 71.64)">
<title>136</title>
<polygon fill="white" stroke="transparent" points="-4,4 -4,-71.64 279.29,-71.64 279.29,4 -4,4"/>
<!-- enter -->
<g id="node1" class="node">
<title>enter</title>
</g>
<!-- start -->
<g id="node2" class="node">
<title>start</title>
<ellipse fill="none" stroke="black" cx="71.15" cy="-34.5" rx="33.29" ry="33.29"/>
<text text-anchor="middle" x="71.15" y="-30.8" font-family="Times,serif" font-size="14.00">start</text>
</g>
<!-- enter&#45;&gt;start -->
<g id="edge1" class="edge">
<title>enter&#45;&gt;start:sw</title>
<path fill="none" stroke="black" d="M1.09,-10.43C2.64,-9.28 24.4,6.59 40.7,-3.36"/>
<polygon fill="black" stroke="black" points="38.5,-6.11 48.15,-10.5 43.35,-1.05 38.5,-6.11"/>
</g>
<!-- q -->
<g id="node3" class="node">
<title>q</title>
<ellipse fill="none" stroke="black" cx="168.29" cy="-34.5" rx="18" ry="18"/>
<text text-anchor="middle" x="168.29" y="-30.8" font-family="Times,serif" font-size="14.00">q</text>
</g>
<!-- start&#45;&gt;q -->
<g id="edge2" class="edge">
<title>start&#45;&gt;q</title>
<path fill="none" stroke="black" stroke-dasharray="5,2" d="M104.36,-34.5C115.96,-34.5 128.93,-34.5 140.07,-34.5"/>
<polygon fill="black" stroke="black" points="140.08,-38 150.08,-34.5 140.08,-31 140.08,-38"/>
<text text-anchor="middle" x="127.29" y="-38.3" font-family="Times,serif" font-size="14.00">b</text>
</g>
<!-- f -->
<g id="node4" class="node">
<title>f</title>
<ellipse fill="none" stroke="black" cx="253.29" cy="-34.5" rx="18" ry="18"/>
<ellipse fill="none" stroke="black" cx="253.29" cy="-34.5" rx="22" ry="22"/>
<text text-anchor="middle" x="253.29" y="-30.8" font-family="Times,serif" font-size="14.00">f</text>
</g>
<!-- q&#45;&gt;f -->
<g id="edge3" class="edge">
<title>q&#45;&gt;f</title>
<path fill="none" stroke="black" stroke-dasharray="5,2" d="M186.49,-34.5C196.45,-34.5 209.3,-34.5 220.99,-34.5"/>
<polygon fill="black" stroke="black" points="221.29,-38 231.29,-34.5 221.29,-31 221.29,-38"/>
<text text-anchor="middle" x="208.79" y="-38.3" font-family="Times,serif" font-size="14.00">a</text>
</g>
</g>
</svg>
