<?xml version="1.0" encoding="UTF-8" standalone="no"?>
<!DOCTYPE svg PUBLIC "-//W3C//DTD SVG 1.1//EN"
 "http://www.w3.org/Graphics/SVG/1.1/DTD/svg11.dtd">
<!-- Generated by graphviz version 2.44.0 (0)
 -->
<!-- Title: 136 Pages: 1 -->
<svg width="416pt" height="87pt"
 viewBox="0.00 0.00 415.79 87.49" xmlns="http://www.w3.org/2000/svg" xmlns:xlink="http://www.w3.org/1999/xlink">
<g id="graph0" class="graph" transform="scale(1 1) rotate(0) translate(4 83.49)">
<title>136</title>
<polygon fill="white" stroke="transparent" points="-4,4 -4,-83.49 411.79,-83.49 411.79,4 -4,4"/>
<!-- enter -->
<g id="node1" class="node">
<title>enter</title>
</g>
<!-- q -->
<g id="node2" class="node">
<title>q</title>
<ellipse fill="none" stroke="black" cx="56" cy="-39.75" rx="18" ry="18"/>
<text text-anchor="middle" x="56" y="-36.05" font-family="Times,serif" font-size="14.00">q</text>
</g>
<!-- enter&#45;&gt;q -->
<g id="edge1" class="edge">
<title>enter&#45;&gt;q:sw</title>
<path fill="none" stroke="black" d="M1.08,-26.7C2.42,-25.89 20.63,-15.11 35.42,-20.82"/>
<polygon fill="black" stroke="black" points="33.78,-23.94 44,-26.75 37.76,-18.18 33.78,-23.94"/>
</g>
<!-- f -->
<g id="node3" class="node">
<title>f</title>
<ellipse fill="none" stroke="black" cx="137" cy="-39.75" rx="18" ry="18"/>
<text text-anchor="middle" x="137" y="-36.05" font-family="Times,serif" font-size="14.00">f</text>
</g>
<!-- q&#45;&gt;f -->
<g id="edge2" class="edge">
<title>q&#45;&gt;f</title>
<path fill="none" stroke="black" stroke-dasharray="5,2" d="M74.14,-39.75C84.29,-39.75 97.37,-39.75 108.88,-39.75"/>
<polygon fill="black" stroke="black" points="108.89,-43.25 118.89,-39.75 108.89,-36.25 108.89,-43.25"/>
<text text-anchor="middle" x="96.5" y="-43.55" font-family="Times,serif" font-size="14.00">a</text>
</g>
<!-- start -->
<g id="node4" class="node">
<title>start</title>
<ellipse fill="none" stroke="black" cx="249.15" cy="-39.75" rx="33.29" ry="33.29"/>
<text text-anchor="middle" x="249.15" y="-36.05" font-family="Times,serif" font-size="14.00">start</text>
</g>
<!-- f&#45;&gt;start -->
<g id="edge3" class="edge">
<title>f&#45;&gt;start</title>
<path fill="none" stroke="black" d="M155.21,-39.75C168.77,-39.75 188.25,-39.75 205.88,-39.75"/>
<polygon fill="black" stroke="black" points="205.99,-43.25 215.99,-39.75 205.99,-36.25 205.99,-43.25"/>
<text text-anchor="middle" x="185.5" y="-43.55" font-family="Times,serif" font-size="14.00">eps</text>
</g>
<!-- newq -->
<g id="node5" class="node">
<title>newq</title>
<ellipse fill="none" stroke="black" cx="368.04" cy="-39.75" rx="35.97" ry="35.97"/>
<ellipse fill="none" stroke="black" cx="368.04" cy="-39.75" rx="40" ry="40"/>
<text text-anchor="middle" x="368.04" y="-36.05" font-family="Times,serif" font-size="14.00">newq</text>
</g>
<!-- start&#45;&gt;newq -->
<g id="edge4" class="edge">
<title>start&#45;&gt;newq</title>
<path fill="none" stroke="black" stroke-dasharray="5,2" d="M282.4,-39.75C293.37,-39.75 305.9,-39.75 317.9,-39.75"/>
<polygon fill="black" stroke="black" points="318.25,-43.25 328.25,-39.75 318.25,-36.25 318.25,-43.25"/>
<text text-anchor="middle" x="305.29" y="-43.55" font-family="Times,serif" font-size="14.00">b</text>
</g>
</g>
</svg>
