<?xml version="1.0" encoding="UTF-8" standalone="no"?>
<!DOCTYPE svg PUBLIC "-//W3C//DTD SVG 1.1//EN"
 "http://www.w3.org/Graphics/SVG/1.1/DTD/svg11.dtd">
<!-- Generated by graphviz version 2.44.0 (0)
 -->
<!-- Title: 114 Pages: 1 -->
<svg width="441pt" height="245pt"
 viewBox="0.00 0.00 441.38 245.09" xmlns="http://www.w3.org/2000/svg" xmlns:xlink="http://www.w3.org/1999/xlink">
<g id="graph0" class="graph" transform="scale(1 1) rotate(0) translate(4 241.09)">
<title>114</title>
<polygon fill="white" stroke="transparent" points="-4,4 -4,-241.09 437.38,-241.09 437.38,4 -4,4"/>
<!-- enter -->
<g id="node1" class="node">
<title>enter</title>
</g>
<!-- start0 -->
<g id="node2" class="node">
<title>start0</title>
<ellipse fill="none" stroke="black" cx="81.65" cy="-94.44" rx="39.78" ry="39.78"/>
<ellipse fill="none" stroke="black" cx="81.65" cy="-94.44" rx="43.79" ry="43.79"/>
<text text-anchor="start" x="59.15" y="-91.74" font-family="Times,serif" font-size="14.00">start</text>
<text text-anchor="start" x="94.15" y="-91.74" font-family="Times,serif" font-size="14.00" fill="red">0</text>
</g>
<!-- enter&#45;&gt;start0 -->
<g id="edge1" class="edge">
<title>enter&#45;&gt;start0:nw</title>
<path fill="none" stroke="black" d="M1.1,-125.49C2.73,-126.22 24.8,-135.86 40.74,-130.75"/>
<polygon fill="black" stroke="black" points="42.85,-133.57 49.65,-125.44 39.26,-127.55 42.85,-133.57"/>
</g>
<!-- 0 -->
<g id="node4" class="node">
<title>0</title>
<ellipse fill="none" stroke="black" cx="189.29" cy="-48.44" rx="18" ry="18"/>
<text text-anchor="middle" x="189.29" y="-44.74" font-family="Times,serif" font-size="14.00">0</text>
</g>
<!-- start0&#45;&gt;0 -->
<g id="edge2" class="edge">
<title>start0&#45;&gt;0</title>
<path fill="none" stroke="black" d="M121.99,-77.31C135.78,-71.31 150.89,-64.73 163.2,-59.37"/>
<polygon fill="black" stroke="black" points="164.62,-62.57 172.39,-55.37 161.82,-56.15 164.62,-62.57"/>
<text text-anchor="middle" x="148.29" y="-70.24" font-family="Times,serif" font-size="14.00">0</text>
</g>
<!-- 1 -->
<g id="node5" class="node">
<title>1</title>
<ellipse fill="none" stroke="black" cx="189.29" cy="-165.44" rx="18" ry="18"/>
<text text-anchor="middle" x="189.29" y="-161.74" font-family="Times,serif" font-size="14.00">1</text>
</g>
<!-- start0&#45;&gt;1 -->
<g id="edge3" class="edge">
<title>start0&#45;&gt;1</title>
<path fill="none" stroke="black" d="M118.41,-118.48C134.03,-128.97 151.87,-140.96 165.62,-150.2"/>
<polygon fill="black" stroke="black" points="163.74,-153.16 174,-155.83 167.65,-147.35 163.74,-153.16"/>
<text text-anchor="middle" x="148.29" y="-144.24" font-family="Times,serif" font-size="14.00">1</text>
</g>
<!-- start1 -->
<g id="node3" class="node">
<title>start1</title>
<ellipse fill="none" stroke="black" cx="389.74" cy="-193.44" rx="39.78" ry="39.78"/>
<ellipse fill="none" stroke="black" cx="389.74" cy="-193.44" rx="43.79" ry="43.79"/>
<text text-anchor="start" x="367.24" y="-190.74" font-family="Times,serif" font-size="14.00">start</text>
<text text-anchor="start" x="402.24" y="-190.74" font-family="Times,serif" font-size="14.00" fill="red">1</text>
</g>
<!-- a0 -->
<g id="node6" class="node">
<title>a0</title>
<ellipse fill="none" stroke="black" cx="276.69" cy="-36.44" rx="18" ry="18"/>
<text text-anchor="middle" x="276.69" y="-32.74" font-family="Times,serif" font-size="14.00">0</text>
</g>
<!-- 0&#45;&gt;a0 -->
<g id="edge4" class="edge">
<title>0&#45;&gt;a0</title>
<path fill="none" stroke="black" d="M206.04,-41.81C211.96,-39.64 218.83,-37.52 225.29,-36.44 232.68,-35.21 240.77,-34.8 248.26,-34.81"/>
<polygon fill="black" stroke="black" points="248.24,-38.31 258.31,-35.04 248.4,-31.31 248.24,-38.31"/>
<text text-anchor="middle" x="230.29" y="-40.24" font-family="Times,serif" font-size="14.00">0</text>
</g>
<!-- b1 -->
<g id="node7" class="node">
<title>b1</title>
<ellipse fill="none" stroke="black" cx="276.69" cy="-109.44" rx="18" ry="18"/>
<text text-anchor="middle" x="276.69" y="-105.74" font-family="Times,serif" font-size="14.00">1</text>
</g>
<!-- 0&#45;&gt;b1 -->
<g id="edge5" class="edge">
<title>0&#45;&gt;b1</title>
<path fill="none" stroke="black" d="M205.05,-57.93C213.92,-63.71 225.37,-71.34 235.29,-78.44 241.38,-82.8 247.86,-87.66 253.8,-92.22"/>
<polygon fill="black" stroke="black" points="251.98,-95.24 262.03,-98.59 256.26,-89.7 251.98,-95.24"/>
<text text-anchor="middle" x="230.29" y="-82.24" font-family="Times,serif" font-size="14.00">1</text>
</g>
<!-- 1&#45;&gt;b1 -->
<g id="edge8" class="edge">
<title>1&#45;&gt;b1</title>
<path fill="none" stroke="black" d="M204.78,-155.94C217.91,-147.33 237.47,-134.5 252.73,-124.5"/>
<polygon fill="black" stroke="black" points="254.69,-127.4 261.13,-118.99 250.85,-121.54 254.69,-127.4"/>
<text text-anchor="middle" x="230.29" y="-146.24" font-family="Times,serif" font-size="14.00">0</text>
</g>
<!-- b0 -->
<g id="node9" class="node">
<title>b0</title>
<ellipse fill="none" stroke="black" cx="276.69" cy="-191.44" rx="23.3" ry="23.3"/>
<text text-anchor="start" x="266.69" y="-188.74" font-family="Times,serif" font-size="14.00">0</text>
<text text-anchor="start" x="276.69" y="-188.74" font-family="Times,serif" font-size="14.00" fill="red">1</text>
</g>
<!-- 1&#45;&gt;b0 -->
<g id="edge9" class="edge">
<title>1&#45;&gt;b0</title>
<path fill="none" stroke="black" d="M206.76,-170.45C217.39,-173.69 231.57,-178.01 244.3,-181.88"/>
<polygon fill="black" stroke="black" points="243.51,-185.3 254.1,-184.87 245.55,-178.61 243.51,-185.3"/>
<text text-anchor="middle" x="230.29" y="-182.24" font-family="Times,serif" font-size="14.00">1</text>
</g>
<!-- a0&#45;&gt;start0 -->
<g id="edge6" class="edge">
<title>a0&#45;&gt;start0</title>
<path fill="none" stroke="black" d="M261.87,-26.17C241.59,-12.44 202.77,8.74 171.29,-4.44 148.49,-13.99 128.58,-32.58 113.43,-50.4"/>
<polygon fill="black" stroke="black" points="110.43,-48.54 106.82,-58.5 115.86,-52.97 110.43,-48.54"/>
<text text-anchor="middle" x="189.29" y="-8.24" font-family="Times,serif" font-size="14.00">0</text>
</g>
<!-- no -->
<g id="node8" class="node">
<title>no</title>
<ellipse fill="none" stroke="black" cx="389.74" cy="-105.44" rx="22.2" ry="22.2"/>
<text text-anchor="middle" x="389.74" y="-101.74" font-family="Times,serif" font-size="14.00">no</text>
</g>
<!-- a0&#45;&gt;no -->
<g id="edge7" class="edge">
<title>a0&#45;&gt;no</title>
<path fill="none" stroke="black" d="M292.67,-45.75C310.38,-56.76 340.21,-75.29 361.93,-88.79"/>
<polygon fill="black" stroke="black" points="360.35,-91.92 370.69,-94.23 364.04,-85.98 360.35,-91.92"/>
<text text-anchor="middle" x="323.09" y="-70.24" font-family="Times,serif" font-size="14.00">1</text>
</g>
<!-- b1&#45;&gt;start0 -->
<g id="edge11" class="edge">
<title>b1&#45;&gt;start0</title>
<path fill="none" stroke="black" d="M258.37,-108.1C231,-105.97 176.66,-101.75 135.61,-98.56"/>
<polygon fill="black" stroke="black" points="135.73,-95.06 125.49,-97.77 135.19,-102.04 135.73,-95.06"/>
<text text-anchor="middle" x="189.29" y="-107.24" font-family="Times,serif" font-size="14.00">1</text>
</g>
<!-- b1&#45;&gt;no -->
<g id="edge10" class="edge">
<title>b1&#45;&gt;no</title>
<path fill="none" stroke="black" d="M295.04,-108.82C311.66,-108.22 337.13,-107.3 357.32,-106.57"/>
<polygon fill="black" stroke="black" points="357.46,-110.07 367.32,-106.21 357.21,-103.08 357.46,-110.07"/>
<text text-anchor="middle" x="323.09" y="-111.24" font-family="Times,serif" font-size="14.00">0</text>
</g>
<!-- b0&#45;&gt;start1 -->
<g id="edge13" class="edge">
<title>b0&#45;&gt;start1</title>
<path fill="none" stroke="black" d="M300.16,-191.85C310.56,-192.03 323.4,-192.27 336.04,-192.49"/>
<polygon fill="black" stroke="black" points="336.02,-195.99 346.08,-192.67 336.15,-188.99 336.02,-195.99"/>
<text text-anchor="middle" x="323.09" y="-195.24" font-family="Times,serif" font-size="14.00">0</text>
</g>
<!-- b0&#45;&gt;no -->
<g id="edge12" class="edge">
<title>b0&#45;&gt;no</title>
<path fill="none" stroke="black" d="M295.69,-177.49C309.48,-166.8 328.98,-151.69 346.09,-138.44 351.76,-134.05 357.85,-129.33 363.61,-124.88"/>
<polygon fill="black" stroke="black" points="365.95,-127.49 371.72,-118.61 361.67,-121.96 365.95,-127.49"/>
<text text-anchor="middle" x="323.09" y="-162.24" font-family="Times,serif" font-size="14.00">1</text>
</g>
</g>
</svg>
