<?xml version="1.0" encoding="UTF-8" standalone="no"?>
<!DOCTYPE svg PUBLIC "-//W3C//DTD SVG 1.1//EN"
 "http://www.w3.org/Graphics/SVG/1.1/DTD/svg11.dtd">
<!-- Generated by graphviz version 2.42.3 (0)
 -->
<!-- Title: markov Pages: 1 -->
<svg width="613pt" height="145pt"
 viewBox="0.00 0.00 613.20 145.20" xmlns="http://www.w3.org/2000/svg" xmlns:xlink="http://www.w3.org/1999/xlink">
<g id="graph0" class="graph" transform="scale(1 1) rotate(0) translate(21.6 123.6)">
<title>markov</title>
<polygon fill="white" stroke="transparent" points="-21.6,21.6 -21.6,-123.6 591.6,-123.6 591.6,21.6 -21.6,21.6"/>
<!-- 0 -->
<g id="node1" class="node">
<title>0</title>
<ellipse fill="none" stroke="black" cx="27" cy="-26" rx="27" ry="18"/>
<text text-anchor="middle" x="27" y="-22.3" font-family="Times,serif" font-size="14.00">0</text>
</g>
<!-- 0&#45;&gt;0 -->
<g id="edge2" class="edge">
<title>0&#45;&gt;0</title>
<path fill="none" stroke="black" d="M10.94,-40.64C10.22,-46.3 15.58,-51 27,-51 31.46,-51 35,-50.28 37.61,-49.07"/>
<polygon fill="black" stroke="black" points="40.57,-50.93 43.06,-40.64 34.69,-47.13 40.57,-50.93"/>
<text text-anchor="middle" x="27" y="-54.8" font-family="Times,serif" font-size="14.00">1</text>
</g>
<!-- 1 -->
<g id="node2" class="node">
<title>1</title>
<ellipse fill="none" stroke="black" cx="199" cy="-50" rx="27" ry="18"/>
<text text-anchor="middle" x="199" y="-46.3" font-family="Times,serif" font-size="14.00">1</text>
</g>
<!-- 0&#45;&gt;1 -->
<g id="edge1" class="edge">
<title>0&#45;&gt;1</title>
<path fill="none" stroke="black" d="M52.74,-31.67C68.49,-35.1 89.35,-39.31 108,-42 125.58,-44.53 145.21,-46.39 161.64,-47.67"/>
<polygon fill="black" stroke="black" points="161.69,-51.19 171.92,-48.43 162.21,-44.2 161.69,-51.19"/>
<text text-anchor="middle" x="113" y="-46.8" font-family="Times,serif" font-size="14.00">0</text>
</g>
<!-- 1&#45;&gt;0 -->
<g id="edge3" class="edge">
<title>1&#45;&gt;0</title>
<path fill="none" stroke="black" d="M175.3,-41.26C159.5,-35.65 137.8,-28.91 118,-26 100.5,-23.43 80.88,-23.13 64.43,-23.6"/>
<polygon fill="black" stroke="black" points="64,-20.12 54.14,-24 64.27,-27.11 64,-20.12"/>
<text text-anchor="middle" x="113" y="-29.8" font-family="Times,serif" font-size="14.00">1</text>
</g>
<!-- 2 -->
<g id="node3" class="node">
<title>2</title>
<ellipse fill="none" stroke="black" cx="371" cy="-18" rx="27" ry="18"/>
<text text-anchor="middle" x="371" y="-14.3" font-family="Times,serif" font-size="14.00">2</text>
</g>
<!-- 1&#45;&gt;2 -->
<g id="edge4" class="edge">
<title>1&#45;&gt;2</title>
<path fill="none" stroke="black" d="M225.08,-45.28C254.09,-39.82 302.02,-30.8 334.76,-24.63"/>
<polygon fill="black" stroke="black" points="335.63,-28.03 344.81,-22.74 334.34,-21.15 335.63,-28.03"/>
<text text-anchor="middle" x="285" y="-37.8" font-family="Times,serif" font-size="14.00">0</text>
</g>
<!-- 2&#45;&gt;0 -->
<g id="edge5" class="edge">
<title>2&#45;&gt;0</title>
<path fill="none" stroke="black" d="M344.04,-16.45C306.2,-14.43 233.66,-11.44 172,-14 135.05,-15.54 92.92,-19.28 63.81,-22.18"/>
<polygon fill="black" stroke="black" points="63.31,-18.72 53.71,-23.21 64.01,-25.68 63.31,-18.72"/>
<text text-anchor="middle" x="199" y="-17.8" font-family="Times,serif" font-size="14.00">1</text>
</g>
<!-- 3 -->
<g id="node4" class="node">
<title>3</title>
<ellipse fill="none" stroke="black" cx="543" cy="-18" rx="27" ry="18"/>
<text text-anchor="middle" x="543" y="-14.3" font-family="Times,serif" font-size="14.00">3</text>
</g>
<!-- 2&#45;&gt;3 -->
<g id="edge6" class="edge">
<title>2&#45;&gt;3</title>
<path fill="none" stroke="black" d="M398.19,-18C426.89,-18 473.14,-18 505.42,-18"/>
<polygon fill="black" stroke="black" points="505.78,-21.5 515.78,-18 505.78,-14.5 505.78,-21.5"/>
<text text-anchor="middle" x="457" y="-21.8" font-family="Times,serif" font-size="14.00">0</text>
</g>
<!-- 3&#45;&gt;3 -->
<g id="edge7" class="edge">
<title>3&#45;&gt;3</title>
<path fill="none" stroke="black" d="M535.06,-35.52C535.65,-39.81 538.3,-43 543,-43 543.29,-43 543.58,-42.99 543.86,-42.96"/>
<polygon fill="black" stroke="black" points="546.58,-45.18 550.94,-35.52 541.51,-40.36 546.58,-45.18"/>
<text text-anchor="middle" x="543" y="-46.8" font-family="Times,serif" font-size="14.00">1</text>
</g>
<!-- 3&#45;&gt;3 -->
<g id="edge8" class="edge">
<title>3&#45;&gt;3</title>
<path fill="none" stroke="black" d="M528.61,-33.25C523.93,-45.06 528.72,-58 543,-58 553.26,-58 558.63,-51.32 559.09,-43.17"/>
<polygon fill="black" stroke="black" points="562.53,-42.51 557.39,-33.25 555.63,-43.7 562.53,-42.51"/>
<text text-anchor="middle" x="543" y="-61.8" font-family="Times,serif" font-size="14.00">0</text>
</g>
</g>
</svg>
