<?xml version="1.0" encoding="UTF-8" standalone="no"?>
<!DOCTYPE svg PUBLIC "-//W3C//DTD SVG 1.1//EN"
 "http://www.w3.org/Graphics/SVG/1.1/DTD/svg11.dtd">
<!-- Generated by graphviz version 2.42.3 (0)
 -->
<!-- Title: markov2 Pages: 1 -->
<svg width="613pt" height="145pt"
 viewBox="0.00 0.00 613.20 145.20" xmlns="http://www.w3.org/2000/svg" xmlns:xlink="http://www.w3.org/1999/xlink">
<g id="page0,1_graph0" class="graph" transform="scale(1 1) rotate(0) translate(21.6 123.6)">
<title>markov2</title>
<polygon fill="white" stroke="transparent" points="-21.6,21.6 -21.6,-123.6 591.6,-123.6 591.6,21.6 -21.6,21.6"/>
<!-- 0 -->
<g id="node1" class="node">
<title>0</title>
<ellipse fill="none" stroke="black" cx="27" cy="-18" rx="27" ry="18"/>
<text text-anchor="middle" x="27" y="-14.3" font-family="Times,serif" font-size="14.00">0</text>
</g>
<!-- 0&#45;&gt;0 -->
<g id="edge2" class="edge">
<title>0&#45;&gt;0</title>
<path fill="none" stroke="black" d="M10.94,-32.64C10.22,-38.3 15.58,-43 27,-43 31.46,-43 35,-42.28 37.61,-41.07"/>
<polygon fill="black" stroke="black" points="40.57,-42.93 43.06,-32.64 34.69,-39.13 40.57,-42.93"/>
<text text-anchor="middle" x="27" y="-46.8" font-family="Times,serif" font-size="14.00">1</text>
</g>
<!-- 1 -->
<g id="node2" class="node">
<title>1</title>
<ellipse fill="none" stroke="black" cx="199" cy="-18" rx="27" ry="18"/>
<text text-anchor="middle" x="199" y="-14.3" font-family="Times,serif" font-size="14.00">1</text>
</g>
<!-- 0&#45;&gt;1 -->
<g id="edge1" class="edge">
<title>0&#45;&gt;1</title>
<path fill="none" stroke="black" d="M54.19,-18C82.89,-18 129.14,-18 161.42,-18"/>
<polygon fill="black" stroke="black" points="161.78,-21.5 171.78,-18 161.78,-14.5 161.78,-21.5"/>
<text text-anchor="middle" x="113" y="-21.8" font-family="Times,serif" font-size="14.00">0</text>
</g>
<!-- 1&#45;&gt;1 -->
<g id="edge3" class="edge">
<title>1&#45;&gt;1</title>
<path fill="none" stroke="black" d="M182.94,-32.64C182.22,-38.3 187.58,-43 199,-43 203.46,-43 207,-42.28 209.61,-41.07"/>
<polygon fill="black" stroke="black" points="212.57,-42.93 215.06,-32.64 206.69,-39.13 212.57,-42.93"/>
<text text-anchor="middle" x="199" y="-46.8" font-family="Times,serif" font-size="14.00">0</text>
</g>
<!-- 2 -->
<g id="node3" class="node">
<title>2</title>
<ellipse fill="none" stroke="black" cx="371" cy="-18" rx="27" ry="18"/>
<text text-anchor="middle" x="371" y="-14.3" font-family="Times,serif" font-size="14.00">2</text>
</g>
<!-- 1&#45;&gt;2 -->
<g id="edge4" class="edge">
<title>1&#45;&gt;2</title>
<path fill="none" stroke="black" d="M225.99,-19.58C243.96,-20.5 268.43,-21.4 290,-21 304.28,-20.73 320,-20.2 333.69,-19.65"/>
<polygon fill="black" stroke="black" points="333.86,-23.15 343.7,-19.23 333.57,-16.15 333.86,-23.15"/>
<text text-anchor="middle" x="285" y="-24.8" font-family="Times,serif" font-size="14.00">1</text>
</g>
<!-- 2&#45;&gt;1 -->
<g id="edge5" class="edge">
<title>2&#45;&gt;1</title>
<path fill="none" stroke="black" d="M344.91,-12.86C329.2,-9.9 308.51,-6.49 290,-5 271.5,-3.51 251,-6.13 234.25,-9.4"/>
<polygon fill="black" stroke="black" points="233.41,-6 224.35,-11.49 234.86,-12.85 233.41,-6"/>
<text text-anchor="middle" x="285" y="-8.8" font-family="Times,serif" font-size="14.00">0</text>
</g>
<!-- 3 -->
<g id="node4" class="node">
<title>3</title>
<ellipse fill="none" stroke="black" cx="543" cy="-18" rx="27" ry="18"/>
<text text-anchor="middle" x="543" y="-14.3" font-family="Times,serif" font-size="14.00">3</text>
</g>
<!-- 2&#45;&gt;3 -->
<g id="edge6" class="edge">
<title>2&#45;&gt;3</title>
<path fill="none" stroke="black" d="M398.19,-18C426.89,-18 473.14,-18 505.42,-18"/>
<polygon fill="black" stroke="black" points="505.78,-21.5 515.78,-18 505.78,-14.5 505.78,-21.5"/>
<text text-anchor="middle" x="457" y="-21.8" font-family="Times,serif" font-size="14.00">1</text>
</g>
<!-- 3&#45;&gt;3 -->
<g id="edge7" class="edge">
<title>3&#45;&gt;3</title>
<path fill="none" stroke="black" d="M535.06,-35.52C535.65,-39.81 538.3,-43 543,-43 543.29,-43 543.58,-42.99 543.86,-42.96"/>
<polygon fill="black" stroke="black" points="546.58,-45.18 550.94,-35.52 541.51,-40.36 546.58,-45.18"/>
<text text-anchor="middle" x="543" y="-46.8" font-family="Times,serif" font-size="14.00">0</text>
</g>
<!-- 3&#45;&gt;3 -->
<g id="edge8" class="edge">
<title>3&#45;&gt;3</title>
<path fill="none" stroke="black" d="M528.61,-33.25C523.93,-45.06 528.72,-58 543,-58 553.26,-58 558.63,-51.32 559.09,-43.17"/>
<polygon fill="black" stroke="black" points="562.53,-42.51 557.39,-33.25 555.63,-43.7 562.53,-42.51"/>
<text text-anchor="middle" x="543" y="-61.8" font-family="Times,serif" font-size="14.00">1</text>
</g>
</g>
</svg>
