<?xml version="1.0" encoding="UTF-8" standalone="no"?>
<!DOCTYPE svg PUBLIC "-//W3C//DTD SVG 1.1//EN"
 "http://www.w3.org/Graphics/SVG/1.1/DTD/svg11.dtd">
<!-- Generated by graphviz version 2.42.3 (0)
 -->
<!-- Title: 91 Pages: 1 -->
<svg width="207pt" height="132pt"
 viewBox="0.00 0.00 207.20 132.04" xmlns="http://www.w3.org/2000/svg" xmlns:xlink="http://www.w3.org/1999/xlink">
<g id="page0,1_graph0" class="graph" transform="scale(1 1) rotate(0) translate(21.6 110.44)">
<title>91</title>
<polygon fill="white" stroke="transparent" points="-21.6,21.6 -21.6,-110.44 185.6,-110.44 185.6,21.6 -21.6,21.6"/>
<!-- enter -->
<g id="node1" class="node">
<title>enter</title>
</g>
<!-- 0 -->
<g id="node2" class="node">
<title>0</title>
<ellipse fill="none" stroke="black" cx="60" cy="-47.84" rx="18" ry="18"/>
<ellipse fill="none" stroke="black" cx="60" cy="-47.84" rx="22" ry="22"/>
<text text-anchor="middle" x="60" y="-44.14" font-family="Times,serif" font-size="14.00">0</text>
</g>
<!-- enter&#45;&gt;0 -->
<g id="edge1" class="edge">
<title>enter&#45;&gt;0:sw</title>
<path fill="none" stroke="black" d="M1.08,-31.79C2.48,-30.89 21.56,-18.9 36.7,-25.55"/>
<polygon fill="black" stroke="black" points="34.92,-28.58 45,-31.84 39.15,-23.01 34.92,-28.58"/>
</g>
<!-- 1 -->
<g id="node3" class="node">
<title>1</title>
<ellipse fill="none" stroke="black" cx="146" cy="-32.84" rx="18" ry="18"/>
<text text-anchor="middle" x="146" y="-29.14" font-family="Times,serif" font-size="14.00">1</text>
</g>
<!-- 0&#45;&gt;1 -->
<g id="edge2" class="edge">
<title>0&#45;&gt;1:nw</title>
<path fill="none" stroke="black" d="M81.36,-53.96C94.25,-56.73 110.83,-58.14 123.54,-51.86"/>
<polygon fill="black" stroke="black" points="125.88,-54.49 132,-45.84 121.82,-48.79 125.88,-54.49"/>
<text text-anchor="middle" x="105" y="-59.64" font-family="Times,serif" font-size="14.00">0</text>
</g>
<!-- 0&#45;&gt;1 -->
<g id="edge3" class="edge">
<title>0&#45;&gt;1:n</title>
<path fill="none" stroke="black" d="M77.43,-61.33C84.03,-65.92 91.97,-70.49 100,-72.84 117.86,-78.07 137.69,-75.65 143.97,-61.9"/>
<polygon fill="black" stroke="black" points="147.46,-62.34 146,-51.84 140.59,-60.95 147.46,-62.34"/>
<text text-anchor="middle" x="105" y="-77.64" font-family="Times,serif" font-size="14.00">1</text>
</g>
<!-- 1&#45;&gt;0 -->
<g id="edge4" class="edge">
<title>1&#45;&gt;0:se</title>
<path fill="none" stroke="black" d="M128.83,-26.8C116.2,-23.04 98.64,-19.95 85.38,-26.05"/>
<polygon fill="black" stroke="black" points="83.24,-23.28 77,-31.84 87.22,-29.04 83.24,-23.28"/>
<text text-anchor="middle" x="105" y="-25.64" font-family="Times,serif" font-size="14.00">0</text>
</g>
<!-- 1&#45;&gt;0 -->
<g id="edge5" class="edge">
<title>1&#45;&gt;0:s</title>
<path fill="none" stroke="black" d="M133.4,-19.7C127.16,-13.62 118.91,-7.05 110,-3.84 90.87,3.06 68.43,0.52 61.88,-14.91"/>
<polygon fill="black" stroke="black" points="58.42,-14.36 60,-24.84 65.3,-15.67 58.42,-14.36"/>
<text text-anchor="middle" x="105" y="-7.64" font-family="Times,serif" font-size="14.00">1</text>
</g>
</g>
</svg>
