<?xml version="1.0" encoding="UTF-8" standalone="no"?>
<!DOCTYPE svg PUBLIC "-//W3C//DTD SVG 1.1//EN"
 "http://www.w3.org/Graphics/SVG/1.1/DTD/svg11.dtd">
<!-- Generated by graphviz version 2.42.3 (0)
 -->
<!-- Title: 92 Pages: 1 -->
<svg width="289pt" height="162pt"
 viewBox="0.00 0.00 289.20 162.20" xmlns="http://www.w3.org/2000/svg" xmlns:xlink="http://www.w3.org/1999/xlink">
<g id="page0,1_graph0" class="graph" transform="scale(1 1) rotate(0) translate(21.6 140.6)">
<title>92</title>
<polygon fill="white" stroke="transparent" points="-21.6,21.6 -21.6,-140.6 267.6,-140.6 267.6,21.6 -21.6,21.6"/>
<!-- enter -->
<g id="node1" class="node">
<title>enter</title>
</g>
<!-- 0 -->
<g id="node2" class="node">
<title>0</title>
<ellipse fill="none" stroke="black" cx="60" cy="-34" rx="18" ry="18"/>
<ellipse fill="none" stroke="black" cx="60" cy="-34" rx="22" ry="22"/>
<text text-anchor="middle" x="60" y="-30.3" font-family="Times,serif" font-size="14.00">0</text>
</g>
<!-- enter&#45;&gt;0 -->
<g id="edge1" class="edge">
<title>enter&#45;&gt;0:sw</title>
<path fill="none" stroke="black" d="M1.08,-17.95C2.48,-17.05 21.56,-5.05 36.7,-11.7"/>
<polygon fill="black" stroke="black" points="34.92,-14.74 45,-18 39.15,-9.17 34.92,-14.74"/>
</g>
<!-- 0&#45;&gt;0 -->
<g id="edge3" class="edge">
<title>0&#45;&gt;0</title>
<path fill="none" stroke="black" d="M52.55,-54.72C52.12,-63.03 54.61,-70 60,-70 62.95,-70 65.03,-67.91 66.24,-64.67"/>
<polygon fill="black" stroke="black" points="69.71,-65.07 67.45,-54.72 62.77,-64.22 69.71,-65.07"/>
<text text-anchor="middle" x="60" y="-73.8" font-family="Times,serif" font-size="14.00">1</text>
</g>
<!-- 1 -->
<g id="node3" class="node">
<title>1</title>
<ellipse fill="none" stroke="black" cx="146" cy="-68" rx="18" ry="18"/>
<text text-anchor="middle" x="146" y="-64.3" font-family="Times,serif" font-size="14.00">1</text>
</g>
<!-- 0&#45;&gt;1 -->
<g id="edge2" class="edge">
<title>0&#45;&gt;1</title>
<path fill="none" stroke="black" d="M80.91,-42.06C92.54,-46.77 107.35,-52.76 119.79,-57.8"/>
<polygon fill="black" stroke="black" points="118.58,-61.08 129.16,-61.59 121.21,-54.59 118.58,-61.08"/>
<text text-anchor="middle" x="105" y="-56.8" font-family="Times,serif" font-size="14.00">0</text>
</g>
<!-- 1&#45;&gt;1 -->
<g id="edge5" class="edge">
<title>1&#45;&gt;1</title>
<path fill="none" stroke="black" d="M138.72,-84.46C137.71,-92.68 140.14,-100 146,-100 149.2,-100 151.38,-97.81 152.53,-94.48"/>
<polygon fill="black" stroke="black" points="156.03,-94.7 153.28,-84.46 149.05,-94.18 156.03,-94.7"/>
<text text-anchor="middle" x="146" y="-103.8" font-family="Times,serif" font-size="14.00">1</text>
</g>
<!-- 2 -->
<g id="node4" class="node">
<title>2</title>
<ellipse fill="none" stroke="black" cx="228" cy="-34" rx="18" ry="18"/>
<text text-anchor="middle" x="228" y="-30.3" font-family="Times,serif" font-size="14.00">2</text>
</g>
<!-- 1&#45;&gt;2 -->
<g id="edge4" class="edge">
<title>1&#45;&gt;2</title>
<path fill="none" stroke="black" d="M162.81,-61.28C173.98,-56.53 189.19,-50.07 202.01,-44.62"/>
<polygon fill="black" stroke="black" points="203.39,-47.84 211.23,-40.7 200.66,-41.39 203.39,-47.84"/>
<text text-anchor="middle" x="187" y="-56.8" font-family="Times,serif" font-size="14.00">0</text>
</g>
<!-- 2&#45;&gt;0 -->
<g id="edge6" class="edge">
<title>2&#45;&gt;0</title>
<path fill="none" stroke="black" d="M209.92,-31.93C197.26,-30.51 179.58,-28.74 164,-28 148.02,-27.24 143.98,-27.29 128,-28 116.33,-28.52 103.55,-29.55 92.31,-30.61"/>
<polygon fill="black" stroke="black" points="91.7,-27.16 82.09,-31.62 92.39,-34.12 91.7,-27.16"/>
<text text-anchor="middle" x="146" y="-31.8" font-family="Times,serif" font-size="14.00">0</text>
</g>
<!-- 2&#45;&gt;2 -->
<g id="edge7" class="edge">
<title>2&#45;&gt;2</title>
<path fill="none" stroke="black" d="M220.72,-50.46C219.71,-58.68 222.14,-66 228,-66 231.2,-66 233.38,-63.81 234.53,-60.48"/>
<polygon fill="black" stroke="black" points="238.03,-60.7 235.28,-50.46 231.05,-60.18 238.03,-60.7"/>
<text text-anchor="middle" x="228" y="-69.8" font-family="Times,serif" font-size="14.00">1</text>
</g>
</g>
</svg>
