<?xml version="1.0" encoding="UTF-8" standalone="no"?>
<!DOCTYPE svg PUBLIC "-//W3C//DTD SVG 1.1//EN"
 "http://www.w3.org/Graphics/SVG/1.1/DTD/svg11.dtd">
<!-- Generated by graphviz version 2.42.3 (0)
 -->
<!-- Title: 93 Pages: 1 -->
<svg width="297pt" height="167pt"
 viewBox="0.00 0.00 297.20 167.20" xmlns="http://www.w3.org/2000/svg" xmlns:xlink="http://www.w3.org/1999/xlink">
<g id="page0,1_graph0" class="graph" transform="scale(1 1) rotate(0) translate(21.6 145.6)">
<title>93</title>
<polygon fill="white" stroke="transparent" points="-21.6,21.6 -21.6,-145.6 275.6,-145.6 275.6,21.6 -21.6,21.6"/>
<!-- enter -->
<g id="node1" class="node">
<title>enter</title>
</g>
<!-- 0 -->
<g id="node2" class="node">
<title>0</title>
<ellipse fill="none" stroke="black" cx="56" cy="-31" rx="18" ry="18"/>
<text text-anchor="middle" x="56" y="-27.3" font-family="Times,serif" font-size="14.00">0</text>
</g>
<!-- enter&#45;&gt;0 -->
<g id="edge1" class="edge">
<title>enter&#45;&gt;0:sw</title>
<path fill="none" stroke="black" d="M1.08,-17.95C2.42,-17.14 20.63,-6.36 35.42,-12.07"/>
<polygon fill="black" stroke="black" points="33.78,-15.2 44,-18 37.76,-9.44 33.78,-15.2"/>
</g>
<!-- 0&#45;&gt;0 -->
<g id="edge3" class="edge">
<title>0&#45;&gt;0</title>
<path fill="none" stroke="black" d="M49.41,-47.79C48.6,-55.87 50.8,-63 56,-63 58.76,-63 60.68,-60.99 61.75,-57.89"/>
<polygon fill="black" stroke="black" points="65.24,-58.05 62.59,-47.79 58.27,-57.47 65.24,-58.05"/>
<text text-anchor="middle" x="56" y="-66.8" font-family="Times,serif" font-size="14.00">1</text>
</g>
<!-- 1 -->
<g id="node3" class="node">
<title>1</title>
<ellipse fill="none" stroke="black" cx="142" cy="-69" rx="18" ry="18"/>
<ellipse fill="none" stroke="black" cx="142" cy="-69" rx="22" ry="22"/>
<text text-anchor="middle" x="142" y="-65.3" font-family="Times,serif" font-size="14.00">1</text>
</g>
<!-- 0&#45;&gt;1 -->
<g id="edge2" class="edge">
<title>0&#45;&gt;1</title>
<path fill="none" stroke="black" d="M72.8,-38.15C83.97,-43.2 99.25,-50.11 112.51,-56.11"/>
<polygon fill="black" stroke="black" points="111.18,-59.35 121.73,-60.28 114.06,-52.97 111.18,-59.35"/>
<text text-anchor="middle" x="97" y="-54.8" font-family="Times,serif" font-size="14.00">0</text>
</g>
<!-- 1&#45;&gt;1 -->
<g id="edge5" class="edge">
<title>1&#45;&gt;1</title>
<path fill="none" stroke="black" d="M133.8,-89.72C133.34,-98.03 136.07,-105 142,-105 145.24,-105 147.53,-102.91 148.86,-99.67"/>
<polygon fill="black" stroke="black" points="152.33,-100.09 150.2,-89.72 145.4,-99.16 152.33,-100.09"/>
<text text-anchor="middle" x="142" y="-108.8" font-family="Times,serif" font-size="14.00">1</text>
</g>
<!-- 2 -->
<g id="node4" class="node">
<title>2</title>
<ellipse fill="none" stroke="black" cx="232" cy="-31" rx="18" ry="18"/>
<ellipse fill="none" stroke="black" cx="232" cy="-31" rx="22" ry="22"/>
<text text-anchor="middle" x="232" y="-27.3" font-family="Times,serif" font-size="14.00">2</text>
</g>
<!-- 1&#45;&gt;2 -->
<g id="edge4" class="edge">
<title>1&#45;&gt;2</title>
<path fill="none" stroke="black" d="M162.53,-60.57C174.15,-55.55 189.11,-49.09 202.08,-43.49"/>
<polygon fill="black" stroke="black" points="203.73,-46.59 211.52,-39.41 200.96,-40.16 203.73,-46.59"/>
<text text-anchor="middle" x="187" y="-54.8" font-family="Times,serif" font-size="14.00">0</text>
</g>
<!-- 2&#45;&gt;0 -->
<g id="edge6" class="edge">
<title>2&#45;&gt;0</title>
<path fill="none" stroke="black" d="M209.91,-28.62C196.73,-27.26 179.4,-25.69 164,-25 144.46,-24.13 139.53,-24.07 120,-25 108.19,-25.56 95.18,-26.71 84.06,-27.85"/>
<polygon fill="black" stroke="black" points="83.65,-24.38 74.08,-28.93 84.4,-31.34 83.65,-24.38"/>
<text text-anchor="middle" x="142" y="-28.8" font-family="Times,serif" font-size="14.00">0</text>
</g>
<!-- 2&#45;&gt;2 -->
<g id="edge7" class="edge">
<title>2&#45;&gt;2</title>
<path fill="none" stroke="black" d="M223.8,-51.72C223.34,-60.03 226.07,-67 232,-67 235.24,-67 237.53,-64.91 238.86,-61.67"/>
<polygon fill="black" stroke="black" points="242.33,-62.09 240.2,-51.72 235.4,-61.16 242.33,-62.09"/>
<text text-anchor="middle" x="232" y="-70.8" font-family="Times,serif" font-size="14.00">1</text>
</g>
</g>
</svg>
