<?xml version="1.0" encoding="UTF-8" standalone="no"?>
<!DOCTYPE svg PUBLIC "-//W3C//DTD SVG 1.1//EN"
 "http://www.w3.org/Graphics/SVG/1.1/DTD/svg11.dtd">
<!-- Generated by graphviz version 2.42.3 (0)
 -->
<!-- Title: 94 Pages: 1 -->
<svg width="354pt" height="142pt"
 viewBox="0.00 0.00 354.40 142.00" xmlns="http://www.w3.org/2000/svg" xmlns:xlink="http://www.w3.org/1999/xlink">
<g id="page0,1_graph0" class="graph" transform="scale(1 1) rotate(0) translate(4 138)">
<title>94</title>
<polygon fill="white" stroke="transparent" points="-4,4 -4,-138 350.4,-138 350.4,4 -4,4"/>
<!-- enter -->
<g id="node1" class="node">
<title>enter</title>
</g>
<!-- 0 -->
<g id="node2" class="node">
<title>0</title>
<ellipse fill="none" stroke="black" cx="60" cy="-75" rx="18" ry="18"/>
<ellipse fill="none" stroke="black" cx="60" cy="-75" rx="22" ry="22"/>
<text text-anchor="middle" x="60" y="-71.3" font-family="Times,serif" font-size="14.00">0</text>
</g>
<!-- enter&#45;&gt;0 -->
<g id="edge1" class="edge">
<title>enter&#45;&gt;0:sw</title>
<path fill="none" stroke="black" d="M1.08,-58.95C2.48,-58.05 21.56,-46.05 36.7,-52.7"/>
<polygon fill="black" stroke="black" points="34.92,-55.74 45,-59 39.15,-50.17 34.92,-55.74"/>
</g>
<!-- 0&#45;&gt;0 -->
<g id="edge3" class="edge">
<title>0&#45;&gt;0:w</title>
<path fill="none" stroke="black" d="M66.49,-96.28C66.8,-108.11 61.8,-119 49,-119 31.77,-119 28.68,-99.26 33.64,-84.07"/>
<polygon fill="black" stroke="black" points="36.82,-85.53 38,-75 30.51,-82.5 36.82,-85.53"/>
<text text-anchor="middle" x="60" y="-122.8" font-family="Times,serif" font-size="14.00">1</text>
</g>
<!-- 1 -->
<g id="node3" class="node">
<title>1</title>
<ellipse fill="none" stroke="black" cx="150" cy="-95" rx="18" ry="18"/>
<ellipse fill="none" stroke="black" cx="150" cy="-95" rx="22" ry="22"/>
<text text-anchor="middle" x="150" y="-91.3" font-family="Times,serif" font-size="14.00">1</text>
</g>
<!-- 0&#45;&gt;1 -->
<g id="edge2" class="edge">
<title>0&#45;&gt;1</title>
<path fill="none" stroke="black" d="M80.05,-84.19C86.28,-86.81 93.31,-89.4 100,-91 105.6,-92.34 111.66,-93.26 117.54,-93.87"/>
<polygon fill="black" stroke="black" points="117.55,-97.38 127.79,-94.69 118.1,-90.41 117.55,-97.38"/>
<text text-anchor="middle" x="105" y="-95.8" font-family="Times,serif" font-size="14.00">0</text>
</g>
<!-- 1&#45;&gt;0 -->
<g id="edge4" class="edge">
<title>1&#45;&gt;0</title>
<path fill="none" stroke="black" d="M132.11,-81.79C125.58,-77.47 117.8,-73.21 110,-71 104.21,-69.36 97.9,-68.93 91.79,-69.16"/>
<polygon fill="black" stroke="black" points="91.45,-65.68 81.82,-70.09 92.1,-72.65 91.45,-65.68"/>
<text text-anchor="middle" x="105" y="-74.8" font-family="Times,serif" font-size="14.00">1</text>
</g>
<!-- 2 -->
<g id="node4" class="node">
<title>2</title>
<ellipse fill="none" stroke="black" cx="240" cy="-55" rx="18" ry="18"/>
<ellipse fill="none" stroke="black" cx="240" cy="-55" rx="22" ry="22"/>
<text text-anchor="middle" x="240" y="-51.3" font-family="Times,serif" font-size="14.00">2</text>
</g>
<!-- 1&#45;&gt;2 -->
<g id="edge5" class="edge">
<title>1&#45;&gt;2</title>
<path fill="none" stroke="black" d="M170.53,-86.12C182.15,-80.84 197.11,-74.04 210.08,-68.14"/>
<polygon fill="black" stroke="black" points="211.87,-71.18 219.52,-63.85 208.97,-64.8 211.87,-71.18"/>
<text text-anchor="middle" x="195" y="-79.8" font-family="Times,serif" font-size="14.00">0</text>
</g>
<!-- 2&#45;&gt;0 -->
<g id="edge6" class="edge">
<title>2&#45;&gt;0</title>
<path fill="none" stroke="black" d="M218.33,-50.23C195.88,-45.8 159.07,-40.77 128,-47 114.67,-49.67 100.69,-55.06 88.96,-60.4"/>
<polygon fill="black" stroke="black" points="87.23,-57.35 79.71,-64.82 90.24,-63.67 87.23,-57.35"/>
<text text-anchor="middle" x="150" y="-50.8" font-family="Times,serif" font-size="14.00">1</text>
</g>
<!-- 3 -->
<g id="node5" class="node">
<title>3</title>
<ellipse fill="none" stroke="black" cx="326" cy="-55" rx="18" ry="18"/>
<text text-anchor="middle" x="326" y="-51.3" font-family="Times,serif" font-size="14.00">3</text>
</g>
<!-- 2&#45;&gt;3 -->
<g id="edge7" class="edge">
<title>2&#45;&gt;3</title>
<path fill="none" stroke="black" d="M262.2,-55C272.88,-55 285.96,-55 297.41,-55"/>
<polygon fill="black" stroke="black" points="297.77,-58.5 307.77,-55 297.77,-51.5 297.77,-58.5"/>
<text text-anchor="middle" x="285" y="-58.8" font-family="Times,serif" font-size="14.00">0</text>
</g>
<!-- 3&#45;&gt;3 -->
<g id="edge8" class="edge">
<title>3&#45;&gt;3:ne</title>
<path fill="none" stroke="black" d="M319.5,-71.85C317.95,-83.52 321.67,-95 332.5,-95 345.13,-95 348.09,-86.4 344.3,-76.84"/>
<polygon fill="black" stroke="black" points="347.14,-74.78 339,-68 341.14,-78.38 347.14,-74.78"/>
<text text-anchor="middle" x="326" y="-98.8" font-family="Times,serif" font-size="14.00">1</text>
</g>
<!-- 3&#45;&gt;3 -->
<g id="edge9" class="edge">
<title>3&#45;&gt;3:sw</title>
<path fill="none" stroke="black" d="M332.5,-38.15C334.05,-26.48 330.33,-15 319.5,-15 306.87,-15 303.91,-23.6 307.7,-33.16"/>
<polygon fill="black" stroke="black" points="304.86,-35.22 313,-42 310.86,-31.62 304.86,-35.22"/>
<text text-anchor="middle" x="326" y="-3.8" font-family="Times,serif" font-size="14.00">0</text>
</g>
</g>
</svg>
