<?xml version="1.0" encoding="UTF-8" standalone="no"?>
<!DOCTYPE svg PUBLIC "-//W3C//DTD SVG 1.1//EN"
 "http://www.w3.org/Graphics/SVG/1.1/DTD/svg11.dtd">
<!-- Generated by graphviz version 2.42.3 (0)
 -->
<!-- Title: 95 Pages: 1 -->
<svg width="338pt" height="142pt"
 viewBox="0.00 0.00 337.56 142.00" xmlns="http://www.w3.org/2000/svg" xmlns:xlink="http://www.w3.org/1999/xlink">
<g id="page0,1_graph0" class="graph" transform="scale(1 1) rotate(0) translate(4 138)">
<title>95</title>
<polygon fill="white" stroke="transparent" points="-4,4 -4,-138 333.56,-138 333.56,4 -4,4"/>
<!-- enter -->
<g id="node1" class="node">
<title>enter</title>
</g>
<!-- 0 -->
<g id="node3" class="node">
<title>0</title>
<ellipse fill="none" stroke="black" cx="56" cy="-79" rx="18" ry="18"/>
<text text-anchor="middle" x="56" y="-75.3" font-family="Times,serif" font-size="14.00">0</text>
</g>
<!-- enter&#45;&gt;0 -->
<g id="edge1" class="edge">
<title>enter&#45;&gt;0:sw</title>
<path fill="none" stroke="black" d="M1.08,-65.95C2.42,-65.14 20.63,-54.36 35.42,-60.07"/>
<polygon fill="black" stroke="black" points="33.78,-63.2 44,-66 37.76,-57.44 33.78,-63.2"/>
</g>
<!-- 3 -->
<g id="node2" class="node">
<title>3</title>
<ellipse fill="none" stroke="black" cx="306" cy="-59" rx="18" ry="18"/>
<ellipse fill="none" stroke="black" cx="306" cy="-59" rx="22" ry="22"/>
<text text-anchor="middle" x="306" y="-55.3" font-family="Times,serif" font-size="14.00">3</text>
</g>
<!-- 3&#45;&gt;3 -->
<g id="edge8" class="edge">
<title>3&#45;&gt;3:ne</title>
<path fill="none" stroke="black" d="M298.65,-79.82C297.78,-91.83 302.27,-103 314,-103 328.99,-103 332.15,-93.87 327.42,-83.47"/>
<polygon fill="black" stroke="black" points="330.34,-81.54 322,-75 324.44,-85.31 330.34,-81.54"/>
<text text-anchor="middle" x="306" y="-106.8" font-family="Times,serif" font-size="14.00">1</text>
</g>
<!-- 3&#45;&gt;3 -->
<g id="edge9" class="edge">
<title>3&#45;&gt;3:sw</title>
<path fill="none" stroke="black" d="M313.35,-38.18C314.22,-26.17 309.73,-15 298,-15 283.01,-15 279.85,-24.13 284.58,-34.53"/>
<polygon fill="black" stroke="black" points="281.66,-36.46 290,-43 287.56,-32.69 281.66,-36.46"/>
<text text-anchor="middle" x="306" y="-3.8" font-family="Times,serif" font-size="14.00">0</text>
</g>
<!-- 0&#45;&gt;0 -->
<g id="edge3" class="edge">
<title>0&#45;&gt;0:w</title>
<path fill="none" stroke="black" d="M61.76,-96.27C62.78,-107.79 58.67,-119 47,-119 32.66,-119 29.74,-102.07 33.71,-88.44"/>
<polygon fill="black" stroke="black" points="37.04,-89.55 38,-79 30.67,-86.65 37.04,-89.55"/>
<text text-anchor="middle" x="56" y="-122.8" font-family="Times,serif" font-size="14.00">1</text>
</g>
<!-- 1 -->
<g id="node4" class="node">
<title>1</title>
<ellipse fill="none" stroke="black" cx="138" cy="-95" rx="18" ry="18"/>
<text text-anchor="middle" x="138" y="-91.3" font-family="Times,serif" font-size="14.00">1</text>
</g>
<!-- 0&#45;&gt;1 -->
<g id="edge2" class="edge">
<title>0&#45;&gt;1</title>
<path fill="none" stroke="black" d="M72.18,-87.66C78.16,-90.6 85.21,-93.52 92,-95 97.63,-96.23 103.75,-96.75 109.61,-96.86"/>
<polygon fill="black" stroke="black" points="109.78,-100.36 119.72,-96.71 109.67,-93.36 109.78,-100.36"/>
<text text-anchor="middle" x="97" y="-99.8" font-family="Times,serif" font-size="14.00">0</text>
</g>
<!-- 1&#45;&gt;0 -->
<g id="edge4" class="edge">
<title>1&#45;&gt;0</title>
<path fill="none" stroke="black" d="M123.09,-84.83C116.95,-80.95 109.44,-76.98 102,-75 96.31,-73.49 90.1,-73.21 84.15,-73.56"/>
<polygon fill="black" stroke="black" points="83.43,-70.13 73.9,-74.77 84.24,-77.08 83.43,-70.13"/>
<text text-anchor="middle" x="97" y="-78.8" font-family="Times,serif" font-size="14.00">1</text>
</g>
<!-- 2 -->
<g id="node5" class="node">
<title>2</title>
<ellipse fill="none" stroke="black" cx="220" cy="-59" rx="18" ry="18"/>
<text text-anchor="middle" x="220" y="-55.3" font-family="Times,serif" font-size="14.00">2</text>
</g>
<!-- 1&#45;&gt;2 -->
<g id="edge5" class="edge">
<title>1&#45;&gt;2</title>
<path fill="none" stroke="black" d="M154.81,-87.89C165.98,-82.86 181.19,-76.01 194.01,-70.25"/>
<polygon fill="black" stroke="black" points="195.54,-73.39 203.23,-66.1 192.67,-67.01 195.54,-73.39"/>
<text text-anchor="middle" x="179" y="-82.8" font-family="Times,serif" font-size="14.00">0</text>
</g>
<!-- 2&#45;&gt;3 -->
<g id="edge7" class="edge">
<title>2&#45;&gt;3</title>
<path fill="none" stroke="black" d="M238.4,-59C248.59,-59 261.75,-59 273.68,-59"/>
<polygon fill="black" stroke="black" points="273.74,-62.5 283.74,-59 273.74,-55.5 273.74,-62.5"/>
<text text-anchor="middle" x="261" y="-62.8" font-family="Times,serif" font-size="14.00">0</text>
</g>
<!-- 2&#45;&gt;0 -->
<g id="edge6" class="edge">
<title>2&#45;&gt;0</title>
<path fill="none" stroke="black" d="M202.35,-54.76C182.52,-50.37 148.51,-44.95 120,-51 106.46,-53.87 92.3,-59.86 80.84,-65.57"/>
<polygon fill="black" stroke="black" points="79.17,-62.49 71.93,-70.22 82.41,-68.7 79.17,-62.49"/>
<text text-anchor="middle" x="138" y="-54.8" font-family="Times,serif" font-size="14.00">1</text>
</g>
</g>
</svg>
