<?xml version="1.0" encoding="UTF-8" standalone="no"?>
<!DOCTYPE svg PUBLIC "-//W3C//DTD SVG 1.1//EN"
 "http://www.w3.org/Graphics/SVG/1.1/DTD/svg11.dtd">
<!-- Generated by graphviz version 2.42.3 (0)
 -->
<!-- Title: 96 Pages: 1 -->
<svg width="418pt" height="228pt"
 viewBox="0.00 0.00 418.00 228.00" xmlns="http://www.w3.org/2000/svg" xmlns:xlink="http://www.w3.org/1999/xlink">
<g id="page0,1_graph0" class="graph" transform="scale(1 1) rotate(0) translate(4 224)">
<title>96</title>
<polygon fill="white" stroke="transparent" points="-4,4 -4,-224 414,-224 414,4 -4,4"/>
<!-- enter -->
<g id="node1" class="node">
<title>enter</title>
</g>
<!-- 0 -->
<g id="node2" class="node">
<title>0</title>
<ellipse fill="none" stroke="black" cx="60" cy="-114" rx="18" ry="18"/>
<ellipse fill="none" stroke="black" cx="60" cy="-114" rx="22" ry="22"/>
<text text-anchor="middle" x="60" y="-110.3" font-family="Times,serif" font-size="14.00">0</text>
</g>
<!-- enter&#45;&gt;0 -->
<g id="edge1" class="edge">
<title>enter&#45;&gt;0:sw</title>
<path fill="none" stroke="black" d="M1.08,-97.95C2.48,-97.05 21.56,-85.05 36.7,-91.7"/>
<polygon fill="black" stroke="black" points="34.92,-94.74 45,-98 39.15,-89.17 34.92,-94.74"/>
</g>
<!-- 0&#45;&gt;0 -->
<g id="edge3" class="edge">
<title>0&#45;&gt;0:w</title>
<path fill="none" stroke="black" d="M66.49,-135.28C66.8,-147.11 61.8,-158 49,-158 31.77,-158 28.68,-138.26 33.64,-123.07"/>
<polygon fill="black" stroke="black" points="36.82,-124.53 38,-114 30.51,-121.5 36.82,-124.53"/>
<text text-anchor="middle" x="60" y="-161.8" font-family="Times,serif" font-size="14.00">0</text>
</g>
<!-- 1 -->
<g id="node3" class="node">
<title>1</title>
<ellipse fill="none" stroke="black" cx="146" cy="-158" rx="18" ry="18"/>
<text text-anchor="middle" x="146" y="-154.3" font-family="Times,serif" font-size="14.00">1</text>
</g>
<!-- 0&#45;&gt;1 -->
<g id="edge2" class="edge">
<title>0&#45;&gt;1</title>
<path fill="none" stroke="black" d="M80.06,-123.98C92.02,-130.25 107.55,-138.39 120.43,-145.13"/>
<polygon fill="black" stroke="black" points="119.18,-148.42 129.66,-149.96 122.42,-142.22 119.18,-148.42"/>
<text text-anchor="middle" x="105" y="-141.8" font-family="Times,serif" font-size="14.00">1</text>
</g>
<!-- 2 -->
<g id="node4" class="node">
<title>2</title>
<ellipse fill="none" stroke="black" cx="228" cy="-104" rx="18" ry="18"/>
<text text-anchor="middle" x="228" y="-100.3" font-family="Times,serif" font-size="14.00">2</text>
</g>
<!-- 1&#45;&gt;2 -->
<g id="edge4" class="edge">
<title>1&#45;&gt;2</title>
<path fill="none" stroke="black" d="M161.28,-148.15C167.61,-143.79 175.16,-138.62 182,-134 189.11,-129.19 196.88,-123.99 203.93,-119.3"/>
<polygon fill="black" stroke="black" points="205.99,-122.13 212.38,-113.68 202.11,-116.3 205.99,-122.13"/>
<text text-anchor="middle" x="187" y="-137.8" font-family="Times,serif" font-size="14.00">0</text>
</g>
<!-- 3 -->
<g id="node5" class="node">
<title>3</title>
<ellipse fill="none" stroke="black" cx="392" cy="-141" rx="18" ry="18"/>
<text text-anchor="middle" x="392" y="-137.3" font-family="Times,serif" font-size="14.00">3</text>
</g>
<!-- 1&#45;&gt;3 -->
<g id="edge5" class="edge">
<title>1&#45;&gt;3</title>
<path fill="none" stroke="black" d="M159.92,-170.01C166.12,-175 173.94,-180.25 182,-183 255.2,-207.94 286.58,-217.08 356,-183 364.21,-178.97 371.19,-172.03 376.71,-164.94"/>
<polygon fill="black" stroke="black" points="379.61,-166.9 382.51,-156.71 373.89,-162.87 379.61,-166.9"/>
<text text-anchor="middle" x="269" y="-208.8" font-family="Times,serif" font-size="14.00">1</text>
</g>
<!-- 2&#45;&gt;0 -->
<g id="edge7" class="edge">
<title>2&#45;&gt;0</title>
<path fill="none" stroke="black" d="M209.67,-105.04C181.85,-106.72 126.85,-110.03 92.1,-112.13"/>
<polygon fill="black" stroke="black" points="91.8,-108.64 82.02,-112.73 92.22,-115.63 91.8,-108.64"/>
<text text-anchor="middle" x="146" y="-112.8" font-family="Times,serif" font-size="14.00">1</text>
</g>
<!-- 4 -->
<g id="node6" class="node">
<title>4</title>
<ellipse fill="none" stroke="black" cx="310" cy="-55" rx="18" ry="18"/>
<text text-anchor="middle" x="310" y="-51.3" font-family="Times,serif" font-size="14.00">4</text>
</g>
<!-- 2&#45;&gt;4 -->
<g id="edge6" class="edge">
<title>2&#45;&gt;4</title>
<path fill="none" stroke="black" d="M243.67,-95.01C255.33,-87.87 271.86,-77.75 285.37,-69.47"/>
<polygon fill="black" stroke="black" points="287.45,-72.3 294.15,-64.1 283.79,-66.33 287.45,-72.3"/>
<text text-anchor="middle" x="269" y="-85.8" font-family="Times,serif" font-size="14.00">0</text>
</g>
<!-- 3&#45;&gt;1 -->
<g id="edge8" class="edge">
<title>3&#45;&gt;1</title>
<path fill="none" stroke="black" d="M374.35,-144.86C368.57,-146.06 362.03,-147.26 356,-148 291.1,-156 214.14,-157.69 174.17,-157.99"/>
<polygon fill="black" stroke="black" points="174.12,-154.49 164.14,-158.05 174.16,-161.49 174.12,-154.49"/>
<text text-anchor="middle" x="269" y="-158.8" font-family="Times,serif" font-size="14.00">0</text>
</g>
<!-- 3&#45;&gt;2 -->
<g id="edge9" class="edge">
<title>3&#45;&gt;2</title>
<path fill="none" stroke="black" d="M374.12,-137.15C346.01,-130.72 289.36,-117.79 255.76,-110.11"/>
<polygon fill="black" stroke="black" points="256.25,-106.63 245.73,-107.82 254.7,-113.46 256.25,-106.63"/>
<text text-anchor="middle" x="310" y="-129.8" font-family="Times,serif" font-size="14.00">1</text>
</g>
<!-- 4&#45;&gt;3 -->
<g id="edge10" class="edge">
<title>4&#45;&gt;3</title>
<path fill="none" stroke="black" d="M326.37,-63.04C335.67,-68.41 347.37,-76.11 356,-85 364.81,-94.07 372.52,-105.71 378.45,-116.03"/>
<polygon fill="black" stroke="black" points="375.5,-117.93 383.37,-125.02 381.64,-114.57 375.5,-117.93"/>
<text text-anchor="middle" x="351" y="-88.8" font-family="Times,serif" font-size="14.00">0</text>
</g>
<!-- 4&#45;&gt;4 -->
<g id="edge11" class="edge">
<title>4:sw&#45;&gt;4:e</title>
<path fill="none" stroke="black" d="M297,-42C287,-29.67 287,-15 312.5,-15 333.02,-15 337.03,-32.27 332.6,-45.96"/>
<polygon fill="black" stroke="black" points="329.42,-44.5 328,-55 335.65,-47.67 329.42,-44.5"/>
<text text-anchor="middle" x="310" y="-3.8" font-family="Times,serif" font-size="14.00">1</text>
</g>
</g>
</svg>
