<?xml version="1.0" encoding="UTF-8" standalone="no"?>
<!DOCTYPE svg PUBLIC "-//W3C//DTD SVG 1.1//EN"
 "http://www.w3.org/Graphics/SVG/1.1/DTD/svg11.dtd">
<!-- Generated by graphviz version 2.42.3 (0)
 -->
<!-- Title: 97 Pages: 1 -->
<svg width="937pt" height="421pt"
 viewBox="0.00 0.00 937.45 421.42" xmlns="http://www.w3.org/2000/svg" xmlns:xlink="http://www.w3.org/1999/xlink">
<g id="page0,1_graph0" class="graph" transform="scale(1 1) rotate(0) translate(4 417.42)">
<title>97</title>
<polygon fill="white" stroke="transparent" points="-4,4 -4,-417.42 933.45,-417.42 933.45,4 -4,4"/>
<!-- enter -->
<g id="node1" class="node">
<title>enter</title>
</g>
<!-- 00 -->
<g id="node2" class="node">
<title>00</title>
<ellipse fill="none" stroke="black" cx="44.75" cy="-55.42" rx="22.96" ry="22.96"/>
<ellipse fill="none" stroke="black" cx="44.75" cy="-55.42" rx="27" ry="27"/>
<text text-anchor="middle" x="44.75" y="-51.72" font-family="Times,serif" font-size="14.00">00</text>
</g>
<!-- enter&#45;&gt;00 -->
<g id="edge1" class="edge">
<title>enter&#45;&gt;00:sw</title>
<path fill="none" stroke="black" d="M1.05,-36.38C1.76,-35.71 10.58,-27.56 18.91,-29.91"/>
<polygon fill="black" stroke="black" points="16.82,-32.73 26.75,-36.42 21.29,-27.34 16.82,-32.73"/>
</g>
<!-- 00&#45;&gt;00 -->
<g id="edge2" class="edge">
<title>00&#45;&gt;00</title>
<path fill="none" stroke="black" d="M38.38,-81.68C38.51,-89.8 40.63,-96.17 44.75,-96.17 46.87,-96.17 48.46,-94.48 49.53,-91.72"/>
<polygon fill="black" stroke="black" points="53.01,-92.11 51.12,-81.68 46.1,-91.01 53.01,-92.11"/>
<text text-anchor="middle" x="44.75" y="-99.97" font-family="Times,serif" font-size="14.00">0</text>
</g>
<!-- 11 -->
<g id="node3" class="node">
<title>11</title>
<ellipse fill="none" stroke="black" cx="120.24" cy="-107.42" rx="23" ry="23"/>
<text text-anchor="middle" x="120.24" y="-103.72" font-family="Times,serif" font-size="14.00">11</text>
</g>
<!-- 00&#45;&gt;11 -->
<g id="edge3" class="edge">
<title>00&#45;&gt;11</title>
<path fill="none" stroke="black" d="M67.01,-70.46C75.15,-76.22 84.53,-82.86 93.07,-88.91"/>
<polygon fill="black" stroke="black" points="91.08,-91.78 101.26,-94.7 95.12,-86.07 91.08,-91.78"/>
<text text-anchor="middle" x="84.5" y="-90.22" font-family="Times,serif" font-size="14.00">1</text>
</g>
<!-- 21 -->
<g id="node10" class="node">
<title>21</title>
<ellipse fill="none" stroke="black" cx="191.74" cy="-154.42" rx="23" ry="23"/>
<text text-anchor="middle" x="191.74" y="-150.72" font-family="Times,serif" font-size="14.00">21</text>
</g>
<!-- 11&#45;&gt;21 -->
<g id="edge10" class="edge">
<title>11&#45;&gt;21</title>
<path fill="none" stroke="black" d="M139.5,-119.77C146.95,-124.81 155.7,-130.73 163.85,-136.24"/>
<polygon fill="black" stroke="black" points="162.12,-139.29 172.36,-141.99 166.04,-133.49 162.12,-139.29"/>
<text text-anchor="middle" x="155.99" y="-137.22" font-family="Times,serif" font-size="14.00">0</text>
</g>
<!-- 32 -->
<g id="node11" class="node">
<title>32</title>
<ellipse fill="none" stroke="black" cx="763.71" cy="-135.42" rx="23" ry="23"/>
<text text-anchor="middle" x="763.71" y="-131.72" font-family="Times,serif" font-size="14.00">32</text>
</g>
<!-- 11&#45;&gt;32 -->
<g id="edge11" class="edge">
<title>11&#45;&gt;32</title>
<path fill="none" stroke="black" d="M140.36,-96.53C153.96,-89.79 172.92,-82.42 190.74,-82.42 190.74,-82.42 190.74,-82.42 442.98,-82.42 550.24,-82.42 675.05,-111.81 731.8,-126.82"/>
<polygon fill="black" stroke="black" points="731.02,-130.24 741.58,-129.45 732.83,-123.48 731.02,-130.24"/>
<text text-anchor="middle" x="441.98" y="-86.22" font-family="Times,serif" font-size="14.00">1</text>
</g>
<!-- 01 -->
<g id="node4" class="node">
<title>01</title>
<ellipse fill="none" stroke="black" cx="477.72" cy="-187.42" rx="23" ry="23"/>
<text text-anchor="middle" x="477.72" y="-183.72" font-family="Times,serif" font-size="14.00">01</text>
</g>
<!-- 01&#45;&gt;01 -->
<g id="edge4" class="edge">
<title>01&#45;&gt;01</title>
<path fill="none" stroke="black" d="M471.36,-209.31C471.15,-217.46 473.27,-224.17 477.72,-224.17 480.09,-224.17 481.79,-222.28 482.84,-219.28"/>
<polygon fill="black" stroke="black" points="486.32,-219.66 484.08,-209.31 479.38,-218.8 486.32,-219.66"/>
<text text-anchor="middle" x="477.72" y="-227.97" font-family="Times,serif" font-size="14.00">0</text>
</g>
<!-- 12 -->
<g id="node5" class="node">
<title>12</title>
<ellipse fill="none" stroke="black" cx="549.22" cy="-188.42" rx="23" ry="23"/>
<text text-anchor="middle" x="549.22" y="-184.72" font-family="Times,serif" font-size="14.00">12</text>
</g>
<!-- 01&#45;&gt;12 -->
<g id="edge5" class="edge">
<title>01&#45;&gt;12</title>
<path fill="none" stroke="black" d="M500.71,-187.74C505.53,-187.81 510.73,-187.88 515.85,-187.96"/>
<polygon fill="black" stroke="black" points="516.09,-191.46 526.14,-188.11 516.19,-184.46 516.09,-191.46"/>
<text text-anchor="middle" x="513.47" y="-191.22" font-family="Times,serif" font-size="14.00">1</text>
</g>
<!-- 22 -->
<g id="node12" class="node">
<title>22</title>
<ellipse fill="none" stroke="black" cx="620.72" cy="-58.42" rx="23" ry="23"/>
<text text-anchor="middle" x="620.72" y="-54.72" font-family="Times,serif" font-size="14.00">22</text>
</g>
<!-- 12&#45;&gt;22 -->
<g id="edge12" class="edge">
<title>12&#45;&gt;22</title>
<path fill="none" stroke="black" d="M559.59,-167.83C565.25,-155.66 572.74,-140.03 579.97,-126.42 587.07,-113.05 595.47,-98.52 602.71,-86.33"/>
<polygon fill="black" stroke="black" points="605.85,-87.91 607.98,-77.53 599.84,-84.31 605.85,-87.91"/>
<text text-anchor="middle" x="584.97" y="-130.22" font-family="Times,serif" font-size="14.00">0</text>
</g>
<!-- 30 -->
<g id="node13" class="node">
<title>30</title>
<ellipse fill="none" stroke="black" cx="835.2" cy="-266.42" rx="23" ry="23"/>
<text text-anchor="middle" x="835.2" y="-262.72" font-family="Times,serif" font-size="14.00">30</text>
</g>
<!-- 12&#45;&gt;30 -->
<g id="edge13" class="edge">
<title>12&#45;&gt;30</title>
<path fill="none" stroke="black" d="M569.02,-200.23C572.57,-202.15 576.32,-203.98 579.97,-205.42 657.02,-235.96 753.5,-253.97 802.49,-261.79"/>
<polygon fill="black" stroke="black" points="802.06,-265.26 812.48,-263.34 803.14,-258.35 802.06,-265.26"/>
<text text-anchor="middle" x="692.21" y="-248.22" font-family="Times,serif" font-size="14.00">1</text>
</g>
<!-- 02 -->
<g id="node6" class="node">
<title>02</title>
<ellipse fill="none" stroke="black" cx="263.24" cy="-222.42" rx="23" ry="23"/>
<text text-anchor="middle" x="263.24" y="-218.72" font-family="Times,serif" font-size="14.00">02</text>
</g>
<!-- 02&#45;&gt;02 -->
<g id="edge6" class="edge">
<title>02&#45;&gt;02</title>
<path fill="none" stroke="black" d="M256.87,-244.31C256.67,-252.46 258.79,-259.17 263.24,-259.17 265.6,-259.17 267.31,-257.28 268.35,-254.28"/>
<polygon fill="black" stroke="black" points="271.83,-254.66 269.6,-244.31 264.89,-253.8 271.83,-254.66"/>
<text text-anchor="middle" x="263.24" y="-262.97" font-family="Times,serif" font-size="14.00">0</text>
</g>
<!-- 10 -->
<g id="node7" class="node">
<title>10</title>
<ellipse fill="none" stroke="black" cx="334.73" cy="-291.42" rx="23" ry="23"/>
<text text-anchor="middle" x="334.73" y="-287.72" font-family="Times,serif" font-size="14.00">10</text>
</g>
<!-- 02&#45;&gt;10 -->
<g id="edge7" class="edge">
<title>02&#45;&gt;10</title>
<path fill="none" stroke="black" d="M280.01,-238.08C289.07,-247.08 300.62,-258.55 310.68,-268.54"/>
<polygon fill="black" stroke="black" points="308.46,-271.27 318.02,-275.83 313.39,-266.3 308.46,-271.27"/>
<text text-anchor="middle" x="298.98" y="-264.22" font-family="Times,serif" font-size="14.00">1</text>
</g>
<!-- 20 -->
<g id="node8" class="node">
<title>20</title>
<ellipse fill="none" stroke="black" cx="406.23" cy="-219.42" rx="23" ry="23"/>
<text text-anchor="middle" x="406.23" y="-215.72" font-family="Times,serif" font-size="14.00">20</text>
</g>
<!-- 10&#45;&gt;20 -->
<g id="edge8" class="edge">
<title>10&#45;&gt;20</title>
<path fill="none" stroke="black" d="M351.16,-275.44C360.42,-265.84 372.38,-253.46 382.69,-242.77"/>
<polygon fill="black" stroke="black" points="385.42,-244.98 389.85,-235.36 380.38,-240.12 385.42,-244.98"/>
<text text-anchor="middle" x="370.48" y="-263.22" font-family="Times,serif" font-size="14.00">0</text>
</g>
<!-- 31 -->
<g id="node9" class="node">
<title>31</title>
<ellipse fill="none" stroke="black" cx="906.7" cy="-286.42" rx="23" ry="23"/>
<text text-anchor="middle" x="906.7" y="-282.72" font-family="Times,serif" font-size="14.00">31</text>
</g>
<!-- 10&#45;&gt;31 -->
<g id="edge9" class="edge">
<title>10&#45;&gt;31</title>
<path fill="none" stroke="black" d="M352.49,-305.86C365.85,-315.87 385.53,-327.42 405.23,-327.42 405.23,-327.42 405.23,-327.42 585.97,-327.42 707.63,-327.42 737.84,-315.8 857.95,-296.42 863.25,-295.57 868.85,-294.52 874.28,-293.44"/>
<polygon fill="black" stroke="black" points="875.31,-296.8 884.39,-291.33 873.88,-289.94 875.31,-296.8"/>
<text text-anchor="middle" x="620.72" y="-330.22" font-family="Times,serif" font-size="14.00">1</text>
</g>
<!-- 20&#45;&gt;01 -->
<g id="edge15" class="edge">
<title>20&#45;&gt;01</title>
<path fill="none" stroke="black" d="M427.33,-210.17C433.47,-207.34 440.36,-204.17 447,-201.11"/>
<polygon fill="black" stroke="black" points="448.81,-204.13 456.43,-196.77 445.88,-197.77 448.81,-204.13"/>
<text text-anchor="middle" x="441.98" y="-208.22" font-family="Times,serif" font-size="14.00">1</text>
</g>
<!-- 40 -->
<g id="node14" class="node">
<title>40</title>
<ellipse fill="none" stroke="black" cx="763.71" cy="-198.42" rx="23" ry="23"/>
<text text-anchor="middle" x="763.71" y="-194.72" font-family="Times,serif" font-size="14.00">40</text>
</g>
<!-- 20&#45;&gt;40 -->
<g id="edge14" class="edge">
<title>20&#45;&gt;40</title>
<path fill="none" stroke="black" d="M424.15,-233.85C432.78,-240.27 443.79,-247.11 454.98,-250.42 468.64,-254.47 672.07,-268.14 714.96,-249.42 726.57,-244.36 736.65,-234.94 744.52,-225.56"/>
<polygon fill="black" stroke="black" points="747.46,-227.48 750.85,-217.44 741.94,-223.18 747.46,-227.48"/>
<text text-anchor="middle" x="584.97" y="-262.22" font-family="Times,serif" font-size="14.00">0</text>
</g>
<!-- 31&#45;&gt;11 -->
<g id="edge22" class="edge">
<title>31&#45;&gt;11</title>
<path fill="none" stroke="black" d="M902.13,-308.82C895.5,-341.5 877.97,-398.42 836.2,-398.42 190.74,-398.42 190.74,-398.42 190.74,-398.42 138.16,-398.42 125.28,-216.39 122.19,-140.27"/>
<polygon fill="black" stroke="black" points="125.69,-140.12 121.82,-130.26 118.69,-140.38 125.69,-140.12"/>
<text text-anchor="middle" x="513.47" y="-402.22" font-family="Times,serif" font-size="14.00">0</text>
</g>
<!-- 31&#45;&gt;22 -->
<g id="edge23" class="edge">
<title>31&#45;&gt;22</title>
<path fill="none" stroke="black" d="M904.57,-263.46C900.78,-199.23 885.85,-22.42 836.2,-22.42 691.21,-22.42 691.21,-22.42 691.21,-22.42 675.36,-22.42 659.52,-29.9 646.97,-38.04"/>
<polygon fill="black" stroke="black" points="644.66,-35.39 638.47,-43.99 648.67,-41.13 644.66,-35.39"/>
<text text-anchor="middle" x="763.71" y="-26.22" font-family="Times,serif" font-size="14.00">1</text>
</g>
<!-- 21&#45;&gt;02 -->
<g id="edge17" class="edge">
<title>21&#45;&gt;02</title>
<path fill="none" stroke="black" d="M208.51,-169.85C217.45,-178.6 228.8,-189.7 238.76,-199.45"/>
<polygon fill="black" stroke="black" points="236.45,-202.09 246.05,-206.58 241.35,-197.09 236.45,-202.09"/>
<text text-anchor="middle" x="227.49" y="-196.22" font-family="Times,serif" font-size="14.00">1</text>
</g>
<!-- 41 -->
<g id="node15" class="node">
<title>41</title>
<ellipse fill="none" stroke="black" cx="835.2" cy="-106.42" rx="23" ry="23"/>
<text text-anchor="middle" x="835.2" y="-102.72" font-family="Times,serif" font-size="14.00">41</text>
</g>
<!-- 21&#45;&gt;41 -->
<g id="edge16" class="edge">
<title>21&#45;&gt;41</title>
<path fill="none" stroke="black" d="M208.27,-138.31C221.4,-126.46 241.37,-112.42 262.24,-112.42 262.24,-112.42 262.24,-112.42 442.98,-112.42 521.33,-112.42 523.79,-53.67 597.97,-28.42 658.9,-7.68 676.8,-10.55 740.96,-5.42 761.12,-3.81 769.37,5.4 786.46,-5.42 810.01,-20.34 822.16,-50.34 828.3,-73.79"/>
<polygon fill="black" stroke="black" points="824.93,-74.78 830.64,-83.7 831.74,-73.16 824.93,-74.78"/>
<text text-anchor="middle" x="513.47" y="-95.22" font-family="Times,serif" font-size="14.00">0</text>
</g>
<!-- 32&#45;&gt;12 -->
<g id="edge24" class="edge">
<title>32&#45;&gt;12</title>
<path fill="none" stroke="black" d="M750.32,-153.98C743.33,-164.16 735.5,-175.02 732.96,-176.42 685.51,-202.62 620.22,-199.25 581.89,-194.07"/>
<polygon fill="black" stroke="black" points="582.24,-190.58 571.83,-192.59 581.22,-197.51 582.24,-190.58"/>
<text text-anchor="middle" x="656.46" y="-200.22" font-family="Times,serif" font-size="14.00">0</text>
</g>
<!-- 32&#45;&gt;20 -->
<g id="edge25" class="edge">
<title>32&#45;&gt;20</title>
<path fill="none" stroke="black" d="M745.65,-149.32C741.7,-151.82 737.36,-154.06 732.96,-155.42 614.91,-191.88 565.64,-102.48 454.98,-157.42 440.97,-164.38 429.91,-177.61 421.98,-190.06"/>
<polygon fill="black" stroke="black" points="418.83,-188.51 416.75,-198.9 424.86,-192.07 418.83,-188.51"/>
<text text-anchor="middle" x="584.97" y="-152.22" font-family="Times,serif" font-size="14.00">1</text>
</g>
<!-- 22&#45;&gt;00 -->
<g id="edge19" class="edge">
<title>22&#45;&gt;00</title>
<path fill="none" stroke="black" d="M599.82,-49.03C586.18,-43.44 567.49,-37.42 550.22,-37.42 119.24,-37.42 119.24,-37.42 119.24,-37.42 106.21,-37.42 92.24,-40.13 80.02,-43.44"/>
<polygon fill="black" stroke="black" points="78.83,-40.14 70.22,-46.32 80.8,-46.86 78.83,-40.14"/>
<text text-anchor="middle" x="334.73" y="-41.22" font-family="Times,serif" font-size="14.00">1</text>
</g>
<!-- 42 -->
<g id="node16" class="node">
<title>42</title>
<ellipse fill="none" stroke="black" cx="692.21" cy="-67.42" rx="23" ry="23"/>
<text text-anchor="middle" x="692.21" y="-63.72" font-family="Times,serif" font-size="14.00">42</text>
</g>
<!-- 22&#45;&gt;42 -->
<g id="edge18" class="edge">
<title>22&#45;&gt;42</title>
<path fill="none" stroke="black" d="M643.32,-61.22C648.37,-61.88 653.86,-62.59 659.25,-63.29"/>
<polygon fill="black" stroke="black" points="659.01,-66.78 669.38,-64.6 659.91,-59.84 659.01,-66.78"/>
<text text-anchor="middle" x="656.46" y="-68.22" font-family="Times,serif" font-size="14.00">0</text>
</g>
<!-- 30&#45;&gt;10 -->
<g id="edge20" class="edge">
<title>30&#45;&gt;10</title>
<path fill="none" stroke="black" d="M815.09,-277.32C801.49,-284.05 782.53,-291.42 764.71,-291.42 655.46,-291.42 655.46,-291.42 655.46,-291.42 608.65,-291.42 597.03,-295.42 550.22,-295.42 405.23,-295.42 405.23,-295.42 405.23,-295.42 393.01,-295.42 379.61,-294.8 367.87,-294.05"/>
<polygon fill="black" stroke="black" points="367.84,-290.54 357.62,-293.33 367.35,-297.52 367.84,-290.54"/>
<text text-anchor="middle" x="584.97" y="-298.22" font-family="Times,serif" font-size="14.00">0</text>
</g>
<!-- 30&#45;&gt;21 -->
<g id="edge21" class="edge">
<title>30&#45;&gt;21</title>
<path fill="none" stroke="black" d="M818.99,-282.6C814.56,-286.78 809.54,-291.05 804.46,-294.42 797.16,-299.27 794.47,-298.9 786.46,-302.42 701.05,-339.92 679.24,-364.42 585.97,-364.42 262.24,-364.42 262.24,-364.42 262.24,-364.42 225.28,-364.42 204.62,-245.75 196.63,-186.83"/>
<polygon fill="black" stroke="black" points="200.1,-186.36 195.33,-176.9 193.16,-187.27 200.1,-186.36"/>
<text text-anchor="middle" x="513.47" y="-368.22" font-family="Times,serif" font-size="14.00">1</text>
</g>
<!-- 40&#45;&gt;30 -->
<g id="edge26" class="edge">
<title>40&#45;&gt;30</title>
<path fill="none" stroke="black" d="M785.02,-206.61C791.7,-209.94 798.84,-214.23 804.46,-219.42 810.01,-224.56 814.96,-230.96 819.14,-237.36"/>
<polygon fill="black" stroke="black" points="816.19,-239.24 824.36,-245.98 822.17,-235.62 816.19,-239.24"/>
<text text-anchor="middle" x="799.46" y="-223.22" font-family="Times,serif" font-size="14.00">0</text>
</g>
<!-- 40&#45;&gt;41 -->
<g id="edge27" class="edge">
<title>40&#45;&gt;41</title>
<path fill="none" stroke="black" d="M778.11,-180.69C788.49,-166.94 803.03,-147.7 814.7,-132.24"/>
<polygon fill="black" stroke="black" points="817.61,-134.2 820.85,-124.11 812.02,-129.98 817.61,-134.2"/>
<text text-anchor="middle" x="799.46" y="-161.22" font-family="Times,serif" font-size="14.00">1</text>
</g>
<!-- 41&#45;&gt;31 -->
<g id="edge28" class="edge">
<title>41&#45;&gt;31</title>
<path fill="none" stroke="black" d="M844.31,-127.42C856.52,-159.04 879.69,-219.06 893.81,-255.63"/>
<polygon fill="black" stroke="black" points="890.67,-257.21 897.54,-265.28 897.2,-254.69 890.67,-257.21"/>
<text text-anchor="middle" x="870.95" y="-210.22" font-family="Times,serif" font-size="14.00">0</text>
</g>
<!-- 41&#45;&gt;42 -->
<g id="edge29" class="edge">
<title>41&#45;&gt;42</title>
<path fill="none" stroke="black" d="M813.38,-99.11C805.05,-96.27 795.34,-93.07 786.46,-90.42 762.9,-83.4 756.84,-82.25 732.96,-76.42 730.28,-75.77 727.5,-75.11 724.7,-74.45"/>
<polygon fill="black" stroke="black" points="725.23,-70.98 714.7,-72.15 723.66,-77.8 725.23,-70.98"/>
<text text-anchor="middle" x="763.71" y="-94.22" font-family="Times,serif" font-size="14.00">1</text>
</g>
<!-- 42&#45;&gt;32 -->
<g id="edge30" class="edge">
<title>42&#45;&gt;32</title>
<path fill="none" stroke="black" d="M714,-74.64C720.56,-77.59 727.52,-81.5 732.96,-86.42 739.08,-91.96 744.36,-99.06 748.7,-106.12"/>
<polygon fill="black" stroke="black" points="745.71,-107.95 753.68,-114.93 751.8,-104.5 745.71,-107.95"/>
<text text-anchor="middle" x="727.96" y="-90.22" font-family="Times,serif" font-size="14.00">0</text>
</g>
<!-- 42&#45;&gt;40 -->
<g id="edge31" class="edge">
<title>42&#45;&gt;40</title>
<path fill="none" stroke="black" d="M702.34,-88.09C711.43,-108.2 726.15,-139.44 740.96,-165.42 742.09,-167.41 743.3,-169.44 744.54,-171.46"/>
<polygon fill="black" stroke="black" points="741.77,-173.63 750.09,-180.19 747.67,-169.87 741.77,-173.63"/>
<text text-anchor="middle" x="727.96" y="-153.22" font-family="Times,serif" font-size="14.00">1</text>
</g>
</g>
</svg>
