<?xml version="1.0" encoding="UTF-8" standalone="no"?>
<!DOCTYPE svg PUBLIC "-//W3C//DTD SVG 1.1//EN"
 "http://www.w3.org/Graphics/SVG/1.1/DTD/svg11.dtd">
<!-- Generated by graphviz version 2.42.3 (0)
 -->
<!-- Title: 97 Pages: 1 -->
<svg width="789pt" height="664pt"
 viewBox="0.00 0.00 788.98 663.52" xmlns="http://www.w3.org/2000/svg" xmlns:xlink="http://www.w3.org/1999/xlink">
<g id="page0,1_graph0" class="graph" transform="scale(1 1) rotate(0) translate(4 659.52)">
<title>97</title>
<polygon fill="white" stroke="transparent" points="-4,4 -4,-659.52 784.98,-659.52 784.98,4 -4,4"/>
<g id="clust1" class="cluster">
<title>cluster_0</title>
<polygon fill="none" stroke="black" points="66,-305 66,-475 517.98,-475 517.98,-305 66,-305"/>
</g>
<g id="clust2" class="cluster">
<title>cluster_1</title>
<polygon fill="none" stroke="black" points="201.5,-135 201.5,-297 645.48,-297 645.48,-135 201.5,-135"/>
</g>
<g id="clust3" class="cluster">
<title>cluster_2</title>
<polygon fill="none" stroke="black" points="328.99,-483 328.99,-645 772.98,-645 772.98,-483 328.99,-483"/>
</g>
<!-- enter -->
<g id="node1" class="node">
<title>enter</title>
</g>
<!-- 00 -->
<g id="node2" class="node">
<title>00</title>
<ellipse fill="none" stroke="black" cx="100.75" cy="-407" rx="22.96" ry="22.96"/>
<ellipse fill="none" stroke="black" cx="100.75" cy="-407" rx="27" ry="27"/>
<text text-anchor="middle" x="100.75" y="-403.3" font-family="Times,serif" font-size="14.00">00</text>
</g>
<!-- enter&#45;&gt;00 -->
<g id="edge1" class="edge">
<title>enter&#45;&gt;00:sw</title>
<path fill="none" stroke="black" d="M1.15,-387.91C4.06,-386.24 47.07,-361.96 75.24,-381.32"/>
<polygon fill="black" stroke="black" points="72.95,-383.97 82.75,-388 77.6,-378.74 72.95,-383.97"/>
</g>
<!-- 00&#45;&gt;00 -->
<g id="edge2" class="edge">
<title>00&#45;&gt;00</title>
<path fill="none" stroke="black" d="M89.57,-431.33C87.76,-444.14 91.48,-455.75 100.75,-455.75 107.48,-455.75 111.29,-449.62 112.17,-441.36"/>
<polygon fill="black" stroke="black" points="115.67,-441.24 111.93,-431.33 108.67,-441.41 115.67,-441.24"/>
<text text-anchor="middle" x="100.75" y="-459.55" font-family="Times,serif" font-size="14.00">0</text>
</g>
<!-- 11 -->
<g id="node8" class="node">
<title>11</title>
<ellipse fill="none" stroke="black" cx="232.24" cy="-166" rx="23" ry="23"/>
<text text-anchor="middle" x="232.24" y="-162.3" font-family="Times,serif" font-size="14.00">11</text>
</g>
<!-- 00&#45;&gt;11 -->
<g id="edge3" class="edge">
<title>00&#45;&gt;11</title>
<path fill="none" stroke="black" d="M117.47,-385.95C120.98,-380.85 124.53,-375.33 127.5,-370 167.79,-297.65 156.74,-268.67 201.5,-199 203.64,-195.66 206.12,-192.34 208.72,-189.15"/>
<polygon fill="black" stroke="black" points="211.37,-191.43 215.29,-181.59 206.09,-186.84 211.37,-191.43"/>
<text text-anchor="middle" x="168.5" y="-283.8" font-family="Times,serif" font-size="14.00">1</text>
</g>
<!-- 10 -->
<g id="node3" class="node">
<title>10</title>
<ellipse fill="none" stroke="black" cx="100.75" cy="-336" rx="23" ry="23"/>
<text text-anchor="middle" x="100.75" y="-332.3" font-family="Times,serif" font-size="14.00">10</text>
</g>
<!-- 20 -->
<g id="node4" class="node">
<title>20</title>
<ellipse fill="none" stroke="black" cx="232.24" cy="-355" rx="23" ry="23"/>
<text text-anchor="middle" x="232.24" y="-351.3" font-family="Times,serif" font-size="14.00">20</text>
</g>
<!-- 10&#45;&gt;20 -->
<g id="edge8" class="edge">
<title>10&#45;&gt;20</title>
<path fill="none" stroke="black" d="M123.42,-339.18C144.25,-342.24 175.95,-346.89 199.59,-350.36"/>
<polygon fill="black" stroke="black" points="199.1,-353.82 209.5,-351.81 200.11,-346.89 199.1,-353.82"/>
<text text-anchor="middle" x="168.5" y="-349.8" font-family="Times,serif" font-size="14.00">0</text>
</g>
<!-- 31 -->
<g id="node10" class="node">
<title>31</title>
<ellipse fill="none" stroke="black" cx="614.73" cy="-182" rx="23" ry="23"/>
<text text-anchor="middle" x="614.73" y="-178.3" font-family="Times,serif" font-size="14.00">31</text>
</g>
<!-- 10&#45;&gt;31 -->
<g id="edge9" class="edge">
<title>10&#45;&gt;31</title>
<path fill="none" stroke="black" d="M101.87,-313.09C103.54,-246.21 118.24,-56 231.24,-56 231.24,-56 231.24,-56 488.24,-56 542.23,-56 581.01,-114.79 600.18,-152.06"/>
<polygon fill="black" stroke="black" points="597.27,-154.07 604.84,-161.48 603.54,-150.96 597.27,-154.07"/>
<text text-anchor="middle" x="359.74" y="-59.8" font-family="Times,serif" font-size="14.00">1</text>
</g>
<!-- 40 -->
<g id="node6" class="node">
<title>40</title>
<ellipse fill="none" stroke="black" cx="359.74" cy="-355" rx="23" ry="23"/>
<text text-anchor="middle" x="359.74" y="-351.3" font-family="Times,serif" font-size="14.00">40</text>
</g>
<!-- 20&#45;&gt;40 -->
<g id="edge14" class="edge">
<title>20&#45;&gt;40</title>
<path fill="none" stroke="black" d="M255.1,-355C274.87,-355 304.22,-355 326.64,-355"/>
<polygon fill="black" stroke="black" points="326.71,-358.5 336.71,-355 326.71,-351.5 326.71,-358.5"/>
<text text-anchor="middle" x="295.99" y="-358.8" font-family="Times,serif" font-size="14.00">0</text>
</g>
<!-- 01 -->
<g id="node7" class="node">
<title>01</title>
<ellipse fill="none" stroke="black" cx="232.24" cy="-233" rx="23" ry="23"/>
<text text-anchor="middle" x="232.24" y="-229.3" font-family="Times,serif" font-size="14.00">01</text>
</g>
<!-- 20&#45;&gt;01 -->
<g id="edge15" class="edge">
<title>20&#45;&gt;01</title>
<path fill="none" stroke="black" d="M232.24,-332.16C232.24,-313.53 232.24,-286.96 232.24,-266.02"/>
<polygon fill="black" stroke="black" points="235.74,-265.95 232.24,-255.95 228.74,-265.95 235.74,-265.95"/>
<text text-anchor="middle" x="221.74" y="-290.3" font-family="Times,serif" font-size="14.00">1</text>
</g>
<!-- 30 -->
<g id="node5" class="node">
<title>30</title>
<ellipse fill="none" stroke="black" cx="487.24" cy="-365" rx="23" ry="23"/>
<text text-anchor="middle" x="487.24" y="-361.3" font-family="Times,serif" font-size="14.00">30</text>
</g>
<!-- 30&#45;&gt;10 -->
<g id="edge20" class="edge">
<title>30&#45;&gt;10</title>
<path fill="none" stroke="black" d="M465.14,-371.39C417.41,-384.85 297.77,-412.99 201.5,-389 174.88,-382.37 147.58,-367.17 128.28,-354.74"/>
<polygon fill="black" stroke="black" points="130.02,-351.69 119.75,-349.08 126.15,-357.52 130.02,-351.69"/>
<text text-anchor="middle" x="295.99" y="-401.8" font-family="Times,serif" font-size="14.00">0</text>
</g>
<!-- 21 -->
<g id="node9" class="node">
<title>21</title>
<ellipse fill="none" stroke="black" cx="359.74" cy="-237" rx="23" ry="23"/>
<text text-anchor="middle" x="359.74" y="-233.3" font-family="Times,serif" font-size="14.00">21</text>
</g>
<!-- 30&#45;&gt;21 -->
<g id="edge21" class="edge">
<title>30&#45;&gt;21</title>
<path fill="none" stroke="black" d="M475.83,-345.09C465.54,-326.7 448.47,-299.37 428.49,-280 417.06,-268.92 402.33,-259.17 389.53,-251.76"/>
<polygon fill="black" stroke="black" points="391.07,-248.61 380.63,-246.8 387.66,-254.72 391.07,-248.61"/>
<text text-anchor="middle" x="423.49" y="-283.8" font-family="Times,serif" font-size="14.00">1</text>
</g>
<!-- 40&#45;&gt;30 -->
<g id="edge26" class="edge">
<title>40&#45;&gt;30</title>
<path fill="none" stroke="black" d="M382.6,-356.74C402.36,-358.32 431.71,-360.66 454.14,-362.44"/>
<polygon fill="black" stroke="black" points="453.96,-365.94 464.21,-363.24 454.52,-358.96 453.96,-365.94"/>
<text text-anchor="middle" x="423.49" y="-363.8" font-family="Times,serif" font-size="14.00">0</text>
</g>
<!-- 41 -->
<g id="node11" class="node">
<title>41</title>
<ellipse fill="none" stroke="black" cx="487.24" cy="-252" rx="23" ry="23"/>
<text text-anchor="middle" x="487.24" y="-248.3" font-family="Times,serif" font-size="14.00">41</text>
</g>
<!-- 40&#45;&gt;41 -->
<g id="edge27" class="edge">
<title>40&#45;&gt;41</title>
<path fill="none" stroke="black" d="M377.93,-340.89C399.4,-323.27 436.31,-292.98 460.99,-272.72"/>
<polygon fill="black" stroke="black" points="463.34,-275.32 468.85,-266.27 458.9,-269.9 463.34,-275.32"/>
<text text-anchor="middle" x="423.49" y="-309.8" font-family="Times,serif" font-size="14.00">1</text>
</g>
<!-- 01&#45;&gt;01 -->
<g id="edge4" class="edge">
<title>01&#45;&gt;01</title>
<path fill="none" stroke="black" d="M221.44,-253.25C218.83,-265.8 222.44,-277.75 232.24,-277.75 239.29,-277.75 243.14,-271.58 243.77,-263.44"/>
<polygon fill="black" stroke="black" points="247.25,-262.98 243.05,-253.25 240.27,-263.47 247.25,-262.98"/>
<text text-anchor="middle" x="232.24" y="-281.55" font-family="Times,serif" font-size="14.00">0</text>
</g>
<!-- 12 -->
<g id="node13" class="node">
<title>12</title>
<ellipse fill="none" stroke="black" cx="359.74" cy="-514" rx="23" ry="23"/>
<text text-anchor="middle" x="359.74" y="-510.3" font-family="Times,serif" font-size="14.00">12</text>
</g>
<!-- 01&#45;&gt;12 -->
<g id="edge5" class="edge">
<title>01&#45;&gt;12</title>
<path fill="none" stroke="black" d="M254.74,-236.43C270.12,-240.06 289.96,-247.4 300.99,-262 359.88,-339.94 288.87,-390.94 328.99,-480 330.77,-483.94 333.16,-487.76 335.82,-491.33"/>
<polygon fill="black" stroke="black" points="333.24,-493.71 342.34,-499.14 338.62,-489.22 333.24,-493.71"/>
<text text-anchor="middle" x="295.99" y="-265.8" font-family="Times,serif" font-size="14.00">1</text>
</g>
<!-- 11&#45;&gt;21 -->
<g id="edge10" class="edge">
<title>11&#45;&gt;21</title>
<path fill="none" stroke="black" d="M252.3,-176.78C273.13,-188.56 306.69,-207.55 330.56,-221.06"/>
<polygon fill="black" stroke="black" points="329.07,-224.24 339.5,-226.12 332.52,-218.14 329.07,-224.24"/>
<text text-anchor="middle" x="295.99" y="-206.8" font-family="Times,serif" font-size="14.00">0</text>
</g>
<!-- 32 -->
<g id="node15" class="node">
<title>32</title>
<ellipse fill="none" stroke="black" cx="742.23" cy="-514" rx="23" ry="23"/>
<text text-anchor="middle" x="742.23" y="-510.3" font-family="Times,serif" font-size="14.00">32</text>
</g>
<!-- 11&#45;&gt;32 -->
<g id="edge11" class="edge">
<title>11&#45;&gt;32</title>
<path fill="none" stroke="black" d="M238.73,-143.96C251.44,-98.8 287.39,0 358.74,0 358.74,0 358.74,0 615.73,0 715.17,0 736.18,-367.67 740.29,-481.09"/>
<polygon fill="black" stroke="black" points="736.8,-481.38 740.64,-491.25 743.79,-481.14 736.8,-481.38"/>
<text text-anchor="middle" x="487.24" y="-3.8" font-family="Times,serif" font-size="14.00">1</text>
</g>
<!-- 21&#45;&gt;41 -->
<g id="edge16" class="edge">
<title>21&#45;&gt;41</title>
<path fill="none" stroke="black" d="M382.48,-236.59C395.81,-236.59 413.19,-237.07 428.49,-239 437.19,-240.1 446.5,-241.91 455.05,-243.83"/>
<polygon fill="black" stroke="black" points="454.48,-247.29 465.02,-246.2 456.1,-240.48 454.48,-247.29"/>
<text text-anchor="middle" x="423.49" y="-242.8" font-family="Times,serif" font-size="14.00">0</text>
</g>
<!-- 02 -->
<g id="node12" class="node">
<title>02</title>
<ellipse fill="none" stroke="black" cx="359.74" cy="-581" rx="23" ry="23"/>
<text text-anchor="middle" x="359.74" y="-577.3" font-family="Times,serif" font-size="14.00">02</text>
</g>
<!-- 21&#45;&gt;02 -->
<g id="edge17" class="edge">
<title>21&#45;&gt;02</title>
<path fill="none" stroke="black" d="M338.87,-246.82C325.65,-254.29 309.65,-265.94 301.99,-281.5 299.05,-287.48 301.64,-289.84 301.99,-296.5 308,-408.76 282.28,-445.74 328.99,-548 330.66,-551.66 332.91,-555.18 335.42,-558.47"/>
<polygon fill="black" stroke="black" points="332.86,-560.87 342.06,-566.12 338.15,-556.28 332.86,-560.87"/>
<text text-anchor="middle" x="295.99" y="-285.3" font-family="Times,serif" font-size="14.00">1</text>
</g>
<!-- 31&#45;&gt;11 -->
<g id="edge22" class="edge">
<title>31&#45;&gt;11</title>
<path fill="none" stroke="black" d="M592,-181.09C528.15,-178.4 340.89,-170.53 265.37,-167.35"/>
<polygon fill="black" stroke="black" points="265.21,-163.84 255.07,-166.92 264.91,-170.83 265.21,-163.84"/>
<text text-anchor="middle" x="423.49" y="-177.8" font-family="Times,serif" font-size="14.00">0</text>
</g>
<!-- 22 -->
<g id="node14" class="node">
<title>22</title>
<ellipse fill="none" stroke="black" cx="487.24" cy="-514" rx="23" ry="23"/>
<text text-anchor="middle" x="487.24" y="-510.3" font-family="Times,serif" font-size="14.00">22</text>
</g>
<!-- 31&#45;&gt;22 -->
<g id="edge23" class="edge">
<title>31&#45;&gt;22</title>
<path fill="none" stroke="black" d="M610.53,-204.62C602.32,-256.77 576.89,-388.02 517.98,-480 515.7,-483.57 513.06,-487.14 510.31,-490.56"/>
<polygon fill="black" stroke="black" points="507.63,-488.3 503.81,-498.19 512.96,-492.84 507.63,-488.3"/>
<text text-anchor="middle" x="550.98" y="-430.8" font-family="Times,serif" font-size="14.00">1</text>
</g>
<!-- 41&#45;&gt;31 -->
<g id="edge28" class="edge">
<title>41&#45;&gt;31</title>
<path fill="none" stroke="black" d="M507.57,-241.22C528.45,-229.57 561.91,-210.91 585.68,-197.65"/>
<polygon fill="black" stroke="black" points="587.55,-200.61 594.58,-192.68 584.14,-194.5 587.55,-200.61"/>
<text text-anchor="middle" x="550.98" y="-222.8" font-family="Times,serif" font-size="14.00">0</text>
</g>
<!-- 42 -->
<g id="node16" class="node">
<title>42</title>
<ellipse fill="none" stroke="black" cx="614.73" cy="-514" rx="23" ry="23"/>
<text text-anchor="middle" x="614.73" y="-510.3" font-family="Times,serif" font-size="14.00">42</text>
</g>
<!-- 41&#45;&gt;42 -->
<g id="edge29" class="edge">
<title>41&#45;&gt;42</title>
<path fill="none" stroke="black" d="M500.71,-270.81C506.27,-279.53 512.75,-290.13 517.98,-300 551.71,-363.58 584.53,-441.42 601.6,-483.5"/>
<polygon fill="black" stroke="black" points="598.41,-484.94 605.39,-492.9 604.9,-482.32 598.41,-484.94"/>
<text text-anchor="middle" x="550.98" y="-378.8" font-family="Times,serif" font-size="14.00">1</text>
</g>
<!-- 02&#45;&gt;10 -->
<g id="edge7" class="edge">
<title>02&#45;&gt;10</title>
<path fill="none" stroke="black" d="M341.63,-567.02C306.85,-538.32 225.88,-470.15 163.5,-407 149.1,-392.43 133.99,-375.1 122.32,-361.21"/>
<polygon fill="black" stroke="black" points="124.97,-358.92 115.88,-353.47 119.59,-363.4 124.97,-358.92"/>
<text text-anchor="middle" x="232.24" y="-494.8" font-family="Times,serif" font-size="14.00">1</text>
</g>
<!-- 02&#45;&gt;02 -->
<g id="edge6" class="edge">
<title>02&#45;&gt;02</title>
<path fill="none" stroke="black" d="M348.94,-601.25C346.33,-613.8 349.93,-625.75 359.74,-625.75 366.79,-625.75 370.63,-619.58 371.27,-611.44"/>
<polygon fill="black" stroke="black" points="374.75,-610.98 370.54,-601.25 367.76,-611.47 374.75,-610.98"/>
<text text-anchor="middle" x="359.74" y="-629.55" font-family="Times,serif" font-size="14.00">0</text>
</g>
<!-- 12&#45;&gt;30 -->
<g id="edge13" class="edge">
<title>12&#45;&gt;30</title>
<path fill="none" stroke="black" d="M375.14,-496.91C397.15,-470.78 439.29,-420.73 464.88,-390.36"/>
<polygon fill="black" stroke="black" points="467.86,-392.26 471.62,-382.35 462.5,-387.75 467.86,-392.26"/>
<text text-anchor="middle" x="423.49" y="-446.8" font-family="Times,serif" font-size="14.00">1</text>
</g>
<!-- 12&#45;&gt;22 -->
<g id="edge12" class="edge">
<title>12&#45;&gt;22</title>
<path fill="none" stroke="black" d="M382.6,-514C402.36,-514 431.71,-514 454.14,-514"/>
<polygon fill="black" stroke="black" points="454.21,-517.5 464.21,-514 454.21,-510.5 454.21,-517.5"/>
<text text-anchor="middle" x="423.49" y="-517.8" font-family="Times,serif" font-size="14.00">0</text>
</g>
<!-- 22&#45;&gt;00 -->
<g id="edge19" class="edge">
<title>22&#45;&gt;00</title>
<path fill="none" stroke="black" d="M477.53,-534.69C463.07,-566 430.83,-624.29 382.49,-648 361.14,-658.47 350.82,-657.42 328.99,-648 228.96,-604.83 152.53,-493.57 119.55,-438.64"/>
<polygon fill="black" stroke="black" points="122.55,-436.84 114.45,-430.01 116.53,-440.4 122.55,-436.84"/>
<text text-anchor="middle" x="295.99" y="-635.8" font-family="Times,serif" font-size="14.00">1</text>
</g>
<!-- 22&#45;&gt;42 -->
<g id="edge18" class="edge">
<title>22&#45;&gt;42</title>
<path fill="none" stroke="black" d="M510.1,-514C529.86,-514 559.21,-514 581.63,-514"/>
<polygon fill="black" stroke="black" points="581.7,-517.5 591.7,-514 581.7,-510.5 581.7,-517.5"/>
<text text-anchor="middle" x="550.98" y="-517.8" font-family="Times,serif" font-size="14.00">0</text>
</g>
<!-- 32&#45;&gt;20 -->
<g id="edge25" class="edge">
<title>32&#45;&gt;20</title>
<path fill="none" stroke="black" d="M739.14,-491.23C730.72,-406.19 695.79,-112 615.73,-112 358.74,-112 358.74,-112 358.74,-112 327.59,-112 312.43,-107.39 290.99,-130 237.26,-186.68 277.91,-227.34 254.99,-302 252.64,-309.67 249.61,-317.77 246.56,-325.26"/>
<polygon fill="black" stroke="black" points="243.25,-324.1 242.6,-334.68 249.71,-326.82 243.25,-324.1"/>
<text text-anchor="middle" x="487.24" y="-115.8" font-family="Times,serif" font-size="14.00">1</text>
</g>
<!-- 32&#45;&gt;12 -->
<g id="edge24" class="edge">
<title>32&#45;&gt;12</title>
<path fill="none" stroke="black" d="M721.23,-523.37C702.22,-531.72 672.6,-543.33 645.48,-548 566.21,-561.66 544.05,-559.84 464.49,-548 443.35,-544.85 438.81,-540.61 418.49,-534 409.54,-531.09 399.87,-527.8 391.04,-524.74"/>
<polygon fill="black" stroke="black" points="392.12,-521.41 381.52,-521.41 389.81,-528.01 392.12,-521.41"/>
<text text-anchor="middle" x="550.98" y="-560.8" font-family="Times,serif" font-size="14.00">0</text>
</g>
<!-- 42&#45;&gt;40 -->
<g id="edge31" class="edge">
<title>42&#45;&gt;40</title>
<path fill="none" stroke="black" d="M600.94,-495.64C590.22,-481.27 573.82,-461.51 555.98,-448 541.75,-437.22 440.85,-391.1 389.95,-368.12"/>
<polygon fill="black" stroke="black" points="391.33,-364.9 380.77,-363.98 388.45,-371.28 391.33,-364.9"/>
<text text-anchor="middle" x="487.24" y="-429.8" font-family="Times,serif" font-size="14.00">1</text>
</g>
<!-- 42&#45;&gt;32 -->
<g id="edge30" class="edge">
<title>42&#45;&gt;32</title>
<path fill="none" stroke="black" d="M637.59,-514C657.36,-514 686.7,-514 709.13,-514"/>
<polygon fill="black" stroke="black" points="709.2,-517.5 719.2,-514 709.2,-510.5 709.2,-517.5"/>
<text text-anchor="middle" x="678.48" y="-517.8" font-family="Times,serif" font-size="14.00">0</text>
</g>
</g>
</svg>
