<?xml version="1.0" encoding="UTF-8" standalone="no"?>
<!DOCTYPE svg PUBLIC "-//W3C//DTD SVG 1.1//EN"
 "http://www.w3.org/Graphics/SVG/1.1/DTD/svg11.dtd">
<!-- Generated by graphviz version 2.42.3 (0)
 -->
<!-- Title: 97 Pages: 1 -->
<svg width="813pt" height="689pt"
 viewBox="0.00 0.00 812.98 688.65" xmlns="http://www.w3.org/2000/svg" xmlns:xlink="http://www.w3.org/1999/xlink">
<g id="graph0" class="graph" transform="scale(1 1) rotate(0) translate(4 684.65)">
<title>97</title>
<polygon fill="white" stroke="transparent" points="-4,4 -4,-684.65 808.98,-684.65 808.98,4 -4,4"/>
<g id="clust1" class="cluster">
<title>cluster_0</title>
<polygon fill="none" stroke="black" points="66,-313 66,-491 541.98,-491 541.98,-313 66,-313"/>
</g>
<g id="clust2" class="cluster">
<title>cluster_1</title>
<polygon fill="none" stroke="black" points="201.5,-135 201.5,-305 669.48,-305 669.48,-135 201.5,-135"/>
</g>
<g id="clust3" class="cluster">
<title>cluster_2</title>
<polygon fill="none" stroke="black" points="336.99,-499 336.99,-669 796.98,-669 796.98,-499 336.99,-499"/>
</g>
<!-- enter -->
<g id="node1" class="node">
<title>enter</title>
</g>
<!-- 00 -->
<g id="node2" class="node">
<title>00</title>
<ellipse fill="none" stroke="black" cx="100.75" cy="-423" rx="22.96" ry="22.96"/>
<ellipse fill="none" stroke="black" cx="100.75" cy="-423" rx="27" ry="27"/>
<text text-anchor="middle" x="100.75" y="-419.3" font-family="Times,serif" font-size="14.00">00</text>
</g>
<!-- enter&#45;&gt;00 -->
<g id="edge1" class="edge">
<title>enter&#45;&gt;00:sw</title>
<path fill="none" stroke="black" d="M1.15,-403.91C4.06,-402.24 47.07,-377.96 75.24,-397.32"/>
<polygon fill="black" stroke="black" points="72.95,-399.97 82.75,-404 77.6,-394.74 72.95,-399.97"/>
</g>
<!-- 00&#45;&gt;00 -->
<g id="edge2" class="edge">
<title>00&#45;&gt;00</title>
<path fill="none" stroke="black" d="M89.57,-447.33C87.76,-460.14 91.48,-471.75 100.75,-471.75 107.48,-471.75 111.29,-465.62 112.17,-457.36"/>
<polygon fill="black" stroke="black" points="115.67,-457.24 111.93,-447.33 108.67,-457.41 115.67,-457.24"/>
<text text-anchor="middle" x="100.75" y="-475.55" font-family="Times,serif" font-size="14.00">0</text>
</g>
<!-- 11 -->
<g id="node8" class="node">
<title>11</title>
<ellipse fill="none" stroke="black" cx="236.24" cy="-166" rx="23" ry="23"/>
<text text-anchor="middle" x="236.24" y="-162.3" font-family="Times,serif" font-size="14.00">11</text>
</g>
<!-- 00&#45;&gt;11 -->
<g id="edge3" class="edge">
<title>00&#45;&gt;11</title>
<path fill="none" stroke="black" d="M117.6,-402.01C121.09,-396.92 124.61,-391.38 127.5,-386 169.75,-307.24 152.01,-273.43 201.5,-199 204.19,-194.95 207.45,-191 210.87,-187.33"/>
<polygon fill="black" stroke="black" points="213.37,-189.77 217.98,-180.23 208.43,-184.82 213.37,-189.77"/>
<text text-anchor="middle" x="168.5" y="-287.8" font-family="Times,serif" font-size="14.00">1</text>
</g>
<!-- 10 -->
<g id="node3" class="node">
<title>10</title>
<ellipse fill="none" stroke="black" cx="100.75" cy="-348" rx="22.96" ry="22.96"/>
<ellipse fill="none" stroke="black" cx="100.75" cy="-348" rx="27" ry="27"/>
<text text-anchor="middle" x="100.75" y="-344.3" font-family="Times,serif" font-size="14.00">10</text>
</g>
<!-- 20 -->
<g id="node4" class="node">
<title>20</title>
<ellipse fill="none" stroke="black" cx="236.24" cy="-367" rx="22.96" ry="22.96"/>
<ellipse fill="none" stroke="black" cx="236.24" cy="-367" rx="27" ry="27"/>
<text text-anchor="middle" x="236.24" y="-363.3" font-family="Times,serif" font-size="14.00">20</text>
</g>
<!-- 10&#45;&gt;20 -->
<g id="edge8" class="edge">
<title>10&#45;&gt;20</title>
<path fill="none" stroke="black" d="M127.49,-351.66C147.99,-354.58 176.91,-358.7 199.63,-361.93"/>
<polygon fill="black" stroke="black" points="199.19,-365.4 209.58,-363.35 200.18,-358.47 199.19,-365.4"/>
<text text-anchor="middle" x="168.5" y="-361.8" font-family="Times,serif" font-size="14.00">0</text>
</g>
<!-- 31 -->
<g id="node10" class="node">
<title>31</title>
<ellipse fill="none" stroke="black" cx="638.73" cy="-186" rx="23" ry="23"/>
<text text-anchor="middle" x="638.73" y="-182.3" font-family="Times,serif" font-size="14.00">31</text>
</g>
<!-- 10&#45;&gt;31 -->
<g id="edge9" class="edge">
<title>10&#45;&gt;31</title>
<path fill="none" stroke="black" d="M101.84,-321.05C103.64,-248.77 119.3,-56 235.24,-56 235.24,-56 235.24,-56 508.24,-56 564.47,-56 604.73,-117.82 624.3,-156.2"/>
<polygon fill="black" stroke="black" points="621.27,-157.97 628.83,-165.4 627.56,-154.88 621.27,-157.97"/>
<text text-anchor="middle" x="371.74" y="-59.8" font-family="Times,serif" font-size="14.00">1</text>
</g>
<!-- 40 -->
<g id="node6" class="node">
<title>40</title>
<ellipse fill="none" stroke="black" cx="371.74" cy="-367" rx="22.96" ry="22.96"/>
<ellipse fill="none" stroke="black" cx="371.74" cy="-367" rx="27" ry="27"/>
<text text-anchor="middle" x="371.74" y="-363.3" font-family="Times,serif" font-size="14.00">40</text>
</g>
<!-- 20&#45;&gt;40 -->
<g id="edge14" class="edge">
<title>20&#45;&gt;40</title>
<path fill="none" stroke="black" d="M263.3,-367C283.61,-367 312.04,-367 334.55,-367"/>
<polygon fill="black" stroke="black" points="334.75,-370.5 344.75,-367 334.75,-363.5 334.75,-370.5"/>
<text text-anchor="middle" x="303.99" y="-370.8" font-family="Times,serif" font-size="14.00">0</text>
</g>
<!-- 01 -->
<g id="node7" class="node">
<title>01</title>
<ellipse fill="none" stroke="black" cx="236.24" cy="-237" rx="22.96" ry="22.96"/>
<ellipse fill="none" stroke="black" cx="236.24" cy="-237" rx="27" ry="27"/>
<text text-anchor="middle" x="236.24" y="-233.3" font-family="Times,serif" font-size="14.00">01</text>
</g>
<!-- 20&#45;&gt;01 -->
<g id="edge15" class="edge">
<title>20&#45;&gt;01</title>
<path fill="none" stroke="black" d="M236.24,-340.1C236.24,-321.02 236.24,-295.17 236.24,-274.13"/>
<polygon fill="black" stroke="black" points="239.74,-273.94 236.24,-263.94 232.74,-273.94 239.74,-273.94"/>
<text text-anchor="middle" x="225.74" y="-298.3" font-family="Times,serif" font-size="14.00">1</text>
</g>
<!-- 30 -->
<g id="node5" class="node">
<title>30</title>
<ellipse fill="none" stroke="black" cx="507.24" cy="-377" rx="22.96" ry="22.96"/>
<ellipse fill="none" stroke="black" cx="507.24" cy="-377" rx="27" ry="27"/>
<text text-anchor="middle" x="507.24" y="-373.3" font-family="Times,serif" font-size="14.00">30</text>
</g>
<!-- 30&#45;&gt;10 -->
<g id="edge20" class="edge">
<title>30&#45;&gt;10</title>
<path fill="none" stroke="black" d="M481.76,-385.26C460.15,-392.1 427.63,-401.28 398.49,-405 311.64,-416.1 286.11,-427.47 201.5,-405 175.75,-398.16 149.72,-382.95 130.71,-369.96"/>
<polygon fill="black" stroke="black" points="132.69,-367.07 122.5,-364.18 128.66,-372.8 132.69,-367.07"/>
<text text-anchor="middle" x="303.99" y="-420.8" font-family="Times,serif" font-size="14.00">0</text>
</g>
<!-- 21 -->
<g id="node9" class="node">
<title>21</title>
<ellipse fill="none" stroke="black" cx="371.74" cy="-245" rx="23" ry="23"/>
<text text-anchor="middle" x="371.74" y="-241.3" font-family="Times,serif" font-size="14.00">21</text>
</g>
<!-- 30&#45;&gt;21 -->
<g id="edge21" class="edge">
<title>30&#45;&gt;21</title>
<path fill="none" stroke="black" d="M493.41,-354.04C482.18,-335.31 464.55,-308.95 444.49,-290 431.81,-278.02 415.47,-267.48 401.59,-259.62"/>
<polygon fill="black" stroke="black" points="402.91,-256.35 392.45,-254.62 399.55,-262.49 402.91,-256.35"/>
<text text-anchor="middle" x="439.49" y="-293.8" font-family="Times,serif" font-size="14.00">1</text>
</g>
<!-- 40&#45;&gt;30 -->
<g id="edge26" class="edge">
<title>40&#45;&gt;30</title>
<path fill="none" stroke="black" d="M398.48,-368.93C418.76,-370.45 447.28,-372.58 469.88,-374.28"/>
<polygon fill="black" stroke="black" points="469.89,-377.79 480.12,-375.04 470.41,-370.81 469.89,-377.79"/>
<text text-anchor="middle" x="439.49" y="-375.8" font-family="Times,serif" font-size="14.00">0</text>
</g>
<!-- 41 -->
<g id="node11" class="node">
<title>41</title>
<ellipse fill="none" stroke="black" cx="507.24" cy="-261" rx="23" ry="23"/>
<text text-anchor="middle" x="507.24" y="-257.3" font-family="Times,serif" font-size="14.00">41</text>
</g>
<!-- 40&#45;&gt;41 -->
<g id="edge27" class="edge">
<title>40&#45;&gt;41</title>
<path fill="none" stroke="black" d="M393.31,-350.67C416.83,-331.99 455.37,-301.39 480.77,-281.22"/>
<polygon fill="black" stroke="black" points="483.18,-283.77 488.84,-274.81 478.83,-278.29 483.18,-283.77"/>
<text text-anchor="middle" x="439.49" y="-320.8" font-family="Times,serif" font-size="14.00">1</text>
</g>
<!-- 01&#45;&gt;01 -->
<g id="edge4" class="edge">
<title>01&#45;&gt;01</title>
<path fill="none" stroke="black" d="M224.38,-261.08C222.36,-273.99 226.32,-285.75 236.24,-285.75 243.46,-285.75 247.52,-279.54 248.42,-271.19"/>
<polygon fill="black" stroke="black" points="251.92,-270.96 248.11,-261.08 244.92,-271.18 251.92,-270.96"/>
<text text-anchor="middle" x="236.24" y="-289.55" font-family="Times,serif" font-size="14.00">0</text>
</g>
<!-- 12 -->
<g id="node13" class="node">
<title>12</title>
<ellipse fill="none" stroke="black" cx="371.74" cy="-530" rx="23" ry="23"/>
<text text-anchor="middle" x="371.74" y="-526.3" font-family="Times,serif" font-size="14.00">12</text>
</g>
<!-- 01&#45;&gt;12 -->
<g id="edge5" class="edge">
<title>01&#45;&gt;12</title>
<path fill="none" stroke="black" d="M262.85,-242.13C278.71,-246.7 298.07,-255.06 308.99,-270 368.74,-351.69 292.74,-404.97 336.99,-496 339.3,-500.74 342.53,-505.22 346.09,-509.27"/>
<polygon fill="black" stroke="black" points="343.68,-511.81 353.18,-516.5 348.67,-506.91 343.68,-511.81"/>
<text text-anchor="middle" x="303.99" y="-273.8" font-family="Times,serif" font-size="14.00">1</text>
</g>
<!-- 11&#45;&gt;21 -->
<g id="edge10" class="edge">
<title>11&#45;&gt;21</title>
<path fill="none" stroke="black" d="M256.09,-177.15C278.72,-190.54 316.88,-213.12 342.9,-228.53"/>
<polygon fill="black" stroke="black" points="341.17,-231.57 351.56,-233.65 344.74,-225.54 341.17,-231.57"/>
<text text-anchor="middle" x="303.99" y="-210.8" font-family="Times,serif" font-size="14.00">0</text>
</g>
<!-- 32 -->
<g id="node15" class="node">
<title>32</title>
<ellipse fill="none" stroke="black" cx="766.23" cy="-530" rx="23" ry="23"/>
<text text-anchor="middle" x="766.23" y="-526.3" font-family="Times,serif" font-size="14.00">32</text>
</g>
<!-- 11&#45;&gt;32 -->
<g id="edge11" class="edge">
<title>11&#45;&gt;32</title>
<path fill="none" stroke="black" d="M243.42,-144.3C257.7,-99.3 297.51,0 370.74,0 370.74,0 370.74,0 639.73,0 742.43,0 761.2,-381.58 764.53,-497.2"/>
<polygon fill="black" stroke="black" points="761.03,-497.32 764.8,-507.23 768.03,-497.14 761.03,-497.32"/>
<text text-anchor="middle" x="507.24" y="-3.8" font-family="Times,serif" font-size="14.00">1</text>
</g>
<!-- 21&#45;&gt;41 -->
<g id="edge16" class="edge">
<title>21&#45;&gt;41</title>
<path fill="none" stroke="black" d="M394.78,-245.93C409,-246.67 427.88,-247.95 444.49,-250 454.41,-251.23 465.15,-252.99 474.86,-254.74"/>
<polygon fill="black" stroke="black" points="474.42,-258.22 484.89,-256.62 475.7,-251.34 474.42,-258.22"/>
<text text-anchor="middle" x="439.49" y="-253.8" font-family="Times,serif" font-size="14.00">0</text>
</g>
<!-- 02 -->
<g id="node12" class="node">
<title>02</title>
<ellipse fill="none" stroke="black" cx="371.74" cy="-601" rx="22.96" ry="22.96"/>
<ellipse fill="none" stroke="black" cx="371.74" cy="-601" rx="27" ry="27"/>
<text text-anchor="middle" x="371.74" y="-597.3" font-family="Times,serif" font-size="14.00">02</text>
</g>
<!-- 21&#45;&gt;02 -->
<g id="edge17" class="edge">
<title>21&#45;&gt;02</title>
<path fill="none" stroke="black" d="M350.72,-254.08C336.66,-261.4 319.27,-273.18 310.99,-289.5 307.98,-295.45 310.66,-297.84 310.99,-304.5 316.78,-420.27 288.99,-458.49 336.99,-564 338.89,-568.17 341.45,-572.18 344.33,-575.91"/>
<polygon fill="black" stroke="black" points="341.81,-578.34 351,-583.61 347.1,-573.76 341.81,-578.34"/>
<text text-anchor="middle" x="303.99" y="-293.3" font-family="Times,serif" font-size="14.00">1</text>
</g>
<!-- 31&#45;&gt;11 -->
<g id="edge22" class="edge">
<title>31&#45;&gt;11</title>
<path fill="none" stroke="black" d="M615.65,-184.9C548.73,-181.56 347.94,-171.53 269.32,-167.6"/>
<polygon fill="black" stroke="black" points="269.22,-164.09 259.06,-167.09 268.87,-171.08 269.22,-164.09"/>
<text text-anchor="middle" x="439.49" y="-179.8" font-family="Times,serif" font-size="14.00">0</text>
</g>
<!-- 22 -->
<g id="node14" class="node">
<title>22</title>
<ellipse fill="none" stroke="black" cx="507.24" cy="-530" rx="23" ry="23"/>
<text text-anchor="middle" x="507.24" y="-526.3" font-family="Times,serif" font-size="14.00">22</text>
</g>
<!-- 31&#45;&gt;22 -->
<g id="edge23" class="edge">
<title>31&#45;&gt;22</title>
<path fill="none" stroke="black" d="M635.04,-208.84C627.81,-262.77 604.1,-400.67 541.98,-496 539.23,-500.22 535.9,-504.35 532.4,-508.19"/>
<polygon fill="black" stroke="black" points="529.64,-506.01 525.15,-515.61 534.64,-510.9 529.64,-506.01"/>
<text text-anchor="middle" x="574.98" y="-444.8" font-family="Times,serif" font-size="14.00">1</text>
</g>
<!-- 41&#45;&gt;31 -->
<g id="edge28" class="edge">
<title>41&#45;&gt;31</title>
<path fill="none" stroke="black" d="M527.34,-249.93C549.05,-237.36 584.69,-216.72 609.58,-202.3"/>
<polygon fill="black" stroke="black" points="611.65,-205.15 618.55,-197.11 608.14,-199.1 611.65,-205.15"/>
<text text-anchor="middle" x="574.98" y="-226.8" font-family="Times,serif" font-size="14.00">0</text>
</g>
<!-- 42 -->
<g id="node16" class="node">
<title>42</title>
<ellipse fill="none" stroke="black" cx="638.73" cy="-530" rx="23" ry="23"/>
<text text-anchor="middle" x="638.73" y="-526.3" font-family="Times,serif" font-size="14.00">42</text>
</g>
<!-- 41&#45;&gt;42 -->
<g id="edge29" class="edge">
<title>41&#45;&gt;42</title>
<path fill="none" stroke="black" d="M522.33,-278.7C528.78,-287.26 536.24,-297.86 541.98,-308 578.9,-373.24 610.91,-455.49 626.89,-499.27"/>
<polygon fill="black" stroke="black" points="623.63,-500.57 630.33,-508.78 630.22,-498.18 623.63,-500.57"/>
<text text-anchor="middle" x="574.98" y="-382.8" font-family="Times,serif" font-size="14.00">1</text>
</g>
<!-- 02&#45;&gt;10 -->
<g id="edge7" class="edge">
<title>02&#45;&gt;10</title>
<path fill="none" stroke="black" d="M350,-585.15C311.49,-555.3 227.05,-487.89 163.5,-423 149.49,-408.7 135.19,-391.53 123.89,-377.24"/>
<polygon fill="black" stroke="black" points="126.52,-374.92 117.61,-369.19 121.01,-379.23 126.52,-374.92"/>
<text text-anchor="middle" x="236.24" y="-515.8" font-family="Times,serif" font-size="14.00">1</text>
</g>
<!-- 02&#45;&gt;02 -->
<g id="edge6" class="edge">
<title>02&#45;&gt;02</title>
<path fill="none" stroke="black" d="M359.88,-625.08C357.86,-637.99 361.81,-649.75 371.74,-649.75 378.95,-649.75 383.01,-643.54 383.92,-635.19"/>
<polygon fill="black" stroke="black" points="387.41,-634.96 383.6,-625.08 380.42,-635.18 387.41,-634.96"/>
<text text-anchor="middle" x="371.74" y="-653.55" font-family="Times,serif" font-size="14.00">0</text>
</g>
<!-- 12&#45;&gt;30 -->
<g id="edge13" class="edge">
<title>12&#45;&gt;30</title>
<path fill="none" stroke="black" d="M387.28,-513.34C410.14,-487.13 454.73,-436.03 482.35,-404.37"/>
<polygon fill="black" stroke="black" points="485.05,-406.61 488.99,-396.77 479.77,-402.01 485.05,-406.61"/>
<text text-anchor="middle" x="439.49" y="-461.8" font-family="Times,serif" font-size="14.00">1</text>
</g>
<!-- 12&#45;&gt;22 -->
<g id="edge12" class="edge">
<title>12&#45;&gt;22</title>
<path fill="none" stroke="black" d="M394.78,-530C416.33,-530 449.38,-530 473.9,-530"/>
<polygon fill="black" stroke="black" points="474.16,-533.5 484.16,-530 474.16,-526.5 474.16,-533.5"/>
<text text-anchor="middle" x="439.49" y="-533.8" font-family="Times,serif" font-size="14.00">0</text>
</g>
<!-- 22&#45;&gt;00 -->
<g id="edge19" class="edge">
<title>22&#45;&gt;00</title>
<path fill="none" stroke="black" d="M497.8,-550.83C483.2,-583.72 449.77,-646.54 398.49,-672 374.01,-684.15 362.16,-682.67 336.99,-672 232.74,-627.81 153.43,-511.62 119.63,-454.97"/>
<polygon fill="black" stroke="black" points="122.5,-452.93 114.42,-446.08 116.46,-456.48 122.5,-452.93"/>
<text text-anchor="middle" x="303.99" y="-660.8" font-family="Times,serif" font-size="14.00">1</text>
</g>
<!-- 22&#45;&gt;42 -->
<g id="edge18" class="edge">
<title>22&#45;&gt;42</title>
<path fill="none" stroke="black" d="M530.2,-530C550.85,-530 582.01,-530 605.48,-530"/>
<polygon fill="black" stroke="black" points="605.66,-533.5 615.66,-530 605.66,-526.5 605.66,-533.5"/>
<text text-anchor="middle" x="574.98" y="-533.8" font-family="Times,serif" font-size="14.00">0</text>
</g>
<!-- 32&#45;&gt;20 -->
<g id="edge25" class="edge">
<title>32&#45;&gt;20</title>
<path fill="none" stroke="black" d="M763.4,-507.23C755.78,-420 722.98,-112 639.73,-112 370.74,-112 370.74,-112 370.74,-112 337.86,-112 321.67,-106.2 298.99,-130 242.72,-189.07 287.95,-232.33 262.99,-310 260.39,-318.08 256.98,-326.55 253.49,-334.41"/>
<polygon fill="black" stroke="black" points="250.25,-333.08 249.25,-343.62 256.61,-336 250.25,-333.08"/>
<text text-anchor="middle" x="507.24" y="-115.8" font-family="Times,serif" font-size="14.00">1</text>
</g>
<!-- 32&#45;&gt;12 -->
<g id="edge24" class="edge">
<title>32&#45;&gt;12</title>
<path fill="none" stroke="black" d="M745.23,-539.37C726.22,-547.72 696.6,-559.33 669.48,-564 586.7,-578.26 563.57,-576.36 480.49,-564 459.35,-560.85 454.88,-556.4 434.49,-550 424.25,-546.78 413.08,-543.19 403.09,-539.95"/>
<polygon fill="black" stroke="black" points="404.17,-536.62 393.58,-536.85 402,-543.28 404.17,-536.62"/>
<text text-anchor="middle" x="574.98" y="-576.8" font-family="Times,serif" font-size="14.00">0</text>
</g>
<!-- 42&#45;&gt;40 -->
<g id="edge31" class="edge">
<title>42&#45;&gt;40</title>
<path fill="none" stroke="black" d="M624.97,-511.61C614.26,-497.22 597.87,-477.45 579.98,-464 565.08,-452.79 460.59,-405.86 405.92,-381.63"/>
<polygon fill="black" stroke="black" points="407.2,-378.37 396.64,-377.52 404.37,-384.77 407.2,-378.37"/>
<text text-anchor="middle" x="507.24" y="-446.8" font-family="Times,serif" font-size="14.00">1</text>
</g>
<!-- 42&#45;&gt;32 -->
<g id="edge30" class="edge">
<title>42&#45;&gt;32</title>
<path fill="none" stroke="black" d="M661.59,-530C681.36,-530 710.7,-530 733.13,-530"/>
<polygon fill="black" stroke="black" points="733.2,-533.5 743.2,-530 733.2,-526.5 733.2,-533.5"/>
<text text-anchor="middle" x="702.48" y="-533.8" font-family="Times,serif" font-size="14.00">0</text>
</g>
</g>
</svg>
